  0
SECTION
  2
HEADER
  9
$ACADVER
  1
AC1014
  9
$HANDSEED
  5
FFFF
  9
$MEASUREMENT
 70
     1
  0
ENDSEC
  0
SECTION
  2
TABLES
  0
TABLE
  2
VPORT
  5
8
330
0
100
AcDbSymbolTable
 70
     4
  0
VPORT
  5
2E
330
8
100
AcDbSymbolTableRecord
100
AcDbViewportTableRecord
  2
*ACTIVE
 70
     0
 10
0.0
 20
0.0
 11
1.0
 21
1.0
 12
210.0
 22
148.5
 13
0.0
 23
0.0
 14
10.0
 24
10.0
 15
10.0
 25
10.0
 16
0.0
 26
0.0
 36
1.0
 17
0.0
 27
0.0
 37
0.0
 40
341.0
 41
1.24
 42
50.0
 43
0.0
 44
0.0
 50
0.0
 51
0.0
 71
     0
 72
   100
 73
     1
 74
     3
 75
     0
 76
     0
 77
     0
 78
     0
  0
ENDTAB
  0
TABLE
  2
LTYPE
  5
5
330
0
100
AcDbSymbolTable
 70
     1
  0
LTYPE
  5
14
330
5
100
AcDbSymbolTableRecord
100
AcDbLinetypeTableRecord
  2
BYBLOCK
 70
     0
  3

 72
    65
 73
     0
 40
0.0
  0
LTYPE
  5
15
330
5
100
AcDbSymbolTableRecord
100
AcDbLinetypeTableRecord
  2
BYLAYER
 70
     0
  3

 72
    65
 73
     0
 40
0.0
  0
LTYPE
  5
16
330
5
100
AcDbSymbolTableRecord
100
AcDbLinetypeTableRecord
  2
CONTINUOUS
 70
     0
  3
Solid line
 72
    65
 73
     0
 40
0.0
  0
ENDTAB
  0
TABLE
  2
LAYER
  5
2
100
AcDbSymbolTable
 70
2
  0
LAYER
  5
50
100
AcDbSymbolTableRecord
100
AcDbLayerTableRecord
  2
0
 70
0
  6
CONTINUOUS
  0
LAYER
  5
51
100
AcDbSymbolTableRecord
100
AcDbLayerTableRecord
  2
Warstwa_1
 70
0
  6
CONTINUOUS
  0
ENDTAB
  0
TABLE
  2
STYLE
  5
3
330
0
100
AcDbSymbolTable
 70
     1
  0
STYLE
  5
11
330
3
100
AcDbSymbolTableRecord
100
AcDbTextStyleTableRecord
  2
STANDARD
 70
     0
 40
0.0
 41
1.0
 50
0.0
 71
     0
 42
2.5
  3
txt
  4

  0
ENDTAB
  0
TABLE
  2
VIEW
  5
6
330
0
100
AcDbSymbolTable
 70
     0
  0
ENDTAB
  0
TABLE
  2
UCS
  5
7
330
0
100
AcDbSymbolTable
 70
     0
  0
ENDTAB
  0
TABLE
  2
APPID
  5
9
330
0
100
AcDbSymbolTable
 70
     2
  0
APPID
  5
12
330
9
100
AcDbSymbolTableRecord
100
AcDbRegAppTableRecord
  2
ACAD
 70
     0
  0
ENDTAB
  0
TABLE
  2
DIMSTYLE
  5
A
330
0
100
AcDbSymbolTable
 70
     1
  0
DIMSTYLE
105
27
330
A
100
AcDbSymbolTableRecord
100
AcDbDimStyleTableRecord
  2
ISO-25
 70
     0
  3

  4

  5

  6

  7

 40
1.0
 41
2.5
 42
0.625
 43
3.75
 44
1.25
 45
0.0
 46
0.0
 47
0.0
 48
0.0
140
2.5
141
2.5
142
0.0
143
0.03937007874016
144
1.0
145
0.0
146
1.0
147
0.625
 71
     0
 72
     0
 73
     0
 74
     0
 75
     0
 76
     0
 77
     1
 78
     8
170
     0
171
     3
172
     1
173
     0
174
     0
175
     0
176
     0
177
     0
178
     0
270
     2
271
     2
272
     2
273
     2
274
     3
340
11
275
     0
280
     0
281
     0
282
     0
283
     0
284
     8
285
     0
286
     0
287
     3
288
     0
  0
ENDTAB
  0
TABLE
  2
BLOCK_RECORD
  5
1
330
0
100
AcDbSymbolTable
 70
     1
  0
BLOCK_RECORD
  5
1F
330
1
100
AcDbSymbolTableRecord
100
AcDbBlockTableRecord
  2
*MODEL_SPACE
  0
BLOCK_RECORD
  5
1B
330
1
100
AcDbSymbolTableRecord
100
AcDbBlockTableRecord
  2
*PAPER_SPACE
  0
ENDTAB
  0
ENDSEC
  0
SECTION
  2
BLOCKS
  0
BLOCK
  5
20
330
1F
100
AcDbEntity
  8
0
100
AcDbBlockBegin
  2
*MODEL_SPACE
 70
     0
 10
0.0
 20
0.0
 30
0.0
  3
*MODEL_SPACE
  1

  0
ENDBLK
  5
21
330
1F
100
AcDbEntity
  8
0
100
AcDbBlockEnd
  0
BLOCK
  5
1C
330
1B
100
AcDbEntity
 67
     1
  8
0
100
AcDbBlockBegin
  2
*PAPER_SPACE
  1

  0
ENDBLK
  5
1D
330
1B
100
AcDbEntity
 67
     1
  8
0
100
AcDbBlockEnd
  0
ENDSEC
  0
SECTION
  2
ENTITIES
  0
SPLINE
  5
100
100
AcDbEntity
  8
Warstwa_1
 62
7
100
AcDbSpline
 70
8
 71
3
 72
8
 73
4
 74
0
 40
0
 40
0
 40
0
 40
0
 40
1
 40
1
 40
1
 40
1
 10
3.989865
 20
7.783203
 30
0.0
 10
5.744283
 20
7.854363
 30
0.0
 10
7.339858
 20
6.485754
 30
0.0
 10
7.399366
 20
4.695640
 30
0.0
  0
SPLINE
  5
101
100
AcDbEntity
  8
Warstwa_1
 62
7
100
AcDbSpline
 70
8
 71
3
 72
8
 73
4
 74
0
 40
0
 40
0
 40
0
 40
0
 40
1
 40
1
 40
1
 40
1
 10
7.399366
 20
4.695640
 30
0.0
 10
7.451745
 20
3.119950
 30
0.0
 10
6.225588
 20
1.688650
 30
0.0
 10
4.626666
 20
1.649200
 30
0.0
  0
SPLINE
  5
102
100
AcDbEntity
  8
Warstwa_1
 62
7
100
AcDbSpline
 70
8
 71
3
 72
8
 73
4
 74
0
 40
0
 40
0
 40
0
 40
0
 40
1
 40
1
 40
1
 40
1
 10
4.626666
 20
1.649200
 30
0.0
 10
3.241552
 20
1.614600
 30
0.0
 10
1.984496
 20
2.707900
 30
0.0
 10
1.965718
 20
4.127640
 30
0.0
  0
SPLINE
  5
103
100
AcDbEntity
  8
Warstwa_1
 62
7
100
AcDbSpline
 70
8
 71
3
 72
8
 73
4
 74
0
 40
0
 40
0
 40
0
 40
0
 40
1
 40
1
 40
1
 40
1
 10
1.965718
 20
4.127640
 30
0.0
 10
1.949781
 20
5.332473
 30
0.0
 10
2.901845
 20
6.424978
 30
0.0
 10
4.131671
 20
6.422833
 30
0.0
  0
SPLINE
  5
104
100
AcDbEntity
  8
Warstwa_1
 62
7
100
AcDbSpline
 70
8
 71
3
 72
8
 73
4
 74
0
 40
0
 40
0
 40
0
 40
0
 40
1
 40
1
 40
1
 40
1
 10
4.131671
 20
6.422833
 30
0.0
 10
5.147391
 20
6.421433
 30
0.0
 10
6.067767
 20
5.602633
 30
0.0
 10
6.044067
 20
4.553470
 30
0.0
  0
SPLINE
  5
105
100
AcDbEntity
  8
Warstwa_1
 62
7
100
AcDbSpline
 70
8
 71
3
 72
8
 73
4
 74
0
 40
0
 40
0
 40
0
 40
0
 40
1
 40
1
 40
1
 40
1
 10
6.044067
 20
4.553470
 30
0.0
 10
6.025232
 20
3.719370
 30
0.0
 10
5.345408
 20
2.963040
 30
0.0
 10
4.484860
 20
3.009590
 30
0.0
  0
SPLINE
  5
106
100
AcDbEntity
  8
Warstwa_1
 62
7
100
AcDbSpline
 70
8
 71
3
 72
8
 73
4
 74
0
 40
0
 40
0
 40
0
 40
0
 40
1
 40
1
 40
1
 40
1
 10
4.484860
 20
3.009590
 30
0.0
 10
3.838775
 20
3.044790
 30
0.0
 10
3.249899
 20
3.592240
 30
0.0
 10
3.321183
 20
4.270260
 30
0.0
  0
SPLINE
  5
107
100
AcDbEntity
  8
Warstwa_1
 62
7
100
AcDbSpline
 70
8
 71
3
 72
8
 73
4
 74
0
 40
0
 40
0
 40
0
 40
0
 40
1
 40
1
 40
1
 40
1
 10
3.321183
 20
4.270260
 30
0.0
 10
3.345498
 20
4.501580
 30
0.0
 10
3.461239
 20
4.724710
 30
0.0
 10
3.632194
 20
4.877630
 30
0.0
  0
SPLINE
  5
108
100
AcDbEntity
  8
Warstwa_1
 62
7
100
AcDbSpline
 70
8
 71
3
 72
8
 73
4
 74
0
 40
0
 40
0
 40
0
 40
0
 40
1
 40
1
 40
1
 40
1
 10
3.632194
 20
4.877630
 30
0.0
 10
3.803148
 20
5.030571
 30
0.0
 10
4.029680
 20
5.113169
 30
0.0
 10
4.274308
 20
5.062285
 30
0.0
  0
SPLINE
  5
109
100
AcDbEntity
  8
Warstwa_1
 62
7
100
AcDbSpline
 70
8
 71
3
 72
8
 73
4
 74
0
 40
0
 40
0
 40
0
 40
0
 40
1
 40
1
 40
1
 40
1
 10
4.274308
 20
5.062285
 30
0.0
 10
4.411615
 20
5.034075
 30
0.0
 10
4.551343
 20
4.945000
 30
0.0
 10
4.638954
 20
4.825970
 30
0.0
  0
SPLINE
  5
10a
100
AcDbEntity
  8
Warstwa_1
 62
7
100
AcDbSpline
 70
8
 71
3
 72
8
 73
4
 74
0
 40
0
 40
0
 40
0
 40
0
 40
1
 40
1
 40
1
 40
1
 10
4.638954
 20
4.825970
 30
0.0
 10
4.726559
 20
4.706900
 30
0.0
 10
4.761734
 20
4.556880
 30
0.0
 10
4.688103
 20
4.408790
 30
0.0
  0
SPLINE
  5
10b
100
AcDbEntity
  8
Warstwa_1
 62
7
100
AcDbSpline
 70
8
 71
3
 72
8
 73
4
 74
0
 40
0
 40
0
 40
0
 40
0
 40
1
 40
1
 40
1
 40
1
 10
4.688103
 20
4.408790
 30
0.0
 10
4.659966
 20
4.352690
 30
0.0
 10
4.579830
 20
4.292320
 30
0.0
 10
4.502625
 20
4.270810
 30
0.0
  0
SPLINE
  5
10c
100
AcDbEntity
  8
Warstwa_1
 62
7
100
AcDbSpline
 70
8
 71
3
 72
8
 73
4
 74
0
 40
0
 40
0
 40
0
 40
0
 40
1
 40
1
 40
1
 40
1
 10
4.502625
 20
4.270810
 30
0.0
 10
4.464021
 20
4.260110
 30
0.0
 10
4.425925
 20
4.259510
 30
0.0
 10
4.395356
 20
4.273810
 30
0.0
  0
SPLINE
  5
10d
100
AcDbEntity
  8
Warstwa_1
 62
7
100
AcDbSpline
 70
8
 71
3
 72
8
 73
4
 74
0
 40
0
 40
0
 40
0
 40
0
 40
1
 40
1
 40
1
 40
1
 10
4.395356
 20
4.273810
 30
0.0
 10
4.364788
 20
4.290010
 30
0.0
 10
4.343038
 20
4.321510
 30
0.0
 10
4.337571
 20
4.374470
 30
0.0
  0
SPLINE
  5
10e
100
AcDbEntity
  8
Warstwa_1
 62
7
100
AcDbSpline
 70
8
 71
3
 72
8
 73
4
 74
0
 40
0
 40
0
 40
0
 40
0
 40
1
 40
1
 40
1
 40
1
 10
4.349864
 20
4.375370
 30
0.0
 10
4.355084
 20
4.324970
 30
0.0
 10
4.374418
 20
4.297370
 30
0.0
 10
4.401004
 20
4.284570
 30
0.0
  0
SPLINE
  5
10f
100
AcDbEntity
  8
Warstwa_1
 62
7
100
AcDbSpline
 70
8
 71
3
 72
8
 73
4
 74
0
 40
0
 40
0
 40
0
 40
0
 40
1
 40
1
 40
1
 40
1
 10
4.401004
 20
4.284570
 30
0.0
 10
4.427596
 20
4.270270
 30
0.0
 10
4.462723
 20
4.271970
 30
0.0
 10
4.499472
 20
4.281570
 30
0.0
  0
SPLINE
  5
110
100
AcDbEntity
  8
Warstwa_1
 62
7
100
AcDbSpline
 70
8
 71
3
 72
8
 73
4
 74
0
 40
0
 40
0
 40
0
 40
0
 40
1
 40
1
 40
1
 40
1
 10
4.499472
 20
4.281570
 30
0.0
 10
4.572981
 20
4.301570
 30
0.0
 10
4.651574
 20
4.362070
 30
0.0
 10
4.676979
 20
4.413070
 30
0.0
  0
SPLINE
  5
111
100
AcDbEntity
  8
Warstwa_1
 62
7
100
AcDbSpline
 70
8
 71
3
 72
8
 73
4
 74
0
 40
0
 40
0
 40
0
 40
0
 40
1
 40
1
 40
1
 40
1
 10
4.676979
 20
4.413070
 30
0.0
 10
4.748428
 20
4.556750
 30
0.0
 10
4.714608
 20
4.700950
 30
0.0
 10
4.628995
 20
4.817250
 30
0.0
  0
SPLINE
  5
112
100
AcDbEntity
  8
Warstwa_1
 62
7
100
AcDbSpline
 70
8
 71
3
 72
8
 73
4
 74
0
 40
0
 40
0
 40
0
 40
0
 40
1
 40
1
 40
1
 40
1
 10
4.628995
 20
4.817250
 30
0.0
 10
4.543382
 20
4.933530
 30
0.0
 10
4.405747
 20
5.021011
 30
0.0
 10
4.271822
 20
5.048859
 30
0.0
  0
SPLINE
  5
113
100
AcDbEntity
  8
Warstwa_1
 62
7
100
AcDbSpline
 70
8
 71
3
 72
8
 73
4
 74
0
 40
0
 40
0
 40
0
 40
0
 40
1
 40
1
 40
1
 40
1
 10
4.271822
 20
5.048859
 30
0.0
 10
4.031279
 20
5.099659
 30
0.0
 10
3.809060
 20
5.018769
 30
0.0
 10
3.640500
 20
4.867240
 30
0.0
  0
SPLINE
  5
114
100
AcDbEntity
  8
Warstwa_1
 62
7
100
AcDbSpline
 70
8
 71
3
 72
8
 73
4
 74
0
 40
0
 40
0
 40
0
 40
0
 40
1
 40
1
 40
1
 40
1
 10
3.640500
 20
4.867240
 30
0.0
 10
3.471941
 20
4.716470
 30
0.0
 10
3.357450
 20
4.495800
 30
0.0
 10
3.333474
 20
4.267670
 30
0.0
  0
SPLINE
  5
115
100
AcDbEntity
  8
Warstwa_1
 62
7
100
AcDbSpline
 70
8
 71
3
 72
8
 73
4
 74
0
 40
0
 40
0
 40
0
 40
0
 40
1
 40
1
 40
1
 40
1
 10
3.333474
 20
4.267670
 30
0.0
 10
3.263008
 20
3.597480
 30
0.0
 10
3.845977
 20
3.055260
 30
0.0
 10
4.485528
 20
3.020700
 30
0.0
  0
SPLINE
  5
116
100
AcDbEntity
  8
Warstwa_1
 62
7
100
AcDbSpline
 70
8
 71
3
 72
8
 73
4
 74
0
 40
0
 40
0
 40
0
 40
0
 40
1
 40
1
 40
1
 40
1
 10
4.485528
 20
3.020700
 30
0.0
 10
5.338530
 20
2.974800
 30
0.0
 10
6.012925
 20
3.724900
 30
0.0
 10
6.031617
 20
4.552420
 30
0.0
  0
SPLINE
  5
117
100
AcDbEntity
  8
Warstwa_1
 62
7
100
AcDbSpline
 70
8
 71
3
 72
8
 73
4
 74
0
 40
0
 40
0
 40
0
 40
0
 40
1
 40
1
 40
1
 40
1
 10
6.031617
 20
4.552420
 30
0.0
 10
6.055143
 20
5.594108
 30
0.0
 10
5.140619
 20
6.407513
 30
0.0
 10
4.131510
 20
6.409275
 30
0.0
  0
SPLINE
  5
118
100
AcDbEntity
  8
Warstwa_1
 62
7
100
AcDbSpline
 70
8
 71
3
 72
8
 73
4
 74
0
 40
0
 40
0
 40
0
 40
0
 40
1
 40
1
 40
1
 40
1
 10
4.131510
 20
6.409275
 30
0.0
 10
2.908997
 20
6.410975
 30
0.0
 10
1.962327
 20
5.324823
 30
0.0
 10
1.978176
 20
4.126590
 30
0.0
  0
SPLINE
  5
119
100
AcDbEntity
  8
Warstwa_1
 62
7
100
AcDbSpline
 70
8
 71
3
 72
8
 73
4
 74
0
 40
0
 40
0
 40
0
 40
0
 40
1
 40
1
 40
1
 40
1
 10
1.978176
 20
4.126590
 30
0.0
 10
1.996865
 20
2.714130
 30
0.0
 10
3.248053
 20
1.626370
 30
0.0
 10
4.626504
 20
1.660280
 30
0.0
  0
SPLINE
  5
11a
100
AcDbEntity
  8
Warstwa_1
 62
7
100
AcDbSpline
 70
8
 71
3
 72
8
 73
4
 74
0
 40
0
 40
0
 40
0
 40
0
 40
1
 40
1
 40
1
 40
1
 10
4.626504
 20
1.660280
 30
0.0
 10
6.218228
 20
1.698880
 30
0.0
 10
7.439071
 20
3.125130
 30
0.0
 10
7.386916
 20
4.694060
 30
0.0
  0
SPLINE
  5
11b
100
AcDbEntity
  8
Warstwa_1
 62
7
100
AcDbSpline
 70
8
 71
3
 72
8
 73
4
 74
0
 40
0
 40
0
 40
0
 40
0
 40
1
 40
1
 40
1
 40
1
 10
7.386916
 20
4.694060
 30
0.0
 10
7.327651
 20
6.477007
 30
0.0
 10
5.738088
 20
7.840543
 30
0.0
 10
3.990368
 20
7.769641
 30
0.0
  0
SPLINE
  5
11c
100
AcDbEntity
  8
Warstwa_1
 62
7
100
AcDbSpline
 70
8
 71
3
 72
8
 73
4
 74
0
 40
0
 40
0
 40
0
 40
0
 40
1
 40
1
 40
1
 40
1
 10
3.990368
 20
7.769641
 30
0.0
 10
2.029498
 20
7.690161
 30
0.0
 10
0.533614
 20
5.924278
 30
0.0
 10
0.622878
 20
3.984720
 30
0.0
  0
SPLINE
  5
11d
100
AcDbEntity
  8
Warstwa_1
 62
7
100
AcDbSpline
 70
8
 71
3
 72
8
 73
4
 74
0
 40
0
 40
0
 40
0
 40
0
 40
1
 40
1
 40
1
 40
1
 10
0.622878
 20
3.984720
 30
0.0
 10
0.721986
 20
1.831230
 30
0.0
 10
2.650698
 20
0.191520
 30
0.0
 10
4.767647
 20
0.299960
 30
0.0
  0
SPLINE
  5
11e
100
AcDbEntity
  8
Warstwa_1
 62
7
100
AcDbSpline
 70
8
 71
3
 72
8
 73
4
 74
0
 40
0
 40
0
 40
0
 40
0
 40
1
 40
1
 40
1
 40
1
 10
4.767647
 20
0.299960
 30
0.0
 10
6.932570
 20
0.410780
 30
0.0
 10
8.653539
 20
2.251370
 30
0.0
 10
8.745037
 20
4.404070
 30
0.0
  0
LWPOLYLINE
  5
11f
100
AcDbEntity
  8
Warstwa_1
 62
7
100
AcDbPolyline
 90
2
 70
0
 10
4.337571
 20
4.374470
 30
0.0
 10
4.349864
 20
4.375370
 30
0.0
  0
SPLINE
  5
120
100
AcDbEntity
  8
Warstwa_1
 62
7
100
AcDbSpline
 70
8
 71
3
 72
8
 73
4
 74
0
 40
0
 40
0
 40
0
 40
0
 40
1
 40
1
 40
1
 40
1
 10
8.757318
 20
4.403500
 30
0.0
 10
8.665552
 20
2.244500
 30
0.0
 10
6.939854
 20
0.398820
 30
0.0
 10
4.768306
 20
0.287590
 30
0.0
  0
SPLINE
  5
121
100
AcDbEntity
  8
Warstwa_1
 62
7
100
AcDbSpline
 70
8
 71
3
 72
8
 73
4
 74
0
 40
0
 40
0
 40
0
 40
0
 40
1
 40
1
 40
1
 40
1
 10
4.768306
 20
0.287590
 30
0.0
 10
2.644633
 20
0.178860
 30
0.0
 10
0.709855
 20
1.823640
 30
0.0
 10
0.610419
 20
3.984160
 30
0.0
  0
SPLINE
  5
122
100
AcDbEntity
  8
Warstwa_1
 62
7
100
AcDbSpline
 70
8
 71
3
 72
8
 73
4
 74
0
 40
0
 40
0
 40
0
 40
0
 40
1
 40
1
 40
1
 40
1
 10
0.610419
 20
3.984160
 30
0.0
 10
0.520842
 20
5.931561
 30
0.0
 10
2.021863
 20
7.703192
 30
0.0
 10
3.989862
 20
7.783036
 30
0.0
  0
LWPOLYLINE
  5
123
100
AcDbEntity
  8
Warstwa_1
 62
7
100
AcDbPolyline
 90
2
 70
0
 10
8.745037
 20
4.404070
 30
0.0
 10
8.757318
 20
4.403500
 30
0.0
  0
SPLINE
  5
124
100
AcDbEntity
  8
Warstwa_1
 62
7
100
AcDbSpline
 70
8
 71
3
 72
8
 73
4
 74
0
 40
0
 40
0
 40
0
 40
0
 40
1
 40
1
 40
1
 40
1
 10
11.391801
 20
7.466196
 30
0.0
 10
11.176594
 20
7.464696
 30
0.0
 10
10.961152
 20
7.463096
 30
0.0
 10
10.774210
 20
7.440316
 30
0.0
  0
SPLINE
  5
125
100
AcDbEntity
  8
Warstwa_1
 62
7
100
AcDbSpline
 70
8
 71
3
 72
8
 73
4
 74
0
 40
0
 40
0
 40
0
 40
0
 40
1
 40
1
 40
1
 40
1
 10
10.774210
 20
7.440316
 30
0.0
 10
10.587263
 20
7.418446
 30
0.0
 10
10.428574
 20
7.376176
 30
0.0
 10
10.216833
 20
7.272146
 30
0.0
  0
SPLINE
  5
126
100
AcDbEntity
  8
Warstwa_1
 62
7
100
AcDbSpline
 70
8
 71
3
 72
8
 73
4
 74
0
 40
0
 40
0
 40
0
 40
0
 40
1
 40
1
 40
1
 40
1
 10
10.216833
 20
7.272146
 30
0.0
 10
10.005090
 20
7.168165
 30
0.0
 10
9.739658
 20
7.002475
 30
0.0
 10
9.512361
 20
6.793466
 30
0.0
  0
SPLINE
  5
127
100
AcDbEntity
  8
Warstwa_1
 62
7
100
AcDbSpline
 70
8
 71
3
 72
8
 73
4
 74
0
 40
0
 40
0
 40
0
 40
0
 40
1
 40
1
 40
1
 40
1
 10
9.512361
 20
6.793466
 30
0.0
 10
9.285065
 20
6.584456
 30
0.0
 10
9.096183
 20
6.332304
 30
0.0
 10
8.973709
 20
6.034967
 30
0.0
  0
SPLINE
  5
128
100
AcDbEntity
  8
Warstwa_1
 62
7
100
AcDbSpline
 70
8
 71
3
 72
8
 73
4
 74
0
 40
0
 40
0
 40
0
 40
0
 40
1
 40
1
 40
1
 40
1
 10
8.973709
 20
6.034967
 30
0.0
 10
8.851237
 20
5.737664
 30
0.0
 10
8.795589
 20
5.396476
 30
0.0
 10
8.767745
 20
5.117495
 30
0.0
  0
SPLINE
  5
129
100
AcDbEntity
  8
Warstwa_1
 62
7
100
AcDbSpline
 70
8
 71
3
 72
8
 73
4
 74
0
 40
0
 40
0
 40
0
 40
0
 40
1
 40
1
 40
1
 40
1
 10
8.767745
 20
5.117495
 30
0.0
 10
8.739907
 20
4.838510
 30
0.0
 10
8.739879
 20
4.621340
 30
0.0
 10
8.739879
 20
4.404980
 30
0.0
  0
LWPOLYLINE
  5
12a
100
AcDbEntity
  8
Warstwa_1
 62
7
100
AcDbPolyline
 90
2
 70
0
 10
3.989862
 20
7.783036
 30
0.0
 10
3.989865
 20
7.783203
 30
0.0
  0
SPLINE
  5
12b
100
AcDbEntity
  8
Warstwa_1
 62
7
100
AcDbSpline
 70
8
 71
3
 72
8
 73
4
 74
0
 40
0
 40
0
 40
0
 40
0
 40
1
 40
1
 40
1
 40
1
 10
8.760107
 20
4.404980
 30
0.0
 10
8.760107
 20
4.621340
 30
0.0
 10
8.760266
 20
4.837260
 30
0.0
 10
8.787971
 20
5.114986
 30
0.0
  0
SPLINE
  5
12c
100
AcDbEntity
  8
Warstwa_1
 62
7
100
AcDbSpline
 70
8
 71
3
 72
8
 73
4
 74
0
 40
0
 40
0
 40
0
 40
0
 40
1
 40
1
 40
1
 40
1
 10
8.787971
 20
5.114986
 30
0.0
 10
8.815687
 20
5.392646
 30
0.0
 10
8.871146
 20
5.731887
 30
0.0
 10
8.992136
 20
6.025655
 30
0.0
  0
SPLINE
  5
12d
100
AcDbEntity
  8
Warstwa_1
 62
7
100
AcDbSpline
 70
8
 71
3
 72
8
 73
4
 74
0
 40
0
 40
0
 40
0
 40
0
 40
1
 40
1
 40
1
 40
1
 10
8.992136
 20
6.025655
 30
0.0
 10
9.113127
 20
6.319371
 30
0.0
 10
9.299868
 20
6.568891
 30
0.0
 10
9.525244
 20
6.776134
 30
0.0
  0
SPLINE
  5
12e
100
AcDbEntity
  8
Warstwa_1
 62
7
100
AcDbSpline
 70
8
 71
3
 72
8
 73
4
 74
0
 40
0
 40
0
 40
0
 40
0
 40
1
 40
1
 40
1
 40
1
 10
9.525244
 20
6.776134
 30
0.0
 10
9.750620
 20
6.983372
 30
0.0
 10
10.014739
 20
7.148278
 30
0.0
 10
10.224921
 20
7.251477
 30
0.0
  0
SPLINE
  5
12f
100
AcDbEntity
  8
Warstwa_1
 62
7
100
AcDbSpline
 70
8
 71
3
 72
8
 73
4
 74
0
 40
0
 40
0
 40
0
 40
0
 40
1
 40
1
 40
1
 40
1
 10
10.224921
 20
7.251477
 30
0.0
 10
10.435104
 20
7.354696
 30
0.0
 10
10.590862
 20
7.396049
 30
0.0
 10
10.776302
 20
7.417815
 30
0.0
  0
SPLINE
  5
130
100
AcDbEntity
  8
Warstwa_1
 62
7
100
AcDbSpline
 70
8
 71
3
 72
8
 73
4
 74
0
 40
0
 40
0
 40
0
 40
0
 40
1
 40
1
 40
1
 40
1
 10
10.776302
 20
7.417815
 30
0.0
 10
10.961746
 20
7.439545
 30
0.0
 10
11.176740
 20
7.441515
 30
0.0
 10
11.391947
 20
7.443505
 30
0.0
  0
LWPOLYLINE
  5
131
100
AcDbEntity
  8
Warstwa_1
 62
7
100
AcDbPolyline
 90
2
 70
0
 10
8.739879
 20
4.404980
 30
0.0
 10
8.760107
 20
4.404980
 30
0.0
  0
SPLINE
  5
132
100
AcDbEntity
  8
Warstwa_1
 62
7
100
AcDbSpline
 70
8
 71
3
 72
8
 73
4
 74
0
 40
0
 40
0
 40
0
 40
0
 40
1
 40
1
 40
1
 40
1
 10
7.709381
 20
1.780860
 30
0.0
 10
7.540381
 20
1.611260
 30
0.0
 10
7.371527
 20
1.441660
 30
0.0
 10
7.246434
 20
1.327040
 30
0.0
  0
SPLINE
  5
133
100
AcDbEntity
  8
Warstwa_1
 62
7
100
AcDbSpline
 70
8
 71
3
 72
8
 73
4
 74
0
 40
0
 40
0
 40
0
 40
0
 40
1
 40
1
 40
1
 40
1
 10
7.246434
 20
1.327040
 30
0.0
 10
7.121340
 20
1.212390
 30
0.0
 10
7.040108
 20
1.152440
 30
0.0
 10
6.947212
 20
1.087230
 30
0.0
  0
SPLINE
  5
134
100
AcDbEntity
  8
Warstwa_1
 62
7
100
AcDbSpline
 70
8
 71
3
 72
8
 73
4
 74
0
 40
0
 40
0
 40
0
 40
0
 40
1
 40
1
 40
1
 40
1
 10
6.947212
 20
1.087230
 30
0.0
 10
6.854316
 20
1.022430
 30
0.0
 10
6.750371
 20
0.951900
 30
0.0
 10
6.622917
 20
0.877550
 30
0.0
  0
SPLINE
  5
135
100
AcDbEntity
  8
Warstwa_1
 62
7
100
AcDbSpline
 70
8
 71
3
 72
8
 73
4
 74
0
 40
0
 40
0
 40
0
 40
0
 40
1
 40
1
 40
1
 40
1
 10
6.622917
 20
0.877550
 30
0.0
 10
6.495462
 20
0.803650
 30
0.0
 10
6.344243
 20
0.724320
 30
0.0
 10
6.214434
 20
0.664220
 30
0.0
  0
SPLINE
  5
136
100
AcDbEntity
  8
Warstwa_1
 62
7
100
AcDbSpline
 70
8
 71
3
 72
8
 73
4
 74
0
 40
0
 40
0
 40
0
 40
0
 40
1
 40
1
 40
1
 40
1
 10
6.214434
 20
0.664220
 30
0.0
 10
6.084625
 20
0.603520
 30
0.0
 10
5.976242
 20
0.562630
 30
0.0
 10
5.860084
 20
0.523510
 30
0.0
  0
SPLINE
  5
137
100
AcDbEntity
  8
Warstwa_1
 62
7
100
AcDbSpline
 70
8
 71
3
 72
8
 73
4
 74
0
 40
0
 40
0
 40
0
 40
0
 40
1
 40
1
 40
1
 40
1
 10
5.860084
 20
0.523510
 30
0.0
 10
5.743926
 20
0.485210
 30
0.0
 10
5.620145
 20
0.449110
 30
0.0
 10
5.504405
 20
0.418600
 30
0.0
  0
SPLINE
  5
138
100
AcDbEntity
  8
Warstwa_1
 62
7
100
AcDbSpline
 70
8
 71
3
 72
8
 73
4
 74
0
 40
0
 40
0
 40
0
 40
0
 40
1
 40
1
 40
1
 40
1
 10
5.504405
 20
0.418600
 30
0.0
 10
5.388665
 20
0.389300
 30
0.0
 10
5.281009
 20
0.364900
 30
0.0
 10
5.177785
 20
0.348100
 30
0.0
  0
SPLINE
  5
139
100
AcDbEntity
  8
Warstwa_1
 62
7
100
AcDbSpline
 70
8
 71
3
 72
8
 73
4
 74
0
 40
0
 40
0
 40
0
 40
0
 40
1
 40
1
 40
1
 40
1
 10
5.177785
 20
0.348100
 30
0.0
 10
5.074561
 20
0.331200
 30
0.0
 10
4.976430
 20
0.321900
 30
0.0
 10
4.166542
 20
0.318200
 30
0.0
  0
SPLINE
  5
13a
100
AcDbEntity
  8
Warstwa_1
 62
7
100
AcDbSpline
 70
8
 71
3
 72
8
 73
4
 74
0
 40
0
 40
0
 40
0
 40
0
 40
1
 40
1
 40
1
 40
1
 10
4.166542
 20
0.318200
 30
0.0
 10
3.356654
 20
0.314200
 30
0.0
 10
1.836039
 20
0.314200
 30
0.0
 10
0.315515
 20
0.314200
 30
0.0
  0
LWPOLYLINE
  5
13b
100
AcDbEntity
  8
Warstwa_1
 62
7
100
AcDbPolyline
 90
2
 70
0
 10
11.391947
 20
7.443505
 30
0.0
 10
11.391801
 20
7.466196
 30
0.0
  0
SPLINE
  5
13c
100
AcDbEntity
  8
Warstwa_1
 62
7
100
AcDbSpline
 70
8
 71
3
 72
8
 73
4
 74
0
 40
0
 40
0
 40
0
 40
0
 40
1
 40
1
 40
1
 40
1
 10
0.315515
 20
0.290700
 30
0.0
 10
1.836039
 20
0.290700
 30
0.0
 10
3.356489
 20
0.290620
 30
0.0
 10
4.166542
 20
0.294700
 30
0.0
  0
SPLINE
  5
13d
100
AcDbEntity
  8
Warstwa_1
 62
7
100
AcDbSpline
 70
8
 71
3
 72
8
 73
4
 74
0
 40
0
 40
0
 40
0
 40
0
 40
1
 40
1
 40
1
 40
1
 10
4.166542
 20
0.294700
 30
0.0
 10
4.976595
 20
0.298700
 30
0.0
 10
5.077320
 20
0.309900
 30
0.0
 10
5.181438
 20
0.326200
 30
0.0
  0
SPLINE
  5
13e
100
AcDbEntity
  8
Warstwa_1
 62
7
100
AcDbSpline
 70
8
 71
3
 72
8
 73
4
 74
0
 40
0
 40
0
 40
0
 40
0
 40
1
 40
1
 40
1
 40
1
 10
5.181438
 20
0.326200
 30
0.0
 10
5.285557
 20
0.343200
 30
0.0
 10
5.393831
 20
0.366600
 30
0.0
 10
5.510051
 20
0.397000
 30
0.0
  0
SPLINE
  5
13f
100
AcDbEntity
  8
Warstwa_1
 62
7
100
AcDbSpline
 70
8
 71
3
 72
8
 73
4
 74
0
 40
0
 40
0
 40
0
 40
0
 40
1
 40
1
 40
1
 40
1
 10
5.510051
 20
0.397000
 30
0.0
 10
5.626271
 20
0.426400
 30
0.0
 10
5.750476
 20
0.462400
 30
0.0
 10
5.867224
 20
0.502290
 30
0.0
  0
SPLINE
  5
140
100
AcDbEntity
  8
Warstwa_1
 62
7
100
AcDbSpline
 70
8
 71
3
 72
8
 73
4
 74
0
 40
0
 40
0
 40
0
 40
0
 40
1
 40
1
 40
1
 40
1
 10
5.867224
 20
0.502290
 30
0.0
 10
5.983972
 20
0.540790
 30
0.0
 10
6.093346
 20
0.583490
 30
0.0
 10
6.223899
 20
0.643940
 30
0.0
  0
SPLINE
  5
141
100
AcDbEntity
  8
Warstwa_1
 62
7
100
AcDbSpline
 70
8
 71
3
 72
8
 73
4
 74
0
 40
0
 40
0
 40
0
 40
0
 40
1
 40
1
 40
1
 40
1
 10
6.223899
 20
0.643940
 30
0.0
 10
6.354452
 20
0.704940
 30
0.0
 10
6.506034
 20
0.783470
 30
0.0
 10
6.634208
 20
0.858260
 30
0.0
  0
SPLINE
  5
142
100
AcDbEntity
  8
Warstwa_1
 62
7
100
AcDbSpline
 70
8
 71
3
 72
8
 73
4
 74
0
 40
0
 40
0
 40
0
 40
0
 40
1
 40
1
 40
1
 40
1
 10
6.634208
 20
0.858260
 30
0.0
 10
6.762383
 20
0.932560
 30
0.0
 10
6.866852
 20
1.003560
 30
0.0
 10
6.959998
 20
1.068920
 30
0.0
  0
SPLINE
  5
143
100
AcDbEntity
  8
Warstwa_1
 62
7
100
AcDbSpline
 70
8
 71
3
 72
8
 73
4
 74
0
 40
0
 40
0
 40
0
 40
0
 40
1
 40
1
 40
1
 40
1
 10
6.959998
 20
1.068920
 30
0.0
 10
7.053145
 20
1.133820
 30
0.0
 10
7.135745
 20
1.195330
 30
0.0
 10
7.261544
 20
1.310640
 30
0.0
  0
SPLINE
  5
144
100
AcDbEntity
  8
Warstwa_1
 62
7
100
AcDbSpline
 70
8
 71
3
 72
8
 73
4
 74
0
 40
0
 40
0
 40
0
 40
0
 40
1
 40
1
 40
1
 40
1
 10
7.261544
 20
1.310640
 30
0.0
 10
7.387344
 20
1.425850
 30
0.0
 10
7.556322
 20
1.595380
 30
0.0
 10
7.725321
 20
1.765050
 30
0.0
  0
LWPOLYLINE
  5
145
100
AcDbEntity
  8
Warstwa_1
 62
7
100
AcDbPolyline
 90
2
 70
0
 10
0.315515
 20
0.314200
 30
0.0
 10
0.315515
 20
0.290700
 30
0.0
  0
SPLINE
  5
146
100
AcDbEntity
  8
Warstwa_1
 62
7
100
AcDbSpline
 70
8
 71
3
 72
8
 73
4
 74
0
 40
0
 40
0
 40
0
 40
0
 40
1
 40
1
 40
1
 40
1
 10
10.287571
 20
8.616348
 30
0.0
 10
10.199661
 20
8.607048
 30
0.0
 10
10.108502
 20
8.597148
 30
0.0
 10
9.994768
 20
8.527168
 30
0.0
  0
SPLINE
  5
147
100
AcDbEntity
  8
Warstwa_1
 62
7
100
AcDbSpline
 70
8
 71
3
 72
8
 73
4
 74
0
 40
0
 40
0
 40
0
 40
0
 40
1
 40
1
 40
1
 40
1
 10
9.994768
 20
8.527168
 30
0.0
 10
9.881033
 20
8.457188
 30
0.0
 10
9.744665
 20
8.328661
 30
0.0
 10
9.674221
 20
8.201767
 30
0.0
  0
SPLINE
  5
148
100
AcDbEntity
  8
Warstwa_1
 62
7
100
AcDbSpline
 70
8
 71
3
 72
8
 73
4
 74
0
 40
0
 40
0
 40
0
 40
0
 40
1
 40
1
 40
1
 40
1
 10
9.674221
 20
8.201767
 30
0.0
 10
9.603792
 20
8.074877
 30
0.0
 10
9.601249
 20
7.951748
 30
0.0
 10
9.598587
 20
7.830534
 30
0.0
  0
LWPOLYLINE
  5
149
100
AcDbEntity
  8
Warstwa_1
 62
7
100
AcDbPolyline
 90
2
 70
0
 10
7.725321
 20
1.765050
 30
0.0
 10
7.709381
 20
1.780860
 30
0.0
  0
SPLINE
  5
14a
100
AcDbEntity
  8
Warstwa_1
 62
7
100
AcDbSpline
 70
8
 71
3
 72
8
 73
4
 74
0
 40
0
 40
0
 40
0
 40
0
 40
1
 40
1
 40
1
 40
1
 10
9.620899
 20
7.830097
 30
0.0
 10
9.623399
 20
7.951310
 30
0.0
 10
9.626609
 20
8.070653
 30
0.0
 10
9.694408
 20
8.193234
 30
0.0
  0
SPLINE
  5
14b
100
AcDbEntity
  8
Warstwa_1
 62
7
100
AcDbSpline
 70
8
 71
3
 72
8
 73
4
 74
0
 40
0
 40
0
 40
0
 40
0
 40
1
 40
1
 40
1
 40
1
 10
9.694408
 20
8.193234
 30
0.0
 10
9.762479
 20
8.315816
 30
0.0
 10
9.897684
 20
8.443636
 30
0.0
 10
10.007687
 20
8.511268
 30
0.0
  0
SPLINE
  5
14c
100
AcDbEntity
  8
Warstwa_1
 62
7
100
AcDbSpline
 70
8
 71
3
 72
8
 73
4
 74
0
 40
0
 40
0
 40
0
 40
0
 40
1
 40
1
 40
1
 40
1
 10
10.007687
 20
8.511268
 30
0.0
 10
10.117691
 20
8.578878
 30
0.0
 10
10.202381
 20
8.587568
 30
0.0
 10
10.290248
 20
8.596828
 30
0.0
  0
LWPOLYLINE
  5
14d
100
AcDbEntity
  8
Warstwa_1
 62
7
100
AcDbPolyline
 90
2
 70
0
 10
9.598587
 20
7.830534
 30
0.0
 10
9.620899
 20
7.830097
 30
0.0
  0
SPLINE
  5
14e
100
AcDbEntity
  8
Warstwa_1
 62
7
100
AcDbSpline
 70
8
 71
3
 72
8
 73
4
 74
0
 40
0
 40
0
 40
0
 40
0
 40
1
 40
1
 40
1
 40
1
 10
11.653771
 20
8.711432
 30
0.0
 10
11.519899
 20
8.693402
 30
0.0
 10
11.384984
 20
8.675402
 30
0.0
 10
11.261241
 20
8.623092
 30
0.0
  0
SPLINE
  5
14f
100
AcDbEntity
  8
Warstwa_1
 62
7
100
AcDbSpline
 70
8
 71
3
 72
8
 73
4
 74
0
 40
0
 40
0
 40
0
 40
0
 40
1
 40
1
 40
1
 40
1
 10
11.261241
 20
8.623092
 30
0.0
 10
11.137497
 20
8.570772
 30
0.0
 10
11.026825
 20
8.485004
 30
0.0
 10
10.952233
 20
8.407989
 30
0.0
  0
SPLINE
  5
150
100
AcDbEntity
  8
Warstwa_1
 62
7
100
AcDbSpline
 70
8
 71
3
 72
8
 73
4
 74
0
 40
0
 40
0
 40
0
 40
0
 40
1
 40
1
 40
1
 40
1
 10
10.952233
 20
8.407989
 30
0.0
 10
10.877613
 20
8.330909
 30
0.0
 10
10.839447
 20
8.262606
 30
0.0
 10
10.801961
 20
8.195598
 30
0.0
  0
LWPOLYLINE
  5
151
100
AcDbEntity
  8
Warstwa_1
 62
7
100
AcDbPolyline
 90
2
 70
0
 10
10.290248
 20
8.596828
 30
0.0
 10
10.287571
 20
8.616348
 30
0.0
  0
SPLINE
  5
152
100
AcDbEntity
  8
Warstwa_1
 62
7
100
AcDbSpline
 70
8
 71
3
 72
8
 73
4
 74
0
 40
0
 40
0
 40
0
 40
0
 40
1
 40
1
 40
1
 40
1
 10
10.821731
 20
8.185478
 30
0.0
 10
10.859271
 20
8.252398
 30
0.0
 10
10.895971
 20
8.318175
 30
0.0
 10
10.968682
 20
8.393229
 30
0.0
  0
SPLINE
  5
153
100
AcDbEntity
  8
Warstwa_1
 62
7
100
AcDbSpline
 70
8
 71
3
 72
8
 73
4
 74
0
 40
0
 40
0
 40
0
 40
0
 40
1
 40
1
 40
1
 40
1
 10
10.968682
 20
8.393229
 30
0.0
 10
11.041412
 20
8.468209
 30
0.0
 10
11.150429
 20
8.552634
 30
0.0
 10
11.270383
 20
8.603381
 30
0.0
  0
SPLINE
  5
154
100
AcDbEntity
  8
Warstwa_1
 62
7
100
AcDbSpline
 70
8
 71
3
 72
8
 73
4
 74
0
 40
0
 40
0
 40
0
 40
0
 40
1
 40
1
 40
1
 40
1
 10
11.270383
 20
8.603381
 30
0.0
 10
11.390340
 20
8.654061
 30
0.0
 10
11.523065
 20
8.672051
 30
0.0
 10
11.656935
 20
8.690081
 30
0.0
  0
LWPOLYLINE
  5
155
100
AcDbEntity
  8
Warstwa_1
 62
7
100
AcDbPolyline
 90
2
 70
0
 10
10.801961
 20
8.195598
 30
0.0
 10
10.821731
 20
8.185478
 30
0.0
  0
LWPOLYLINE
  5
156
100
AcDbEntity
  8
Warstwa_1
 62
7
100
AcDbPolyline
 90
2
 70
0
 10
11.656935
 20
8.690081
 30
0.0
 10
11.653771
 20
8.711432
 30
0.0
  0
ENDSEC
  0
SECTION
  2
OBJECTS
  0
DICTIONARY
  5
C
330
0
100
AcDbDictionary
  3
ACAD_GROUP
350
D
  3
ACAD_MLINESTYLE
350
17
  0
DICTIONARY
  5
D
330
C
100
AcDbDictionary
  0
DICTIONARY
  5
1A
330
C
100
AcDbDictionary
  0
DICTIONARY
  5
17
330
C
100
AcDbDictionary
  3
STANDARD
350
18
  0
DICTIONARY
  5
19
330
C
100
AcDbDictionary
  0
ENDSEC
  0
EOF
