  0
SECTION
  2
HEADER
  9
$ACADVER
  1
AC1014
  9
$HANDSEED
  5
FFFF
  9
$MEASUREMENT
 70
     1
  0
ENDSEC
  0
SECTION
  2
TABLES
  0
TABLE
  2
VPORT
  5
8
330
0
100
AcDbSymbolTable
 70
     4
  0
VPORT
  5
2E
330
8
100
AcDbSymbolTableRecord
100
AcDbViewportTableRecord
  2
*ACTIVE
 70
     0
 10
0.0
 20
0.0
 11
1.0
 21
1.0
 12
210.0
 22
148.5
 13
0.0
 23
0.0
 14
10.0
 24
10.0
 15
10.0
 25
10.0
 16
0.0
 26
0.0
 36
1.0
 17
0.0
 27
0.0
 37
0.0
 40
341.0
 41
1.24
 42
50.0
 43
0.0
 44
0.0
 50
0.0
 51
0.0
 71
     0
 72
   100
 73
     1
 74
     3
 75
     0
 76
     0
 77
     0
 78
     0
  0
ENDTAB
  0
TABLE
  2
LTYPE
  5
5
330
0
100
AcDbSymbolTable
 70
     1
  0
LTYPE
  5
14
330
5
100
AcDbSymbolTableRecord
100
AcDbLinetypeTableRecord
  2
BYBLOCK
 70
     0
  3

 72
    65
 73
     0
 40
0.0
  0
LTYPE
  5
15
330
5
100
AcDbSymbolTableRecord
100
AcDbLinetypeTableRecord
  2
BYLAYER
 70
     0
  3

 72
    65
 73
     0
 40
0.0
  0
LTYPE
  5
16
330
5
100
AcDbSymbolTableRecord
100
AcDbLinetypeTableRecord
  2
CONTINUOUS
 70
     0
  3
Solid line
 72
    65
 73
     0
 40
0.0
  0
ENDTAB
  0
TABLE
  2
LAYER
  5
2
100
AcDbSymbolTable
 70
2
  0
LAYER
  5
50
100
AcDbSymbolTableRecord
100
AcDbLayerTableRecord
  2
0
 70
0
  6
CONTINUOUS
  0
LAYER
  5
51
100
AcDbSymbolTableRecord
100
AcDbLayerTableRecord
  2
Warstwa_1
 70
0
  6
CONTINUOUS
  0
ENDTAB
  0
TABLE
  2
STYLE
  5
3
330
0
100
AcDbSymbolTable
 70
     1
  0
STYLE
  5
11
330
3
100
AcDbSymbolTableRecord
100
AcDbTextStyleTableRecord
  2
STANDARD
 70
     0
 40
0.0
 41
1.0
 50
0.0
 71
     0
 42
2.5
  3
txt
  4

  0
ENDTAB
  0
TABLE
  2
VIEW
  5
6
330
0
100
AcDbSymbolTable
 70
     0
  0
ENDTAB
  0
TABLE
  2
UCS
  5
7
330
0
100
AcDbSymbolTable
 70
     0
  0
ENDTAB
  0
TABLE
  2
APPID
  5
9
330
0
100
AcDbSymbolTable
 70
     2
  0
APPID
  5
12
330
9
100
AcDbSymbolTableRecord
100
AcDbRegAppTableRecord
  2
ACAD
 70
     0
  0
ENDTAB
  0
TABLE
  2
DIMSTYLE
  5
A
330
0
100
AcDbSymbolTable
 70
     1
  0
DIMSTYLE
105
27
330
A
100
AcDbSymbolTableRecord
100
AcDbDimStyleTableRecord
  2
ISO-25
 70
     0
  3

  4

  5

  6

  7

 40
1.0
 41
2.5
 42
0.625
 43
3.75
 44
1.25
 45
0.0
 46
0.0
 47
0.0
 48
0.0
140
2.5
141
2.5
142
0.0
143
0.03937007874016
144
1.0
145
0.0
146
1.0
147
0.625
 71
     0
 72
     0
 73
     0
 74
     0
 75
     0
 76
     0
 77
     1
 78
     8
170
     0
171
     3
172
     1
173
     0
174
     0
175
     0
176
     0
177
     0
178
     0
270
     2
271
     2
272
     2
273
     2
274
     3
340
11
275
     0
280
     0
281
     0
282
     0
283
     0
284
     8
285
     0
286
     0
287
     3
288
     0
  0
ENDTAB
  0
TABLE
  2
BLOCK_RECORD
  5
1
330
0
100
AcDbSymbolTable
 70
     1
  0
BLOCK_RECORD
  5
1F
330
1
100
AcDbSymbolTableRecord
100
AcDbBlockTableRecord
  2
*MODEL_SPACE
  0
BLOCK_RECORD
  5
1B
330
1
100
AcDbSymbolTableRecord
100
AcDbBlockTableRecord
  2
*PAPER_SPACE
  0
ENDTAB
  0
ENDSEC
  0
SECTION
  2
BLOCKS
  0
BLOCK
  5
20
330
1F
100
AcDbEntity
  8
0
100
AcDbBlockBegin
  2
*MODEL_SPACE
 70
     0
 10
0.0
 20
0.0
 30
0.0
  3
*MODEL_SPACE
  1

  0
ENDBLK
  5
21
330
1F
100
AcDbEntity
  8
0
100
AcDbBlockEnd
  0
BLOCK
  5
1C
330
1B
100
AcDbEntity
 67
     1
  8
0
100
AcDbBlockBegin
  2
*PAPER_SPACE
  1

  0
ENDBLK
  5
1D
330
1B
100
AcDbEntity
 67
     1
  8
0
100
AcDbBlockEnd
  0
ENDSEC
  0
SECTION
  2
ENTITIES
  0
SPLINE
  5
100
100
AcDbEntity
  8
Warstwa_1
 62
7
100
AcDbSpline
 70
8
 71
3
 72
8
 73
4
 74
0
 40
0
 40
0
 40
0
 40
0
 40
1
 40
1
 40
1
 40
1
 10
149.389106
 20
268.798609
 30
0.0
 10
207.884750
 20
271.162878
 30
0.0
 10
261.084257
 20
225.700435
 30
0.0
 10
263.068364
 20
166.236474
 30
0.0
  0
SPLINE
  5
101
100
AcDbEntity
  8
Warstwa_1
 62
7
100
AcDbSpline
 70
8
 71
3
 72
8
 73
4
 74
0
 40
0
 40
0
 40
0
 40
0
 40
1
 40
1
 40
1
 40
1
 10
263.068364
 20
166.236474
 30
0.0
 10
264.814744
 20
113.897208
 30
0.0
 10
223.932368
 20
66.351526
 30
0.0
 10
170.621266
 20
65.041835
 30
0.0
  0
SPLINE
  5
102
100
AcDbEntity
  8
Warstwa_1
 62
7
100
AcDbSpline
 70
8
 71
3
 72
8
 73
4
 74
0
 40
0
 40
0
 40
0
 40
0
 40
1
 40
1
 40
1
 40
1
 10
170.621266
 20
65.041835
 30
0.0
 10
124.438907
 20
63.907296
 30
0.0
 10
82.526284
 20
100.210235
 30
0.0
 10
81.900179
 20
147.368364
 30
0.0
  0
SPLINE
  5
103
100
AcDbEntity
  8
Warstwa_1
 62
7
100
AcDbSpline
 70
8
 71
3
 72
8
 73
4
 74
0
 40
0
 40
0
 40
0
 40
0
 40
1
 40
1
 40
1
 40
1
 10
81.900179
 20
147.368364
 30
0.0
 10
81.368785
 20
187.393107
 30
0.0
 10
113.112445
 20
223.681544
 30
0.0
 10
154.117208
 20
223.610372
 30
0.0
  0
SPLINE
  5
104
100
AcDbEntity
  8
Warstwa_1
 62
7
100
AcDbSpline
 70
8
 71
3
 72
8
 73
4
 74
0
 40
0
 40
0
 40
0
 40
0
 40
1
 40
1
 40
1
 40
1
 10
154.117208
 20
223.610372
 30
0.0
 10
187.983244
 20
223.551581
 30
0.0
 10
218.670333
 20
196.364137
 30
0.0
 10
217.880124
 20
161.513926
 30
0.0
  0
SPLINE
  5
105
100
AcDbEntity
  8
Warstwa_1
 62
7
100
AcDbSpline
 70
8
 71
3
 72
8
 73
4
 74
0
 40
0
 40
0
 40
0
 40
0
 40
1
 40
1
 40
1
 40
1
 10
217.880124
 20
161.513926
 30
0.0
 10
217.251918
 20
133.808326
 30
0.0
 10
194.585485
 20
108.683246
 30
0.0
 10
165.893168
 20
110.230084
 30
0.0
  0
SPLINE
  5
106
100
AcDbEntity
  8
Warstwa_1
 62
7
100
AcDbSpline
 70
8
 71
3
 72
8
 73
4
 74
0
 40
0
 40
0
 40
0
 40
0
 40
1
 40
1
 40
1
 40
1
 10
165.893168
 20
110.230084
 30
0.0
 10
144.351468
 20
111.391410
 30
0.0
 10
124.717209
 20
129.583797
 30
0.0
 10
127.093955
 20
152.107551
 30
0.0
  0
SPLINE
  5
107
100
AcDbEntity
  8
Warstwa_1
 62
7
100
AcDbSpline
 70
8
 71
3
 72
8
 73
4
 74
0
 40
0
 40
0
 40
0
 40
0
 40
1
 40
1
 40
1
 40
1
 10
127.093955
 20
152.107551
 30
0.0
 10
127.904794
 20
159.791652
 30
0.0
 10
131.763716
 20
167.202748
 30
0.0
 10
137.463664
 20
172.282235
 30
0.0
  0
SPLINE
  5
108
100
AcDbEntity
  8
Warstwa_1
 62
7
100
AcDbSpline
 70
8
 71
3
 72
8
 73
4
 74
0
 40
0
 40
0
 40
0
 40
0
 40
1
 40
1
 40
1
 40
1
 10
137.463664
 20
172.282235
 30
0.0
 10
143.163612
 20
177.361750
 30
0.0
 10
150.716602
 20
180.105659
 30
0.0
 10
158.872989
 20
178.416607
 30
0.0
  0
SPLINE
  5
109
100
AcDbEntity
  8
Warstwa_1
 62
7
100
AcDbSpline
 70
8
 71
3
 72
8
 73
4
 74
0
 40
0
 40
0
 40
0
 40
0
 40
1
 40
1
 40
1
 40
1
 10
158.872989
 20
178.416607
 30
0.0
 10
163.451058
 20
177.468559
 30
0.0
 10
168.109849
 20
174.519252
 30
0.0
 10
171.030963
 20
170.565970
 30
0.0
  0
SPLINE
  5
10a
100
AcDbEntity
  8
Warstwa_1
 62
7
100
AcDbSpline
 70
8
 71
3
 72
8
 73
4
 74
0
 40
0
 40
0
 40
0
 40
0
 40
1
 40
1
 40
1
 40
1
 10
171.030963
 20
170.565970
 30
0.0
 10
173.952074
 20
166.612660
 30
0.0
 10
175.124690
 20
161.626915
 30
0.0
 10
172.669742
 20
156.708295
 30
0.0
  0
SPLINE
  5
10b
100
AcDbEntity
  8
Warstwa_1
 62
7
100
AcDbSpline
 70
8
 71
3
 72
8
 73
4
 74
0
 40
0
 40
0
 40
0
 40
0
 40
1
 40
1
 40
1
 40
1
 10
172.669742
 20
156.708295
 30
0.0
 10
171.731863
 20
154.829237
 30
0.0
 10
169.059725
 20
152.838578
 30
0.0
 10
166.485563
 20
152.124163
 30
0.0
  0
SPLINE
  5
10c
100
AcDbEntity
  8
Warstwa_1
 62
7
100
AcDbSpline
 70
8
 71
3
 72
8
 73
4
 74
0
 40
0
 40
0
 40
0
 40
0
 40
1
 40
1
 40
1
 40
1
 10
166.485563
 20
152.124163
 30
0.0
 10
165.198484
 20
151.766940
 30
0.0
 10
163.928126
 20
151.730147
 30
0.0
 10
162.909037
 20
152.251438
 30
0.0
  0
SPLINE
  5
10d
100
AcDbEntity
  8
Warstwa_1
 62
7
100
AcDbSpline
 70
8
 71
3
 72
8
 73
4
 74
0
 40
0
 40
0
 40
0
 40
0
 40
1
 40
1
 40
1
 40
1
 10
162.909037
 20
152.251438
 30
0.0
 10
161.889951
 20
152.772786
 30
0.0
 10
161.164488
 20
153.855621
 30
0.0
 10
160.982365
 20
155.600969
 30
0.0
  0
SPLINE
  5
10e
100
AcDbEntity
  8
Warstwa_1
 62
7
100
AcDbSpline
 70
8
 71
3
 72
8
 73
4
 74
0
 40
0
 40
0
 40
0
 40
0
 40
1
 40
1
 40
1
 40
1
 10
161.392059
 20
155.645303
 30
0.0
 10
161.564547
 20
153.992166
 30
0.0
 10
162.210569
 20
153.076037
 30
0.0
 10
163.097274
 20
152.622437
 30
0.0
  0
SPLINE
  5
10f
100
AcDbEntity
  8
Warstwa_1
 62
7
100
AcDbSpline
 70
8
 71
3
 72
8
 73
4
 74
0
 40
0
 40
0
 40
0
 40
0
 40
1
 40
1
 40
1
 40
1
 10
163.097274
 20
152.622437
 30
0.0
 10
163.983983
 20
152.168808
 30
0.0
 10
165.154963
 20
152.182670
 30
0.0
 10
166.380372
 20
152.522657
 30
0.0
  0
SPLINE
  5
110
100
AcDbEntity
  8
Warstwa_1
 62
7
100
AcDbSpline
 70
8
 71
3
 72
8
 73
4
 74
0
 40
0
 40
0
 40
0
 40
0
 40
1
 40
1
 40
1
 40
1
 10
166.380372
 20
152.522657
 30
0.0
 10
168.831187
 20
153.202859
 30
0.0
 10
171.451763
 20
155.193800
 30
0.0
 10
172.298801
 20
156.890903
 30
0.0
  0
SPLINE
  5
111
100
AcDbEntity
  8
Warstwa_1
 62
7
100
AcDbSpline
 70
8
 71
3
 72
8
 73
4
 74
0
 40
0
 40
0
 40
0
 40
0
 40
1
 40
1
 40
1
 40
1
 10
172.298801
 20
156.890903
 30
0.0
 10
174.680864
 20
161.663454
 30
0.0
 10
173.553415
 20
166.453353
 30
0.0
 10
170.698776
 20
170.316692
 30
0.0
  0
SPLINE
  5
112
100
AcDbEntity
  8
Warstwa_1
 62
7
100
AcDbSpline
 70
8
 71
3
 72
8
 73
4
 74
0
 40
0
 40
0
 40
0
 40
0
 40
1
 40
1
 40
1
 40
1
 10
170.698776
 20
170.316692
 30
0.0
 10
167.844138
 20
174.180059
 30
0.0
 10
163.255277
 20
177.087640
 30
0.0
 10
158.789942
 20
178.012329
 30
0.0
  0
SPLINE
  5
113
100
AcDbEntity
  8
Warstwa_1
 62
7
100
AcDbSpline
 70
8
 71
3
 72
8
 73
4
 74
0
 40
0
 40
0
 40
0
 40
0
 40
1
 40
1
 40
1
 40
1
 10
158.789942
 20
178.012329
 30
0.0
 10
150.769803
 20
179.673148
 30
0.0
 10
143.360580
 20
176.985961
 30
0.0
 10
137.740484
 20
171.977624
 30
0.0
  0
SPLINE
  5
114
100
AcDbEntity
  8
Warstwa_1
 62
7
100
AcDbSpline
 70
8
 71
3
 72
8
 73
4
 74
0
 40
0
 40
0
 40
0
 40
0
 40
1
 40
1
 40
1
 40
1
 10
137.740484
 20
171.977624
 30
0.0
 10
132.120388
 20
166.969287
 30
0.0
 10
128.303036
 20
159.638695
 30
0.0
 10
127.503649
 20
152.063133
 30
0.0
  0
SPLINE
  5
115
100
AcDbEntity
  8
Warstwa_1
 62
7
100
AcDbSpline
 70
8
 71
3
 72
8
 73
4
 74
0
 40
0
 40
0
 40
0
 40
0
 40
1
 40
1
 40
1
 40
1
 10
127.503649
 20
152.063133
 30
0.0
 10
125.154244
 20
129.798465
 30
0.0
 10
144.591457
 20
111.789252
 30
0.0
 10
165.915312
 20
110.639662
 30
0.0
  0
SPLINE
  5
116
100
AcDbEntity
  8
Warstwa_1
 62
7
100
AcDbSpline
 70
8
 71
3
 72
8
 73
4
 74
0
 40
0
 40
0
 40
0
 40
0
 40
1
 40
1
 40
1
 40
1
 10
165.915312
 20
110.639662
 30
0.0
 10
194.356035
 20
109.106374
 30
0.0
 10
216.841657
 20
134.032944
 30
0.0
 10
217.464894
 20
161.519340
 30
0.0
  0
SPLINE
  5
117
100
AcDbEntity
  8
Warstwa_1
 62
7
100
AcDbSpline
 70
8
 71
3
 72
8
 73
4
 74
0
 40
0
 40
0
 40
0
 40
0
 40
1
 40
1
 40
1
 40
1
 10
217.464894
 20
161.519340
 30
0.0
 10
218.249501
 20
196.122597
 30
0.0
 10
187.757294
 20
223.142162
 30
0.0
 10
154.111671
 20
223.200561
 30
0.0
  0
SPLINE
  5
118
100
AcDbEntity
  8
Warstwa_1
 62
7
100
AcDbSpline
 70
8
 71
3
 72
8
 73
4
 74
0
 40
0
 40
0
 40
0
 40
0
 40
1
 40
1
 40
1
 40
1
 10
154.111671
 20
223.200561
 30
0.0
 10
113.350768
 20
223.271314
 30
0.0
 10
81.786954
 20
187.177136
 30
0.0
 10
82.315412
 20
147.373778
 30
0.0
  0
SPLINE
  5
119
100
AcDbEntity
  8
Warstwa_1
 62
7
100
AcDbSpline
 70
8
 71
3
 72
8
 73
4
 74
0
 40
0
 40
0
 40
0
 40
0
 40
1
 40
1
 40
1
 40
1
 10
82.315412
 20
147.373778
 30
0.0
 10
82.938305
 20
100.457303
 30
0.0
 10
124.655539
 20
64.322317
 30
0.0
 10
170.615730
 20
65.451413
 30
0.0
  0
SPLINE
  5
11a
100
AcDbEntity
  8
Warstwa_1
 62
7
100
AcDbSpline
 70
8
 71
3
 72
8
 73
4
 74
0
 40
0
 40
0
 40
0
 40
0
 40
1
 40
1
 40
1
 40
1
 10
170.615730
 20
65.451413
 30
0.0
 10
223.686853
 20
66.755208
 30
0.0
 10
264.392079
 20
114.108843
 30
0.0
 10
262.653131
 20
166.225277
 30
0.0
  0
SPLINE
  5
11b
100
AcDbEntity
  8
Warstwa_1
 62
7
100
AcDbSpline
 70
8
 71
3
 72
8
 73
4
 74
0
 40
0
 40
0
 40
0
 40
0
 40
1
 40
1
 40
1
 40
1
 10
262.653131
 20
166.225277
 30
0.0
 10
260.676989
 20
225.450561
 30
0.0
 10
207.678019
 20
270.744043
 30
0.0
 10
149.405715
 20
268.388802
 30
0.0
  0
SPLINE
  5
11c
100
AcDbEntity
  8
Warstwa_1
 62
7
100
AcDbSpline
 70
8
 71
3
 72
8
 73
4
 74
0
 40
0
 40
0
 40
0
 40
0
 40
1
 40
1
 40
1
 40
1
 10
149.405715
 20
268.388802
 30
0.0
 10
84.026551
 20
265.746314
 30
0.0
 10
34.150938
 20
207.090153
 30
0.0
 10
37.127171
 20
142.662285
 30
0.0
  0
SPLINE
  5
11d
100
AcDbEntity
  8
Warstwa_1
 62
7
100
AcDbSpline
 70
8
 71
3
 72
8
 73
4
 74
0
 40
0
 40
0
 40
0
 40
0
 40
1
 40
1
 40
1
 40
1
 10
37.127171
 20
142.662285
 30
0.0
 10
40.431626
 20
71.129378
 30
0.0
 10
104.738545
 20
16.662512
 30
0.0
 10
175.321684
 20
20.263252
 30
0.0
  0
SPLINE
  5
11e
100
AcDbEntity
  8
Warstwa_1
 62
7
100
AcDbSpline
 70
8
 71
3
 72
8
 73
4
 74
0
 40
0
 40
0
 40
0
 40
0
 40
1
 40
1
 40
1
 40
1
 10
175.321684
 20
20.263252
 30
0.0
 10
247.504326
 20
23.945581
 30
0.0
 10
304.884737
 20
85.085303
 30
0.0
 10
307.935468
 20
156.591933
 30
0.0
  0
LWPOLYLINE
  5
11f
100
AcDbEntity
  8
Warstwa_1
 62
7
100
AcDbPolyline
 90
2
 70
0
 10
160.982365
 20
155.600969
 30
0.0
 10
161.392059
 20
155.645303
 30
0.0
  0
SPLINE
  5
120
100
AcDbEntity
  8
Warstwa_1
 62
7
100
AcDbSpline
 70
8
 71
3
 72
8
 73
4
 74
0
 40
0
 40
0
 40
0
 40
0
 40
1
 40
1
 40
1
 40
1
 10
308.345159
 20
156.574925
 30
0.0
 10
305.285471
 20
84.858219
 30
0.0
 10
247.747399
 20
23.546747
 30
0.0
 10
175.343831
 20
19.853172
 30
0.0
  0
SPLINE
  5
121
100
AcDbEntity
  8
Warstwa_1
 62
7
100
AcDbSpline
 70
8
 71
3
 72
8
 73
4
 74
0
 40
0
 40
0
 40
0
 40
0
 40
1
 40
1
 40
1
 40
1
 10
175.343831
 20
19.853172
 30
0.0
 10
104.536531
 20
16.241000
 30
0.0
 10
40.027334
 20
70.875536
 30
0.0
 10
36.711941
 20
142.645306
 30
0.0
  0
SPLINE
  5
122
100
AcDbEntity
  8
Warstwa_1
 62
7
100
AcDbSpline
 70
8
 71
3
 72
8
 73
4
 74
0
 40
0
 40
0
 40
0
 40
0
 40
1
 40
1
 40
1
 40
1
 10
36.711941
 20
142.645306
 30
0.0
 10
33.725370
 20
207.296912
 30
0.0
 10
83.772281
 20
266.146004
 30
0.0
 10
149.389106
 20
268.798099
 30
0.0
  0
LWPOLYLINE
  5
123
100
AcDbEntity
  8
Warstwa_1
 62
7
100
AcDbPolyline
 90
2
 70
0
 10
307.935468
 20
156.591933
 30
0.0
 10
308.345159
 20
156.574925
 30
0.0
  0
SPLINE
  5
124
100
AcDbEntity
  8
Warstwa_1
 62
7
100
AcDbSpline
 70
8
 71
3
 72
8
 73
4
 74
0
 40
0
 40
0
 40
0
 40
0
 40
1
 40
1
 40
1
 40
1
 10
396.183770
 20
258.268343
 30
0.0
 10
389.008375
 20
258.205215
 30
0.0
 10
381.825128
 20
258.139111
 30
0.0
 10
375.592082
 20
257.410199
 30
0.0
  0
SPLINE
  5
125
100
AcDbEntity
  8
Warstwa_1
 62
7
100
AcDbSpline
 70
8
 71
3
 72
8
 73
4
 74
0
 40
0
 40
0
 40
0
 40
0
 40
1
 40
1
 40
1
 40
1
 10
375.592082
 20
257.410199
 30
0.0
 10
369.359008
 20
256.681287
 30
0.0
 10
364.068000
 20
255.277514
 30
0.0
 10
357.008117
 20
251.823954
 30
0.0
  0
SPLINE
  5
126
100
AcDbEntity
  8
Warstwa_1
 62
7
100
AcDbSpline
 70
8
 71
3
 72
8
 73
4
 74
0
 40
0
 40
0
 40
0
 40
0
 40
1
 40
1
 40
1
 40
1
 10
357.008117
 20
251.823954
 30
0.0
 10
349.948233
 20
248.370389
 30
0.0
 10
341.098214
 20
242.866100
 30
0.0
 10
333.519676
 20
235.923364
 30
0.0
  0
SPLINE
  5
127
100
AcDbEntity
  8
Warstwa_1
 62
7
100
AcDbSpline
 70
8
 71
3
 72
8
 73
4
 74
0
 40
0
 40
0
 40
0
 40
0
 40
1
 40
1
 40
1
 40
1
 10
333.519676
 20
235.923364
 30
0.0
 10
325.941165
 20
228.980625
 30
0.0
 10
319.643490
 20
220.604681
 30
0.0
 10
315.560013
 20
210.727117
 30
0.0
  0
SPLINE
  5
128
100
AcDbEntity
  8
Warstwa_1
 62
7
100
AcDbSpline
 70
8
 71
3
 72
8
 73
4
 74
0
 40
0
 40
0
 40
0
 40
0
 40
1
 40
1
 40
1
 40
1
 10
315.560013
 20
210.727117
 30
0.0
 10
311.476535
 20
200.849567
 30
0.0
 10
309.621118
 20
189.516087
 30
0.0
 10
308.692772
 20
180.249148
 30
0.0
  0
SPLINE
  5
129
100
AcDbEntity
  8
Warstwa_1
 62
7
100
AcDbSpline
 70
8
 71
3
 72
8
 73
4
 74
0
 40
0
 40
0
 40
0
 40
0
 40
1
 40
1
 40
1
 40
1
 10
308.692772
 20
180.249148
 30
0.0
 10
307.764454
 20
170.982210
 30
0.0
 10
307.763830
 20
163.770219
 30
0.0
 10
307.763830
 20
156.580963
 30
0.0
  0
LWPOLYLINE
  5
12a
100
AcDbEntity
  8
Warstwa_1
 62
7
100
AcDbPolyline
 90
2
 70
0
 10
149.389106
 20
268.798099
 30
0.0
 10
149.389106
 20
268.798609
 30
0.0
  0
SPLINE
  5
12b
100
AcDbEntity
  8
Warstwa_1
 62
7
100
AcDbSpline
 70
8
 71
3
 72
8
 73
4
 74
0
 40
0
 40
0
 40
0
 40
0
 40
1
 40
1
 40
1
 40
1
 10
308.438050
 20
156.580963
 30
0.0
 10
308.438050
 20
163.770219
 30
0.0
 10
308.443720
 20
170.941561
 30
0.0
 10
309.367020
 20
180.166093
 30
0.0
  0
SPLINE
  5
12c
100
AcDbEntity
  8
Warstwa_1
 62
7
100
AcDbSpline
 70
8
 71
3
 72
8
 73
4
 74
0
 40
0
 40
0
 40
0
 40
0
 40
1
 40
1
 40
1
 40
1
 10
309.367020
 20
180.166093
 30
0.0
 10
310.291115
 20
189.390654
 30
0.0
 10
312.140296
 20
200.659136
 30
0.0
 10
316.174309
 20
210.417092
 30
0.0
  0
SPLINE
  5
12d
100
AcDbEntity
  8
Warstwa_1
 62
7
100
AcDbSpline
 70
8
 71
3
 72
8
 73
4
 74
0
 40
0
 40
0
 40
0
 40
0
 40
1
 40
1
 40
1
 40
1
 10
316.174309
 20
210.417092
 30
0.0
 10
320.208350
 20
220.175050
 30
0.0
 10
326.434734
 20
228.463534
 30
0.0
 10
333.949181
 20
235.347576
 30
0.0
  0
SPLINE
  5
12e
100
AcDbEntity
  8
Warstwa_1
 62
7
100
AcDbSpline
 70
8
 71
3
 72
8
 73
4
 74
0
 40
0
 40
0
 40
0
 40
0
 40
1
 40
1
 40
1
 40
1
 10
333.949181
 20
235.347576
 30
0.0
 10
341.463657
 20
242.231618
 30
0.0
 10
350.269937
 20
247.709322
 30
0.0
 10
357.277805
 20
251.137437
 30
0.0
  0
SPLINE
  5
12f
100
AcDbEntity
  8
Warstwa_1
 62
7
100
AcDbSpline
 70
8
 71
3
 72
8
 73
4
 74
0
 40
0
 40
0
 40
0
 40
0
 40
1
 40
1
 40
1
 40
1
 10
357.277805
 20
251.137437
 30
0.0
 10
364.285701
 20
254.565556
 30
0.0
 10
369.478998
 20
255.939721
 30
0.0
 10
375.662013
 20
256.662782
 30
0.0
  0
SPLINE
  5
130
100
AcDbEntity
  8
Warstwa_1
 62
7
100
AcDbSpline
 70
8
 71
3
 72
8
 73
4
 74
0
 40
0
 40
0
 40
0
 40
0
 40
1
 40
1
 40
1
 40
1
 10
375.662013
 20
256.662782
 30
0.0
 10
381.845027
 20
257.385844
 30
0.0
 10
389.013364
 20
257.452260
 30
0.0
 10
396.188787
 20
257.515390
 30
0.0
  0
LWPOLYLINE
  5
131
100
AcDbEntity
  8
Warstwa_1
 62
7
100
AcDbPolyline
 90
2
 70
0
 10
307.763830
 20
156.580963
 30
0.0
 10
308.438050
 20
156.580963
 30
0.0
  0
SPLINE
  5
132
100
AcDbEntity
  8
Warstwa_1
 62
7
100
AcDbSpline
 70
8
 71
3
 72
8
 73
4
 74
0
 40
0
 40
0
 40
0
 40
0
 40
1
 40
1
 40
1
 40
1
 10
273.404854
 20
69.415608
 30
0.0
 10
267.770098
 20
63.780871
 30
0.0
 10
262.140177
 20
58.148799
 30
0.0
 10
257.969322
 20
54.339942
 30
0.0
  0
SPLINE
  5
133
100
AcDbEntity
  8
Warstwa_1
 62
7
100
AcDbSpline
 70
8
 71
3
 72
8
 73
4
 74
0
 40
0
 40
0
 40
0
 40
0
 40
1
 40
1
 40
1
 40
1
 10
257.969322
 20
54.339942
 30
0.0
 10
253.798469
 20
50.531085
 30
0.0
 10
251.090039
 20
48.540399
 30
0.0
 10
247.992698
 20
46.373057
 30
0.0
  0
SPLINE
  5
134
100
AcDbEntity
  8
Warstwa_1
 62
7
100
AcDbSpline
 70
8
 71
3
 72
8
 73
4
 74
0
 40
0
 40
0
 40
0
 40
0
 40
1
 40
1
 40
1
 40
1
 10
247.992698
 20
46.373057
 30
0.0
 10
244.895357
 20
44.205687
 30
0.0
 10
241.429643
 20
41.879293
 30
0.0
 10
237.180076
 20
39.408219
 30
0.0
  0
SPLINE
  5
135
100
AcDbEntity
  8
Warstwa_1
 62
7
100
AcDbSpline
 70
8
 71
3
 72
8
 73
4
 74
0
 40
0
 40
0
 40
0
 40
0
 40
1
 40
1
 40
1
 40
1
 10
237.180076
 20
39.408219
 30
0.0
 10
232.930508
 20
36.937174
 30
0.0
 10
227.888580
 20
34.320427
 30
0.0
 10
223.560490
 20
32.321605
 30
0.0
  0
SPLINE
  5
136
100
AcDbEntity
  8
Warstwa_1
 62
7
100
AcDbSpline
 70
8
 71
3
 72
8
 73
4
 74
0
 40
0
 40
0
 40
0
 40
0
 40
1
 40
1
 40
1
 40
1
 10
223.560490
 20
32.321605
 30
0.0
 10
219.232400
 20
30.322820
 30
0.0
 10
215.618715
 20
28.939890
 30
0.0
 10
211.745775
 20
27.648916
 30
0.0
  0
SPLINE
  5
137
100
AcDbEntity
  8
Warstwa_1
 62
7
100
AcDbSpline
 70
8
 71
3
 72
8
 73
4
 74
0
 40
0
 40
0
 40
0
 40
0
 40
1
 40
1
 40
1
 40
1
 10
211.745775
 20
27.648916
 30
0.0
 10
207.872838
 20
26.357905
 30
0.0
 10
203.745764
 20
25.158830
 30
0.0
 10
199.886769
 20
24.166514
 30
0.0
  0
SPLINE
  5
138
100
AcDbEntity
  8
Warstwa_1
 62
7
100
AcDbSpline
 70
8
 71
3
 72
8
 73
4
 74
0
 40
0
 40
0
 40
0
 40
0
 40
1
 40
1
 40
1
 40
1
 10
199.886769
 20
24.166514
 30
0.0
 10
196.027775
 20
23.174189
 30
0.0
 10
192.438323
 20
22.385769
 30
0.0
 10
188.996635
 20
21.835678
 30
0.0
  0
SPLINE
  5
139
100
AcDbEntity
  8
Warstwa_1
 62
7
100
AcDbSpline
 70
8
 71
3
 72
8
 73
4
 74
0
 40
0
 40
0
 40
0
 40
0
 40
1
 40
1
 40
1
 40
1
 10
188.996635
 20
21.835678
 30
0.0
 10
185.554953
 20
21.285624
 30
0.0
 10
182.283069
 20
20.974861
 30
0.0
 10
155.279854
 20
20.817000
 30
0.0
  0
SPLINE
  5
13a
100
AcDbEntity
  8
Warstwa_1
 62
7
100
AcDbSpline
 70
8
 71
3
 72
8
 73
4
 74
0
 40
0
 40
0
 40
0
 40
0
 40
1
 40
1
 40
1
 40
1
 10
155.279854
 20
20.817000
 30
0.0
 10
128.276640
 20
20.659110
 30
0.0
 10
77.576434
 20
20.656559
 30
0.0
 10
26.879265
 20
20.656559
 30
0.0
  0
LWPOLYLINE
  5
13b
100
AcDbEntity
  8
Warstwa_1
 62
7
100
AcDbPolyline
 90
2
 70
0
 10
396.188787
 20
257.515390
 30
0.0
 10
396.183770
 20
258.268343
 30
0.0
  0
SPLINE
  5
13c
100
AcDbEntity
  8
Warstwa_1
 62
7
100
AcDbSpline
 70
8
 71
3
 72
8
 73
4
 74
0
 40
0
 40
0
 40
0
 40
0
 40
1
 40
1
 40
1
 40
1
 10
26.879265
 20
19.909157
 30
0.0
 10
77.576434
 20
19.909157
 30
0.0
 10
128.271155
 20
19.906322
 30
0.0
 10
155.279854
 20
20.064212
 30
0.0
  0
SPLINE
  5
13d
100
AcDbEntity
  8
Warstwa_1
 62
7
100
AcDbSpline
 70
8
 71
3
 72
8
 73
4
 74
0
 40
0
 40
0
 40
0
 40
0
 40
1
 40
1
 40
1
 40
1
 10
155.279854
 20
20.064212
 30
0.0
 10
182.288554
 20
20.222101
 30
0.0
 10
185.646937
 20
20.544676
 30
0.0
 10
189.118437
 20
21.099529
 30
0.0
  0
SPLINE
  5
13e
100
AcDbEntity
  8
Warstwa_1
 62
7
100
AcDbSpline
 70
8
 71
3
 72
8
 73
4
 74
0
 40
0
 40
0
 40
0
 40
0
 40
1
 40
1
 40
1
 40
1
 10
189.118437
 20
21.099529
 30
0.0
 10
192.589931
 20
21.654383
 30
0.0
 10
196.200014
 20
22.444985
 30
0.0
 10
200.075006
 20
23.441411
 30
0.0
  0
SPLINE
  5
13f
100
AcDbEntity
  8
Warstwa_1
 62
7
100
AcDbSpline
 70
8
 71
3
 72
8
 73
4
 74
0
 40
0
 40
0
 40
0
 40
0
 40
1
 40
1
 40
1
 40
1
 10
200.075006
 20
23.441411
 30
0.0
 10
203.949998
 20
24.437846
 30
0.0
 10
208.091234
 20
25.637346
 30
0.0
 10
211.983840
 20
26.934868
 30
0.0
  0
SPLINE
  5
140
100
AcDbEntity
  8
Warstwa_1
 62
7
100
AcDbSpline
 70
8
 71
3
 72
8
 73
4
 74
0
 40
0
 40
0
 40
0
 40
0
 40
1
 40
1
 40
1
 40
1
 10
211.983840
 20
26.934868
 30
0.0
 10
215.876443
 20
28.232419
 30
0.0
 10
219.523190
 20
29.630571
 30
0.0
 10
223.876066
 20
31.640808
 30
0.0
  0
SPLINE
  5
141
100
AcDbEntity
  8
Warstwa_1
 62
7
100
AcDbSpline
 70
8
 71
3
 72
8
 73
4
 74
0
 40
0
 40
0
 40
0
 40
0
 40
1
 40
1
 40
1
 40
1
 10
223.876066
 20
31.640808
 30
0.0
 10
228.228939
 20
33.651054
 30
0.0
 10
233.282968
 20
36.275624
 30
0.0
 10
237.556553
 20
38.760644
 30
0.0
  0
SPLINE
  5
142
100
AcDbEntity
  8
Warstwa_1
 62
7
100
AcDbSpline
 70
8
 71
3
 72
8
 73
4
 74
0
 40
0
 40
0
 40
0
 40
0
 40
1
 40
1
 40
1
 40
1
 10
237.556553
 20
38.760644
 30
0.0
 10
241.830133
 20
41.245665
 30
0.0
 10
245.313343
 20
43.585495
 30
0.0
 10
248.419003
 20
45.758676
 30
0.0
  0
SPLINE
  5
143
100
AcDbEntity
  8
Warstwa_1
 62
7
100
AcDbSpline
 70
8
 71
3
 72
8
 73
4
 74
0
 40
0
 40
0
 40
0
 40
0
 40
1
 40
1
 40
1
 40
1
 10
248.419003
 20
45.758676
 30
0.0
 10
251.524661
 20
47.931857
 30
0.0
 10
254.278743
 20
49.956106
 30
0.0
 10
258.473137
 20
53.786477
 30
0.0
  0
SPLINE
  5
144
100
AcDbEntity
  8
Warstwa_1
 62
7
100
AcDbSpline
 70
8
 71
3
 72
8
 73
4
 74
0
 40
0
 40
0
 40
0
 40
0
 40
1
 40
1
 40
1
 40
1
 10
258.473137
 20
53.786477
 30
0.0
 10
262.667531
 20
57.616821
 30
0.0
 10
268.301594
 20
63.249545
 30
0.0
 10
273.936351
 20
68.884282
 30
0.0
  0
LWPOLYLINE
  5
145
100
AcDbEntity
  8
Warstwa_1
 62
7
100
AcDbPolyline
 90
2
 70
0
 10
26.879265
 20
20.656559
 30
0.0
 10
26.879265
 20
19.909157
 30
0.0
  0
LWPOLYLINE
  5
146
100
AcDbEntity
  8
Warstwa_1
 62
7
100
AcDbPolyline
 90
2
 70
0
 10
273.936351
 20
68.884282
 30
0.0
 10
273.404854
 20
69.415608
 30
0.0
  0
ENDSEC
  0
SECTION
  2
OBJECTS
  0
DICTIONARY
  5
C
330
0
100
AcDbDictionary
  3
ACAD_GROUP
350
D
  3
ACAD_MLINESTYLE
350
17
  0
DICTIONARY
  5
D
330
C
100
AcDbDictionary
  0
DICTIONARY
  5
1A
330
C
100
AcDbDictionary
  0
DICTIONARY
  5
17
330
C
100
AcDbDictionary
  3
STANDARD
350
18
  0
DICTIONARY
  5
19
330
C
100
AcDbDictionary
  0
ENDSEC
  0
EOF
