  0
SECTION
  2
HEADER
  9
$ACADVER
  1
AC1014
  9
$HANDSEED
  5
FFFF
  9
$MEASUREMENT
 70
     1
  0
ENDSEC
  0
SECTION
  2
TABLES
  0
TABLE
  2
VPORT
  5
8
330
0
100
AcDbSymbolTable
 70
     4
  0
VPORT
  5
2E
330
8
100
AcDbSymbolTableRecord
100
AcDbViewportTableRecord
  2
*ACTIVE
 70
     0
 10
0.0
 20
0.0
 11
1.0
 21
1.0
 12
210.0
 22
148.5
 13
0.0
 23
0.0
 14
10.0
 24
10.0
 15
10.0
 25
10.0
 16
0.0
 26
0.0
 36
1.0
 17
0.0
 27
0.0
 37
0.0
 40
341.0
 41
1.24
 42
50.0
 43
0.0
 44
0.0
 50
0.0
 51
0.0
 71
     0
 72
   100
 73
     1
 74
     3
 75
     0
 76
     0
 77
     0
 78
     0
  0
ENDTAB
  0
TABLE
  2
LTYPE
  5
5
330
0
100
AcDbSymbolTable
 70
     1
  0
LTYPE
  5
14
330
5
100
AcDbSymbolTableRecord
100
AcDbLinetypeTableRecord
  2
BYBLOCK
 70
     0
  3

 72
    65
 73
     0
 40
0.0
  0
LTYPE
  5
15
330
5
100
AcDbSymbolTableRecord
100
AcDbLinetypeTableRecord
  2
BYLAYER
 70
     0
  3

 72
    65
 73
     0
 40
0.0
  0
LTYPE
  5
16
330
5
100
AcDbSymbolTableRecord
100
AcDbLinetypeTableRecord
  2
CONTINUOUS
 70
     0
  3
Solid line
 72
    65
 73
     0
 40
0.0
  0
ENDTAB
  0
TABLE
  2
LAYER
  5
2
100
AcDbSymbolTable
 70
2
  0
LAYER
  5
50
100
AcDbSymbolTableRecord
100
AcDbLayerTableRecord
  2
0
 70
0
  6
CONTINUOUS
  0
LAYER
  5
51
100
AcDbSymbolTableRecord
100
AcDbLayerTableRecord
  2
Warstwa_1
 70
0
  6
CONTINUOUS
  0
ENDTAB
  0
TABLE
  2
STYLE
  5
3
330
0
100
AcDbSymbolTable
 70
     1
  0
STYLE
  5
11
330
3
100
AcDbSymbolTableRecord
100
AcDbTextStyleTableRecord
  2
STANDARD
 70
     0
 40
0.0
 41
1.0
 50
0.0
 71
     0
 42
2.5
  3
txt
  4

  0
ENDTAB
  0
TABLE
  2
VIEW
  5
6
330
0
100
AcDbSymbolTable
 70
     0
  0
ENDTAB
  0
TABLE
  2
UCS
  5
7
330
0
100
AcDbSymbolTable
 70
     0
  0
ENDTAB
  0
TABLE
  2
APPID
  5
9
330
0
100
AcDbSymbolTable
 70
     2
  0
APPID
  5
12
330
9
100
AcDbSymbolTableRecord
100
AcDbRegAppTableRecord
  2
ACAD
 70
     0
  0
ENDTAB
  0
TABLE
  2
DIMSTYLE
  5
A
330
0
100
AcDbSymbolTable
 70
     1
  0
DIMSTYLE
105
27
330
A
100
AcDbSymbolTableRecord
100
AcDbDimStyleTableRecord
  2
ISO-25
 70
     0
  3

  4

  5

  6

  7

 40
1.0
 41
2.5
 42
0.625
 43
3.75
 44
1.25
 45
0.0
 46
0.0
 47
0.0
 48
0.0
140
2.5
141
2.5
142
0.0
143
0.03937007874016
144
1.0
145
0.0
146
1.0
147
0.625
 71
     0
 72
     0
 73
     0
 74
     0
 75
     0
 76
     0
 77
     1
 78
     8
170
     0
171
     3
172
     1
173
     0
174
     0
175
     0
176
     0
177
     0
178
     0
270
     2
271
     2
272
     2
273
     2
274
     3
340
11
275
     0
280
     0
281
     0
282
     0
283
     0
284
     8
285
     0
286
     0
287
     3
288
     0
  0
ENDTAB
  0
TABLE
  2
BLOCK_RECORD
  5
1
330
0
100
AcDbSymbolTable
 70
     1
  0
BLOCK_RECORD
  5
1F
330
1
100
AcDbSymbolTableRecord
100
AcDbBlockTableRecord
  2
*MODEL_SPACE
  0
BLOCK_RECORD
  5
1B
330
1
100
AcDbSymbolTableRecord
100
AcDbBlockTableRecord
  2
*PAPER_SPACE
  0
ENDTAB
  0
ENDSEC
  0
SECTION
  2
BLOCKS
  0
BLOCK
  5
20
330
1F
100
AcDbEntity
  8
0
100
AcDbBlockBegin
  2
*MODEL_SPACE
 70
     0
 10
0.0
 20
0.0
 30
0.0
  3
*MODEL_SPACE
  1

  0
ENDBLK
  5
21
330
1F
100
AcDbEntity
  8
0
100
AcDbBlockEnd
  0
BLOCK
  5
1C
330
1B
100
AcDbEntity
 67
     1
  8
0
100
AcDbBlockBegin
  2
*PAPER_SPACE
  1

  0
ENDBLK
  5
1D
330
1B
100
AcDbEntity
 67
     1
  8
0
100
AcDbBlockEnd
  0
ENDSEC
  0
SECTION
  2
ENTITIES
  0
SPLINE
  5
100
100
AcDbEntity
  8
Warstwa_1
 62
7
100
AcDbSpline
 70
8
 71
3
 72
8
 73
4
 74
0
 40
0
 40
0
 40
0
 40
0
 40
1
 40
1
 40
1
 40
1
 10
8.905729
 20
8.739638
 30
0.0
 10
6.942784
 20
8.818978
 30
0.0
 10
5.157563
 20
7.293388
 30
0.0
 10
5.090982
 20
5.297957
 30
0.0
  0
SPLINE
  5
101
100
AcDbEntity
  8
Warstwa_1
 62
7
100
AcDbSpline
 70
8
 71
3
 72
8
 73
4
 74
0
 40
0
 40
0
 40
0
 40
0
 40
1
 40
1
 40
1
 40
1
 10
5.090982
 20
5.297957
 30
0.0
 10
5.032381
 20
3.541610
 30
0.0
 10
6.404273
 20
1.946110
 30
0.0
 10
8.193239
 20
1.902170
 30
0.0
  0
SPLINE
  5
102
100
AcDbEntity
  8
Warstwa_1
 62
7
100
AcDbSpline
 70
8
 71
3
 72
8
 73
4
 74
0
 40
0
 40
0
 40
0
 40
0
 40
1
 40
1
 40
1
 40
1
 10
8.193239
 20
1.902170
 30
0.0
 10
9.742986
 20
1.864070
 30
0.0
 10
11.149453
 20
3.082310
 30
0.0
 10
11.170463
 20
4.664800
 30
0.0
  0
SPLINE
  5
103
100
AcDbEntity
  8
Warstwa_1
 62
7
100
AcDbSpline
 70
8
 71
3
 72
8
 73
4
 74
0
 40
0
 40
0
 40
0
 40
0
 40
1
 40
1
 40
1
 40
1
 10
11.170463
 20
4.664800
 30
0.0
 10
11.188293
 20
6.007906
 30
0.0
 10
10.123069
 20
7.225639
 30
0.0
 10
8.747067
 20
7.223250
 30
0.0
  0
SPLINE
  5
104
100
AcDbEntity
  8
Warstwa_1
 62
7
100
AcDbSpline
 70
8
 71
3
 72
8
 73
4
 74
0
 40
0
 40
0
 40
0
 40
0
 40
1
 40
1
 40
1
 40
1
 10
8.747067
 20
7.223250
 30
0.0
 10
7.610621
 20
7.221250
 30
0.0
 10
6.580851
 20
6.308947
 30
0.0
 10
6.607369
 20
5.139477
 30
0.0
  0
SPLINE
  5
105
100
AcDbEntity
  8
Warstwa_1
 62
7
100
AcDbSpline
 70
8
 71
3
 72
8
 73
4
 74
0
 40
0
 40
0
 40
0
 40
0
 40
1
 40
1
 40
1
 40
1
 10
6.607369
 20
5.139477
 30
0.0
 10
6.628447
 20
4.209770
 30
0.0
 10
7.389070
 20
3.366640
 30
0.0
 10
8.351901
 20
3.418540
 30
0.0
  0
SPLINE
  5
106
100
AcDbEntity
  8
Warstwa_1
 62
7
100
AcDbSpline
 70
8
 71
3
 72
8
 73
4
 74
0
 40
0
 40
0
 40
0
 40
0
 40
1
 40
1
 40
1
 40
1
 10
8.351901
 20
3.418540
 30
0.0
 10
9.074777
 20
3.457540
 30
0.0
 10
9.733647
 20
4.068000
 30
0.0
 10
9.653890
 20
4.823830
 30
0.0
  0
SPLINE
  5
107
100
AcDbEntity
  8
Warstwa_1
 62
7
100
AcDbSpline
 70
8
 71
3
 72
8
 73
4
 74
0
 40
0
 40
0
 40
0
 40
0
 40
1
 40
1
 40
1
 40
1
 10
9.653890
 20
4.823830
 30
0.0
 10
9.626679
 20
5.081697
 30
0.0
 10
9.497187
 20
5.330377
 30
0.0
 10
9.305911
 20
5.500832
 30
0.0
  0
SPLINE
  5
108
100
AcDbEntity
  8
Warstwa_1
 62
7
100
AcDbSpline
 70
8
 71
3
 72
8
 73
4
 74
0
 40
0
 40
0
 40
0
 40
0
 40
1
 40
1
 40
1
 40
1
 10
9.305911
 20
5.500832
 30
0.0
 10
9.114637
 20
5.671285
 30
0.0
 10
8.861181
 20
5.763363
 30
0.0
 10
8.587476
 20
5.706681
 30
0.0
  0
SPLINE
  5
109
100
AcDbEntity
  8
Warstwa_1
 62
7
100
AcDbSpline
 70
8
 71
3
 72
8
 73
4
 74
0
 40
0
 40
0
 40
0
 40
0
 40
1
 40
1
 40
1
 40
1
 10
8.587476
 20
5.706681
 30
0.0
 10
8.433859
 20
5.674841
 30
0.0
 10
8.277514
 20
5.575901
 30
0.0
 10
8.179492
 20
5.443237
 30
0.0
  0
SPLINE
  5
10a
100
AcDbEntity
  8
Warstwa_1
 62
7
100
AcDbSpline
 70
8
 71
3
 72
8
 73
4
 74
0
 40
0
 40
0
 40
0
 40
0
 40
1
 40
1
 40
1
 40
1
 10
8.179492
 20
5.443237
 30
0.0
 10
8.081470
 20
5.310587
 30
0.0
 10
8.042118
 20
5.143267
 30
0.0
 10
8.124500
 20
4.978230
 30
0.0
  0
SPLINE
  5
10b
100
AcDbEntity
  8
Warstwa_1
 62
7
100
AcDbSpline
 70
8
 71
3
 72
8
 73
4
 74
0
 40
0
 40
0
 40
0
 40
0
 40
1
 40
1
 40
1
 40
1
 10
8.124500
 20
4.978230
 30
0.0
 10
8.155971
 20
4.915130
 30
0.0
 10
8.245643
 20
4.848370
 30
0.0
 10
8.332023
 20
4.824400
 30
0.0
  0
SPLINE
  5
10c
100
AcDbEntity
  8
Warstwa_1
 62
7
100
AcDbSpline
 70
8
 71
3
 72
8
 73
4
 74
0
 40
0
 40
0
 40
0
 40
0
 40
1
 40
1
 40
1
 40
1
 10
8.332023
 20
4.824400
 30
0.0
 10
8.375221
 20
4.812400
 30
0.0
 10
8.417853
 20
4.811200
 30
0.0
 10
8.452042
 20
4.828400
 30
0.0
  0
SPLINE
  5
10d
100
AcDbEntity
  8
Warstwa_1
 62
7
100
AcDbSpline
 70
8
 71
3
 72
8
 73
4
 74
0
 40
0
 40
0
 40
0
 40
0
 40
1
 40
1
 40
1
 40
1
 10
8.452042
 20
4.828400
 30
0.0
 10
8.486255
 20
4.845800
 30
0.0
 10
8.510586
 20
4.882200
 30
0.0
 10
8.516701
 20
4.940760
 30
0.0
  0
SPLINE
  5
10e
100
AcDbEntity
  8
Warstwa_1
 62
7
100
AcDbSpline
 70
8
 71
3
 72
8
 73
4
 74
0
 40
0
 40
0
 40
0
 40
0
 40
1
 40
1
 40
1
 40
1
 10
8.502828
 20
4.941760
 30
0.0
 10
8.497028
 20
4.886260
 30
0.0
 10
8.475344
 20
4.855660
 30
0.0
 10
8.445615
 20
4.840290
 30
0.0
  0
SPLINE
  5
10f
100
AcDbEntity
  8
Warstwa_1
 62
7
100
AcDbSpline
 70
8
 71
3
 72
8
 73
4
 74
0
 40
0
 40
0
 40
0
 40
0
 40
1
 40
1
 40
1
 40
1
 10
8.445615
 20
4.840290
 30
0.0
 10
8.415870
 20
4.825090
 30
0.0
 10
8.376455
 20
4.825890
 30
0.0
 10
8.335448
 20
4.837290
 30
0.0
  0
SPLINE
  5
110
100
AcDbEntity
  8
Warstwa_1
 62
7
100
AcDbSpline
 70
8
 71
3
 72
8
 73
4
 74
0
 40
0
 40
0
 40
0
 40
0
 40
1
 40
1
 40
1
 40
1
 10
8.335448
 20
4.837290
 30
0.0
 10
8.253210
 20
4.860090
 30
0.0
 10
8.165268
 20
4.926890
 30
0.0
 10
8.136842
 20
4.983880
 30
0.0
  0
SPLINE
  5
111
100
AcDbEntity
  8
Warstwa_1
 62
7
100
AcDbSpline
 70
8
 71
3
 72
8
 73
4
 74
0
 40
0
 40
0
 40
0
 40
0
 40
1
 40
1
 40
1
 40
1
 10
8.136842
 20
4.983880
 30
0.0
 10
8.056903
 20
5.144027
 30
0.0
 10
8.094742
 20
5.304757
 30
0.0
 10
8.190533
 20
5.434397
 30
0.0
  0
SPLINE
  5
112
100
AcDbEntity
  8
Warstwa_1
 62
7
100
AcDbSpline
 70
8
 71
3
 72
8
 73
4
 74
0
 40
0
 40
0
 40
0
 40
0
 40
1
 40
1
 40
1
 40
1
 10
8.190533
 20
5.434397
 30
0.0
 10
8.286328
 20
5.564447
 30
0.0
 10
8.440317
 20
5.662017
 30
0.0
 10
8.590161
 20
5.693047
 30
0.0
  0
SPLINE
  5
113
100
AcDbEntity
  8
Warstwa_1
 62
7
100
AcDbSpline
 70
8
 71
3
 72
8
 73
4
 74
0
 40
0
 40
0
 40
0
 40
0
 40
1
 40
1
 40
1
 40
1
 10
8.590161
 20
5.693047
 30
0.0
 10
8.859287
 20
5.748807
 30
0.0
 10
9.107925
 20
5.658607
 30
0.0
 10
9.296518
 20
5.490546
 30
0.0
  0
SPLINE
  5
114
100
AcDbEntity
  8
Warstwa_1
 62
7
100
AcDbSpline
 70
8
 71
3
 72
8
 73
4
 74
0
 40
0
 40
0
 40
0
 40
0
 40
1
 40
1
 40
1
 40
1
 10
9.296518
 20
5.490546
 30
0.0
 10
9.485114
 20
5.322487
 30
0.0
 10
9.613213
 20
5.076487
 30
0.0
 10
9.640038
 20
4.822280
 30
0.0
  0
SPLINE
  5
115
100
AcDbEntity
  8
Warstwa_1
 62
7
100
AcDbSpline
 70
8
 71
3
 72
8
 73
4
 74
0
 40
0
 40
0
 40
0
 40
0
 40
1
 40
1
 40
1
 40
1
 10
9.640038
 20
4.822280
 30
0.0
 10
9.718879
 20
4.075140
 30
0.0
 10
9.066621
 20
3.470810
 30
0.0
 10
8.351053
 20
3.432230
 30
0.0
  0
SPLINE
  5
116
100
AcDbEntity
  8
Warstwa_1
 62
7
100
AcDbSpline
 70
8
 71
3
 72
8
 73
4
 74
0
 40
0
 40
0
 40
0
 40
0
 40
1
 40
1
 40
1
 40
1
 10
8.351053
 20
3.432230
 30
0.0
 10
7.396665
 20
3.380730
 30
0.0
 10
6.642112
 20
4.217240
 30
0.0
 10
6.621199
 20
5.139597
 30
0.0
  0
SPLINE
  5
117
100
AcDbEntity
  8
Warstwa_1
 62
7
100
AcDbSpline
 70
8
 71
3
 72
8
 73
4
 74
0
 40
0
 40
0
 40
0
 40
0
 40
1
 40
1
 40
1
 40
1
 10
6.621199
 20
5.139597
 30
0.0
 10
6.594974
 20
6.300391
 30
0.0
 10
7.618204
 20
7.207090
 30
0.0
 10
8.747254
 20
7.209049
 30
0.0
  0
SPLINE
  5
118
100
AcDbEntity
  8
Warstwa_1
 62
7
100
AcDbSpline
 70
8
 71
3
 72
8
 73
4
 74
0
 40
0
 40
0
 40
0
 40
0
 40
1
 40
1
 40
1
 40
1
 10
8.747254
 20
7.209049
 30
0.0
 10
10.115072
 20
7.211449
 30
0.0
 10
11.174262
 20
6.000208
 30
0.0
 10
11.156530
 20
4.664530
 30
0.0
  0
SPLINE
  5
119
100
AcDbEntity
  8
Warstwa_1
 62
7
100
AcDbSpline
 70
8
 71
3
 72
8
 73
4
 74
0
 40
0
 40
0
 40
0
 40
0
 40
1
 40
1
 40
1
 40
1
 10
11.156530
 20
4.664530
 30
0.0
 10
11.135630
 20
3.090160
 30
0.0
 10
9.735717
 20
1.877560
 30
0.0
 10
8.193426
 20
1.915450
 30
0.0
  0
SPLINE
  5
11a
100
AcDbEntity
  8
Warstwa_1
 62
7
100
AcDbSpline
 70
8
 71
3
 72
8
 73
4
 74
0
 40
0
 40
0
 40
0
 40
0
 40
1
 40
1
 40
1
 40
1
 10
8.193426
 20
1.915450
 30
0.0
 10
6.412513
 20
1.959250
 30
0.0
 10
5.046564
 20
3.548250
 30
0.0
 10
5.104917
 20
5.297127
 30
0.0
  0
SPLINE
  5
11b
100
AcDbEntity
  8
Warstwa_1
 62
7
100
AcDbSpline
 70
8
 71
3
 72
8
 73
4
 74
0
 40
0
 40
0
 40
0
 40
0
 40
1
 40
1
 40
1
 40
1
 10
5.104917
 20
5.297127
 30
0.0
 10
5.171227
 20
7.284553
 30
0.0
 10
6.949723
 20
8.804470
 30
0.0
 10
8.905172
 20
8.725436
 30
0.0
  0
SPLINE
  5
11c
100
AcDbEntity
  8
Warstwa_1
 62
7
100
AcDbSpline
 70
8
 71
3
 72
8
 73
4
 74
0
 40
0
 40
0
 40
0
 40
0
 40
1
 40
1
 40
1
 40
1
 10
8.905172
 20
8.725436
 30
0.0
 10
11.099108
 20
8.636766
 30
0.0
 10
12.772791
 20
6.668426
 30
0.0
 10
12.672916
 20
4.506420
 30
0.0
  0
SPLINE
  5
11d
100
AcDbEntity
  8
Warstwa_1
 62
7
100
AcDbSpline
 70
8
 71
3
 72
8
 73
4
 74
0
 40
0
 40
0
 40
0
 40
0
 40
1
 40
1
 40
1
 40
1
 10
12.672916
 20
4.506420
 30
0.0
 10
12.562029
 20
2.105990
 30
0.0
 10
10.404074
 20
0.278240
 30
0.0
 10
8.035509
 20
0.399070
 30
0.0
  0
SPLINE
  5
11e
100
AcDbEntity
  8
Warstwa_1
 62
7
100
AcDbSpline
 70
8
 71
3
 72
8
 73
4
 74
0
 40
0
 40
0
 40
0
 40
0
 40
1
 40
1
 40
1
 40
1
 10
8.035509
 20
0.399070
 30
0.0
 10
5.613266
 20
0.522650
 30
0.0
 10
3.687746
 20
2.574320
 30
0.0
 10
3.585373
 20
4.973860
 30
0.0
  0
LWPOLYLINE
  5
11f
100
AcDbEntity
  8
Warstwa_1
 62
7
100
AcDbPolyline
 90
2
 70
0
 10
8.516701
 20
4.940760
 30
0.0
 10
8.502828
 20
4.941760
 30
0.0
  0
SPLINE
  5
120
100
AcDbEntity
  8
Warstwa_1
 62
7
100
AcDbSpline
 70
8
 71
3
 72
8
 73
4
 74
0
 40
0
 40
0
 40
0
 40
0
 40
1
 40
1
 40
1
 40
1
 10
3.571625
 20
4.973290
 30
0.0
 10
3.674298
 20
2.567150
 30
0.0
 10
5.605110
 20
0.509700
 30
0.0
 10
8.034762
 20
0.385770
 30
0.0
  0
SPLINE
  5
121
100
AcDbEntity
  8
Warstwa_1
 62
7
100
AcDbSpline
 70
8
 71
3
 72
8
 73
4
 74
0
 40
0
 40
0
 40
0
 40
0
 40
1
 40
1
 40
1
 40
1
 10
8.034762
 20
0.385770
 30
0.0
 10
10.410851
 20
0.264540
 30
0.0
 10
12.575594
 20
2.097920
 30
0.0
 10
12.686850
 20
4.506310
 30
0.0
  0
SPLINE
  5
122
100
AcDbEntity
  8
Warstwa_1
 62
7
100
AcDbSpline
 70
8
 71
3
 72
8
 73
4
 74
0
 40
0
 40
0
 40
0
 40
0
 40
1
 40
1
 40
1
 40
1
 10
12.686850
 20
4.506310
 30
0.0
 10
12.787070
 20
6.675819
 30
0.0
 10
11.107640
 20
8.650624
 30
0.0
 10
8.905729
 20
8.739621
 30
0.0
  0
LWPOLYLINE
  5
123
100
AcDbEntity
  8
Warstwa_1
 62
7
100
AcDbPolyline
 90
2
 70
0
 10
3.585373
 20
4.973860
 30
0.0
 10
3.571625
 20
4.973290
 30
0.0
  0
SPLINE
  5
124
100
AcDbEntity
  8
Warstwa_1
 62
7
100
AcDbSpline
 70
8
 71
3
 72
8
 73
4
 74
0
 40
0
 40
0
 40
0
 40
0
 40
1
 40
1
 40
1
 40
1
 10
0.624014
 20
8.386273
 30
0.0
 10
0.864801
 20
8.384173
 30
0.0
 10
1.105849
 20
8.381973
 30
0.0
 10
1.315013
 20
8.357473
 30
0.0
  0
SPLINE
  5
125
100
AcDbEntity
  8
Warstwa_1
 62
7
100
AcDbSpline
 70
8
 71
3
 72
8
 73
4
 74
0
 40
0
 40
0
 40
0
 40
0
 40
1
 40
1
 40
1
 40
1
 10
1.315013
 20
8.357473
 30
0.0
 10
1.524176
 20
8.333013
 30
0.0
 10
1.701727
 20
8.285903
 30
0.0
 10
1.938636
 20
8.170014
 30
0.0
  0
SPLINE
  5
126
100
AcDbEntity
  8
Warstwa_1
 62
7
100
AcDbSpline
 70
8
 71
3
 72
8
 73
4
 74
0
 40
0
 40
0
 40
0
 40
0
 40
1
 40
1
 40
1
 40
1
 10
1.938636
 20
8.170014
 30
0.0
 10
2.175545
 20
8.054123
 30
0.0
 10
2.472526
 20
7.869415
 30
0.0
 10
2.726840
 20
7.636437
 30
0.0
  0
SPLINE
  5
127
100
AcDbEntity
  8
Warstwa_1
 62
7
100
AcDbSpline
 70
8
 71
3
 72
8
 73
4
 74
0
 40
0
 40
0
 40
0
 40
0
 40
1
 40
1
 40
1
 40
1
 10
2.726840
 20
7.636437
 30
0.0
 10
2.981153
 20
7.403458
 30
0.0
 10
3.192485
 20
7.122386
 30
0.0
 10
3.329514
 20
6.790923
 30
0.0
  0
SPLINE
  5
128
100
AcDbEntity
  8
Warstwa_1
 62
7
100
AcDbSpline
 70
8
 71
3
 72
8
 73
4
 74
0
 40
0
 40
0
 40
0
 40
0
 40
1
 40
1
 40
1
 40
1
 10
3.329514
 20
6.790923
 30
0.0
 10
3.466544
 20
6.459462
 30
0.0
 10
3.528807
 20
6.079143
 30
0.0
 10
3.559959
 20
5.768170
 30
0.0
  0
SPLINE
  5
129
100
AcDbEntity
  8
Warstwa_1
 62
7
100
AcDbSpline
 70
8
 71
3
 72
8
 73
4
 74
0
 40
0
 40
0
 40
0
 40
0
 40
1
 40
1
 40
1
 40
1
 10
3.559959
 20
5.768170
 30
0.0
 10
3.591109
 20
5.457197
 30
0.0
 10
3.591129
 20
5.215187
 30
0.0
 10
3.591129
 20
4.973940
 30
0.0
  0
LWPOLYLINE
  5
12a
100
AcDbEntity
  8
Warstwa_1
 62
7
100
AcDbPolyline
 90
1
 70
1
 10
8.905729
 20
8.739621
 30
0.0
  0
SPLINE
  5
12b
100
AcDbEntity
  8
Warstwa_1
 62
7
100
AcDbSpline
 70
8
 71
3
 72
8
 73
4
 74
0
 40
0
 40
0
 40
0
 40
0
 40
1
 40
1
 40
1
 40
1
 10
3.568488
 20
4.973990
 30
0.0
 10
3.568488
 20
5.215237
 30
0.0
 10
3.568297
 20
5.455877
 30
0.0
 10
3.537318
 20
5.765425
 30
0.0
  0
SPLINE
  5
12c
100
AcDbEntity
  8
Warstwa_1
 62
7
100
AcDbSpline
 70
8
 71
3
 72
8
 73
4
 74
0
 40
0
 40
0
 40
0
 40
0
 40
1
 40
1
 40
1
 40
1
 10
3.537318
 20
5.765425
 30
0.0
 10
3.506308
 20
6.074976
 30
0.0
 10
3.444257
 20
6.453113
 30
0.0
 10
3.308885
 20
6.780561
 30
0.0
  0
SPLINE
  5
12d
100
AcDbEntity
  8
Warstwa_1
 62
7
100
AcDbSpline
 70
8
 71
3
 72
8
 73
4
 74
0
 40
0
 40
0
 40
0
 40
0
 40
1
 40
1
 40
1
 40
1
 10
3.308885
 20
6.780561
 30
0.0
 10
3.173515
 20
7.108010
 30
0.0
 10
2.964575
 20
7.386147
 30
0.0
 10
2.712412
 20
7.617157
 30
0.0
  0
SPLINE
  5
12e
100
AcDbEntity
  8
Warstwa_1
 62
7
100
AcDbSpline
 70
8
 71
3
 72
8
 73
4
 74
0
 40
0
 40
0
 40
0
 40
0
 40
1
 40
1
 40
1
 40
1
 10
2.712412
 20
7.617157
 30
0.0
 10
2.460248
 20
7.848164
 30
0.0
 10
2.164735
 20
8.031980
 30
0.0
 10
1.929571
 20
8.147018
 30
0.0
  0
SPLINE
  5
12f
100
AcDbEntity
  8
Warstwa_1
 62
7
100
AcDbSpline
 70
8
 71
3
 72
8
 73
4
 74
0
 40
0
 40
0
 40
0
 40
0
 40
1
 40
1
 40
1
 40
1
 10
1.929571
 20
8.147018
 30
0.0
 10
1.694406
 20
8.262057
 30
0.0
 10
1.520135
 20
8.308169
 30
0.0
 10
1.312650
 20
8.332433
 30
0.0
  0
SPLINE
  5
130
100
AcDbEntity
  8
Warstwa_1
 62
7
100
AcDbSpline
 70
8
 71
3
 72
8
 73
4
 74
0
 40
0
 40
0
 40
0
 40
0
 40
1
 40
1
 40
1
 40
1
 10
1.312650
 20
8.332433
 30
0.0
 10
1.105167
 20
8.356693
 30
0.0
 10
0.864617
 20
8.358923
 30
0.0
 10
0.623831
 20
8.361043
 30
0.0
  0
LWPOLYLINE
  5
131
100
AcDbEntity
  8
Warstwa_1
 62
7
100
AcDbPolyline
 90
2
 70
0
 10
3.591129
 20
4.973940
 30
0.0
 10
3.568488
 20
4.973990
 30
0.0
  0
SPLINE
  5
132
100
AcDbEntity
  8
Warstwa_1
 62
7
100
AcDbSpline
 70
8
 71
3
 72
8
 73
4
 74
0
 40
0
 40
0
 40
0
 40
0
 40
1
 40
1
 40
1
 40
1
 10
4.744118
 20
2.048940
 30
0.0
 10
4.933205
 20
1.859840
 30
0.0
 10
5.122130
 20
1.670850
 30
0.0
 10
5.262092
 20
1.543030
 30
0.0
  0
SPLINE
  5
133
100
AcDbEntity
  8
Warstwa_1
 62
7
100
AcDbSpline
 70
8
 71
3
 72
8
 73
4
 74
0
 40
0
 40
0
 40
0
 40
0
 40
1
 40
1
 40
1
 40
1
 10
5.262092
 20
1.543030
 30
0.0
 10
5.402054
 20
1.415220
 30
0.0
 10
5.492939
 20
1.348430
 30
0.0
 10
5.596879
 20
1.275690
 30
0.0
  0
SPLINE
  5
134
100
AcDbEntity
  8
Warstwa_1
 62
7
100
AcDbSpline
 70
8
 71
3
 72
8
 73
4
 74
0
 40
0
 40
0
 40
0
 40
0
 40
1
 40
1
 40
1
 40
1
 10
5.596879
 20
1.275690
 30
0.0
 10
5.700809
 20
1.202990
 30
0.0
 10
5.817115
 20
1.124890
 30
0.0
 10
5.959717
 20
1.041980
 30
0.0
  0
SPLINE
  5
135
100
AcDbEntity
  8
Warstwa_1
 62
7
100
AcDbSpline
 70
8
 71
3
 72
8
 73
4
 74
0
 40
0
 40
0
 40
0
 40
0
 40
1
 40
1
 40
1
 40
1
 10
5.959717
 20
1.041980
 30
0.0
 10
6.102322
 20
0.959080
 30
0.0
 10
6.271513
 20
0.871250
 30
0.0
 10
6.416752
 20
0.804160
 30
0.0
  0
SPLINE
  5
136
100
AcDbEntity
  8
Warstwa_1
 62
7
100
AcDbSpline
 70
8
 71
3
 72
8
 73
4
 74
0
 40
0
 40
0
 40
0
 40
0
 40
1
 40
1
 40
1
 40
1
 10
6.416752
 20
0.804160
 30
0.0
 10
6.561989
 20
0.737060
 30
0.0
 10
6.683255
 20
0.690680
 30
0.0
 10
6.813219
 20
0.647360
 30
0.0
  0
SPLINE
  5
137
100
AcDbEntity
  8
Warstwa_1
 62
7
100
AcDbSpline
 70
8
 71
3
 72
8
 73
4
 74
0
 40
0
 40
0
 40
0
 40
0
 40
1
 40
1
 40
1
 40
1
 10
6.813219
 20
0.647360
 30
0.0
 10
6.943194
 20
0.604060
 30
0.0
 10
7.081676
 20
0.563760
 30
0.0
 10
7.211174
 20
0.530500
 30
0.0
  0
SPLINE
  5
138
100
AcDbEntity
  8
Warstwa_1
 62
7
100
AcDbSpline
 70
8
 71
3
 72
8
 73
4
 74
0
 40
0
 40
0
 40
0
 40
0
 40
1
 40
1
 40
1
 40
1
 10
7.211174
 20
0.530500
 30
0.0
 10
7.340676
 20
0.497200
 30
0.0
 10
7.461122
 20
0.470700
 30
0.0
 10
7.576614
 20
0.452300
 30
0.0
  0
SPLINE
  5
139
100
AcDbEntity
  8
Warstwa_1
 62
7
100
AcDbSpline
 70
8
 71
3
 72
8
 73
4
 74
0
 40
0
 40
0
 40
0
 40
0
 40
1
 40
1
 40
1
 40
1
 10
7.576614
 20
0.452300
 30
0.0
 10
7.692117
 20
0.433800
 30
0.0
 10
7.801896
 20
0.423400
 30
0.0
 10
8.708053
 20
0.418100
 30
0.0
  0
SPLINE
  5
13a
100
AcDbEntity
  8
Warstwa_1
 62
7
100
AcDbSpline
 70
8
 71
3
 72
8
 73
4
 74
0
 40
0
 40
0
 40
0
 40
0
 40
1
 40
1
 40
1
 40
1
 10
8.708053
 20
0.418100
 30
0.0
 10
9.614203
 20
0.413100
 30
0.0
 10
11.315555
 20
0.413100
 30
0.0
 10
13.016804
 20
0.413100
 30
0.0
  0
LWPOLYLINE
  5
13b
100
AcDbEntity
  8
Warstwa_1
 62
7
100
AcDbPolyline
 90
2
 70
0
 10
0.623831
 20
8.361043
 30
0.0
 10
0.624014
 20
8.386273
 30
0.0
  0
SPLINE
  5
13c
100
AcDbEntity
  8
Warstwa_1
 62
7
100
AcDbSpline
 70
8
 71
3
 72
8
 73
4
 74
0
 40
0
 40
0
 40
0
 40
0
 40
1
 40
1
 40
1
 40
1
 10
13.016796
 20
0.387600
 30
0.0
 10
11.315547
 20
0.387590
 30
0.0
 10
9.614378
 20
0.387500
 30
0.0
 10
8.708045
 20
0.392600
 30
0.0
  0
SPLINE
  5
13d
100
AcDbEntity
  8
Warstwa_1
 62
7
100
AcDbSpline
 70
8
 71
3
 72
8
 73
4
 74
0
 40
0
 40
0
 40
0
 40
0
 40
1
 40
1
 40
1
 40
1
 10
8.708045
 20
0.392600
 30
0.0
 10
7.801711
 20
0.397600
 30
0.0
 10
7.689013
 20
0.408700
 30
0.0
 10
7.572518
 20
0.427300
 30
0.0
  0
SPLINE
  5
13e
100
AcDbEntity
  8
Warstwa_1
 62
7
100
AcDbSpline
 70
8
 71
3
 72
8
 73
4
 74
0
 40
0
 40
0
 40
0
 40
0
 40
1
 40
1
 40
1
 40
1
 10
7.572518
 20
0.427300
 30
0.0
 10
7.456029
 20
0.445900
 30
0.0
 10
7.334883
 20
0.472400
 30
0.0
 10
7.204848
 20
0.505900
 30
0.0
  0
SPLINE
  5
13f
100
AcDbEntity
  8
Warstwa_1
 62
7
100
AcDbSpline
 70
8
 71
3
 72
8
 73
4
 74
0
 40
0
 40
0
 40
0
 40
0
 40
1
 40
1
 40
1
 40
1
 10
7.204848
 20
0.505900
 30
0.0
 10
7.074819
 20
0.539300
 30
0.0
 10
6.935847
 20
0.579600
 30
0.0
 10
6.805224
 20
0.623120
 30
0.0
  0
SPLINE
  5
140
100
AcDbEntity
  8
Warstwa_1
 62
7
100
AcDbSpline
 70
8
 71
3
 72
8
 73
4
 74
0
 40
0
 40
0
 40
0
 40
0
 40
1
 40
1
 40
1
 40
1
 10
6.805224
 20
0.623120
 30
0.0
 10
6.674606
 20
0.666620
 30
0.0
 10
6.552224
 20
0.713620
 30
0.0
 10
6.406154
 20
0.781040
 30
0.0
  0
SPLINE
  5
141
100
AcDbEntity
  8
Warstwa_1
 62
7
100
AcDbSpline
 70
8
 71
3
 72
8
 73
4
 74
0
 40
0
 40
0
 40
0
 40
0
 40
1
 40
1
 40
1
 40
1
 10
6.406154
 20
0.781040
 30
0.0
 10
6.260086
 20
0.848540
 30
0.0
 10
6.090486
 20
0.936570
 30
0.0
 10
5.947075
 20
1.019970
 30
0.0
  0
SPLINE
  5
142
100
AcDbEntity
  8
Warstwa_1
 62
7
100
AcDbSpline
 70
8
 71
3
 72
8
 73
4
 74
0
 40
0
 40
0
 40
0
 40
0
 40
1
 40
1
 40
1
 40
1
 10
5.947075
 20
1.019970
 30
0.0
 10
5.803669
 20
1.103370
 30
0.0
 10
5.686781
 20
1.181870
 30
0.0
 10
5.582564
 20
1.254800
 30
0.0
  0
SPLINE
  5
143
100
AcDbEntity
  8
Warstwa_1
 62
7
100
AcDbSpline
 70
8
 71
3
 72
8
 73
4
 74
0
 40
0
 40
0
 40
0
 40
0
 40
1
 40
1
 40
1
 40
1
 10
5.582564
 20
1.254800
 30
0.0
 10
5.478344
 20
1.327700
 30
0.0
 10
5.385928
 20
1.395650
 30
0.0
 10
5.245176
 20
1.524180
 30
0.0
  0
SPLINE
  5
144
100
AcDbEntity
  8
Warstwa_1
 62
7
100
AcDbSpline
 70
8
 71
3
 72
8
 73
4
 74
0
 40
0
 40
0
 40
0
 40
0
 40
1
 40
1
 40
1
 40
1
 10
5.245176
 20
1.524180
 30
0.0
 10
5.104425
 20
1.652720
 30
0.0
 10
4.915363
 20
1.841740
 30
0.0
 10
4.726276
 20
2.030820
 30
0.0
  0
LWPOLYLINE
  5
145
100
AcDbEntity
  8
Warstwa_1
 62
7
100
AcDbPolyline
 90
2
 70
0
 10
13.016804
 20
0.413100
 30
0.0
 10
13.016796
 20
0.387600
 30
0.0
  0
SPLINE
  5
146
100
AcDbEntity
  8
Warstwa_1
 62
7
100
AcDbSpline
 70
8
 71
3
 72
8
 73
4
 74
0
 40
0
 40
0
 40
0
 40
0
 40
1
 40
1
 40
1
 40
1
 10
1.683215
 20
9.807349
 30
0.0
 10
1.802221
 20
9.794779
 30
0.0
 10
1.925742
 20
9.781349
 30
0.0
 10
2.079782
 20
9.687000
 30
0.0
  0
SPLINE
  5
147
100
AcDbEntity
  8
Warstwa_1
 62
7
100
AcDbSpline
 70
8
 71
3
 72
8
 73
4
 74
0
 40
0
 40
0
 40
0
 40
0
 40
1
 40
1
 40
1
 40
1
 10
2.079782
 20
9.687000
 30
0.0
 10
2.233825
 20
9.592660
 30
0.0
 10
2.418522
 20
9.419135
 30
0.0
 10
2.513928
 20
9.247918
 30
0.0
  0
SPLINE
  5
148
100
AcDbEntity
  8
Warstwa_1
 62
7
100
AcDbSpline
 70
8
 71
3
 72
8
 73
4
 74
0
 40
0
 40
0
 40
0
 40
0
 40
1
 40
1
 40
1
 40
1
 10
2.513928
 20
9.247918
 30
0.0
 10
2.609343
 20
9.076699
 30
0.0
 10
2.612768
 20
8.910553
 30
0.0
 10
2.616371
 20
8.747001
 30
0.0
  0
LWPOLYLINE
  5
149
100
AcDbEntity
  8
Warstwa_1
 62
7
100
AcDbPolyline
 90
2
 70
0
 10
4.726276
 20
2.030820
 30
0.0
 10
4.744118
 20
2.048940
 30
0.0
  0
SPLINE
  5
14a
100
AcDbEntity
  8
Warstwa_1
 62
7
100
AcDbSpline
 70
8
 71
3
 72
8
 73
4
 74
0
 40
0
 40
0
 40
0
 40
0
 40
1
 40
1
 40
1
 40
1
 10
2.586172
 20
8.746458
 30
0.0
 10
2.582525
 20
8.910011
 30
0.0
 10
2.578879
 20
9.071046
 30
0.0
 10
2.486635
 20
9.236451
 30
0.0
  0
SPLINE
  5
14b
100
AcDbEntity
  8
Warstwa_1
 62
7
100
AcDbSpline
 70
8
 71
3
 72
8
 73
4
 74
0
 40
0
 40
0
 40
0
 40
0
 40
1
 40
1
 40
1
 40
1
 10
2.486635
 20
9.236451
 30
0.0
 10
2.394480
 20
9.401857
 30
0.0
 10
2.211320
 20
9.574332
 30
0.0
 10
2.062333
 20
9.665585
 30
0.0
  0
SPLINE
  5
14c
100
AcDbEntity
  8
Warstwa_1
 62
7
100
AcDbSpline
 70
8
 71
3
 72
8
 73
4
 74
0
 40
0
 40
0
 40
0
 40
0
 40
1
 40
1
 40
1
 40
1
 10
2.062333
 20
9.665585
 30
0.0
 10
1.913344
 20
9.756834
 30
0.0
 10
1.798643
 20
9.768481
 30
0.0
 10
1.679633
 20
9.781059
 30
0.0
  0
LWPOLYLINE
  5
14d
100
AcDbEntity
  8
Warstwa_1
 62
7
100
AcDbPolyline
 90
2
 70
0
 10
2.616371
 20
8.747001
 30
0.0
 10
2.586172
 20
8.746458
 30
0.0
  0
SPLINE
  5
14e
100
AcDbEntity
  8
Warstwa_1
 62
7
100
AcDbSpline
 70
8
 71
3
 72
8
 73
4
 74
0
 40
0
 40
0
 40
0
 40
0
 40
1
 40
1
 40
1
 40
1
 10
0.426285
 20
9.559351
 30
0.0
 10
0.576068
 20
9.539241
 30
0.0
 10
0.727019
 20
9.519191
 30
0.0
 10
0.865470
 20
9.460841
 30
0.0
  0
SPLINE
  5
14f
100
AcDbEntity
  8
Warstwa_1
 62
7
100
AcDbSpline
 70
8
 71
3
 72
8
 73
4
 74
0
 40
0
 40
0
 40
0
 40
0
 40
1
 40
1
 40
1
 40
1
 10
0.865470
 20
9.460841
 30
0.0
 10
1.003923
 20
9.402491
 30
0.0
 10
1.127748
 20
9.306914
 30
0.0
 10
1.211207
 20
9.221066
 30
0.0
  0
SPLINE
  5
150
100
AcDbEntity
  8
Warstwa_1
 62
7
100
AcDbSpline
 70
8
 71
3
 72
8
 73
4
 74
0
 40
0
 40
0
 40
0
 40
0
 40
1
 40
1
 40
1
 40
1
 10
1.211207
 20
9.221066
 30
0.0
 10
1.294667
 20
9.135216
 30
0.0
 10
1.337401
 20
9.059007
 30
0.0
 10
1.379339
 20
8.984320
 30
0.0
  0
LWPOLYLINE
  5
151
100
AcDbEntity
  8
Warstwa_1
 62
7
100
AcDbPolyline
 90
2
 70
0
 10
1.679633
 20
9.781059
 30
0.0
 10
1.683215
 20
9.807349
 30
0.0
  0
SPLINE
  5
152
100
AcDbEntity
  8
Warstwa_1
 62
7
100
AcDbSpline
 70
8
 71
3
 72
8
 73
4
 74
0
 40
0
 40
0
 40
0
 40
0
 40
1
 40
1
 40
1
 40
1
 10
1.357229
 20
8.972910
 30
0.0
 10
1.315289
 20
9.047600
 30
0.0
 10
1.274159
 20
9.120830
 30
0.0
 10
1.192809
 20
9.204491
 30
0.0
  0
SPLINE
  5
153
100
AcDbEntity
  8
Warstwa_1
 62
7
100
AcDbSpline
 70
8
 71
3
 72
8
 73
4
 74
0
 40
0
 40
0
 40
0
 40
0
 40
1
 40
1
 40
1
 40
1
 10
1.192809
 20
9.204491
 30
0.0
 10
1.111479
 20
9.288151
 30
0.0
 10
0.989459
 20
9.382177
 30
0.0
 10
0.855246
 20
9.438743
 30
0.0
  0
SPLINE
  5
154
100
AcDbEntity
  8
Warstwa_1
 62
7
100
AcDbSpline
 70
8
 71
3
 72
8
 73
4
 74
0
 40
0
 40
0
 40
0
 40
0
 40
1
 40
1
 40
1
 40
1
 10
0.855246
 20
9.438743
 30
0.0
 10
0.721032
 20
9.495303
 30
0.0
 10
0.572532
 20
9.515363
 30
0.0
 10
0.422749
 20
9.535473
 30
0.0
  0
LWPOLYLINE
  5
155
100
AcDbEntity
  8
Warstwa_1
 62
7
100
AcDbPolyline
 90
2
 70
0
 10
1.379339
 20
8.984320
 30
0.0
 10
1.357229
 20
8.972910
 30
0.0
  0
LWPOLYLINE
  5
156
100
AcDbEntity
  8
Warstwa_1
 62
7
100
AcDbPolyline
 90
2
 70
0
 10
0.422749
 20
9.535473
 30
0.0
 10
0.426285
 20
9.559351
 30
0.0
  0
ENDSEC
  0
SECTION
  2
OBJECTS
  0
DICTIONARY
  5
C
330
0
100
AcDbDictionary
  3
ACAD_GROUP
350
D
  3
ACAD_MLINESTYLE
350
17
  0
DICTIONARY
  5
D
330
C
100
AcDbDictionary
  0
DICTIONARY
  5
1A
330
C
100
AcDbDictionary
  0
DICTIONARY
  5
17
330
C
100
AcDbDictionary
  3
STANDARD
350
18
  0
DICTIONARY
  5
19
330
C
100
AcDbDictionary
  0
ENDSEC
  0
EOF
