  0
SECTION
  2
HEADER
  9
$ACADVER
  1
AC1014
  9
$HANDSEED
  5
FFFF
  9
$MEASUREMENT
 70
     1
  0
ENDSEC
  0
SECTION
  2
TABLES
  0
TABLE
  2
VPORT
  5
8
330
0
100
AcDbSymbolTable
 70
     4
  0
VPORT
  5
2E
330
8
100
AcDbSymbolTableRecord
100
AcDbViewportTableRecord
  2
*ACTIVE
 70
     0
 10
0.0
 20
0.0
 11
1.0
 21
1.0
 12
210.0
 22
148.5
 13
0.0
 23
0.0
 14
10.0
 24
10.0
 15
10.0
 25
10.0
 16
0.0
 26
0.0
 36
1.0
 17
0.0
 27
0.0
 37
0.0
 40
341.0
 41
1.24
 42
50.0
 43
0.0
 44
0.0
 50
0.0
 51
0.0
 71
     0
 72
   100
 73
     1
 74
     3
 75
     0
 76
     0
 77
     0
 78
     0
  0
ENDTAB
  0
TABLE
  2
LTYPE
  5
5
330
0
100
AcDbSymbolTable
 70
     1
  0
LTYPE
  5
14
330
5
100
AcDbSymbolTableRecord
100
AcDbLinetypeTableRecord
  2
BYBLOCK
 70
     0
  3

 72
    65
 73
     0
 40
0.0
  0
LTYPE
  5
15
330
5
100
AcDbSymbolTableRecord
100
AcDbLinetypeTableRecord
  2
BYLAYER
 70
     0
  3

 72
    65
 73
     0
 40
0.0
  0
LTYPE
  5
16
330
5
100
AcDbSymbolTableRecord
100
AcDbLinetypeTableRecord
  2
CONTINUOUS
 70
     0
  3
Solid line
 72
    65
 73
     0
 40
0.0
  0
ENDTAB
  0
TABLE
  2
LAYER
  5
2
100
AcDbSymbolTable
 70
2
  0
LAYER
  5
50
100
AcDbSymbolTableRecord
100
AcDbLayerTableRecord
  2
0
 70
0
  6
CONTINUOUS
  0
LAYER
  5
51
100
AcDbSymbolTableRecord
100
AcDbLayerTableRecord
  2
Warstwa_1
 70
0
  6
CONTINUOUS
  0
ENDTAB
  0
TABLE
  2
STYLE
  5
3
330
0
100
AcDbSymbolTable
 70
     1
  0
STYLE
  5
11
330
3
100
AcDbSymbolTableRecord
100
AcDbTextStyleTableRecord
  2
STANDARD
 70
     0
 40
0.0
 41
1.0
 50
0.0
 71
     0
 42
2.5
  3
txt
  4

  0
ENDTAB
  0
TABLE
  2
VIEW
  5
6
330
0
100
AcDbSymbolTable
 70
     0
  0
ENDTAB
  0
TABLE
  2
UCS
  5
7
330
0
100
AcDbSymbolTable
 70
     0
  0
ENDTAB
  0
TABLE
  2
APPID
  5
9
330
0
100
AcDbSymbolTable
 70
     2
  0
APPID
  5
12
330
9
100
AcDbSymbolTableRecord
100
AcDbRegAppTableRecord
  2
ACAD
 70
     0
  0
ENDTAB
  0
TABLE
  2
DIMSTYLE
  5
A
330
0
100
AcDbSymbolTable
 70
     1
  0
DIMSTYLE
105
27
330
A
100
AcDbSymbolTableRecord
100
AcDbDimStyleTableRecord
  2
ISO-25
 70
     0
  3

  4

  5

  6

  7

 40
1.0
 41
2.5
 42
0.625
 43
3.75
 44
1.25
 45
0.0
 46
0.0
 47
0.0
 48
0.0
140
2.5
141
2.5
142
0.0
143
0.03937007874016
144
1.0
145
0.0
146
1.0
147
0.625
 71
     0
 72
     0
 73
     0
 74
     0
 75
     0
 76
     0
 77
     1
 78
     8
170
     0
171
     3
172
     1
173
     0
174
     0
175
     0
176
     0
177
     0
178
     0
270
     2
271
     2
272
     2
273
     2
274
     3
340
11
275
     0
280
     0
281
     0
282
     0
283
     0
284
     8
285
     0
286
     0
287
     3
288
     0
  0
ENDTAB
  0
TABLE
  2
BLOCK_RECORD
  5
1
330
0
100
AcDbSymbolTable
 70
     1
  0
BLOCK_RECORD
  5
1F
330
1
100
AcDbSymbolTableRecord
100
AcDbBlockTableRecord
  2
*MODEL_SPACE
  0
BLOCK_RECORD
  5
1B
330
1
100
AcDbSymbolTableRecord
100
AcDbBlockTableRecord
  2
*PAPER_SPACE
  0
ENDTAB
  0
ENDSEC
  0
SECTION
  2
BLOCKS
  0
BLOCK
  5
20
330
1F
100
AcDbEntity
  8
0
100
AcDbBlockBegin
  2
*MODEL_SPACE
 70
     0
 10
0.0
 20
0.0
 30
0.0
  3
*MODEL_SPACE
  1

  0
ENDBLK
  5
21
330
1F
100
AcDbEntity
  8
0
100
AcDbBlockEnd
  0
BLOCK
  5
1C
330
1B
100
AcDbEntity
 67
     1
  8
0
100
AcDbBlockBegin
  2
*PAPER_SPACE
  1

  0
ENDBLK
  5
1D
330
1B
100
AcDbEntity
 67
     1
  8
0
100
AcDbBlockEnd
  0
ENDSEC
  0
SECTION
  2
ENTITIES
  0
SPLINE
  5
100
100
AcDbEntity
  8
Warstwa_1
 62
7
100
AcDbSpline
 70
8
 71
3
 72
8
 73
4
 74
0
 40
0
 40
0
 40
0
 40
0
 40
1
 40
1
 40
1
 40
1
 10
68.371732
 20
265.651653
 30
0.0
 10
66.797092
 20
265.440273
 30
0.0
 10
65.210182
 20
265.229453
 30
0.0
 10
63.754682
 20
264.616036
 30
0.0
  0
SPLINE
  5
101
100
AcDbEntity
  8
Warstwa_1
 62
7
100
AcDbSpline
 70
8
 71
3
 72
8
 73
4
 74
0
 40
0
 40
0
 40
0
 40
0
 40
1
 40
1
 40
1
 40
1
 10
63.754682
 20
264.616036
 30
0.0
 10
62.299182
 20
264.002615
 30
0.0
 10
60.997412
 20
262.997841
 30
0.0
 10
60.120032
 20
262.095346
 30
0.0
  0
SPLINE
  5
102
100
AcDbEntity
  8
Warstwa_1
 62
7
100
AcDbSpline
 70
8
 71
3
 72
8
 73
4
 74
0
 40
0
 40
0
 40
0
 40
0
 40
1
 40
1
 40
1
 40
1
 10
60.120032
 20
262.095346
 30
0.0
 10
59.242632
 20
261.192850
 30
0.0
 10
58.793412
 20
260.391639
 30
0.0
 10
58.352502
 20
259.606490
 30
0.0
  0
SPLINE
  5
103
100
AcDbEntity
  8
Warstwa_1
 62
7
100
AcDbSpline
 70
8
 71
3
 72
8
 73
4
 74
0
 40
0
 40
0
 40
0
 40
0
 40
1
 40
1
 40
1
 40
1
 10
58.584912
 20
259.486635
 30
0.0
 10
59.025832
 20
260.271784
 30
0.0
 10
59.458322
 20
261.041654
 30
0.0
 10
60.313382
 20
261.921182
 30
0.0
  0
SPLINE
  5
104
100
AcDbEntity
  8
Warstwa_1
 62
7
100
AcDbSpline
 70
8
 71
3
 72
8
 73
4
 74
0
 40
0
 40
0
 40
0
 40
0
 40
1
 40
1
 40
1
 40
1
 10
60.313382
 20
261.921182
 30
0.0
 10
61.168432
 20
262.800709
 30
0.0
 10
62.451152
 20
263.789172
 30
0.0
 10
63.862102
 20
264.383817
 30
0.0
  0
SPLINE
  5
105
100
AcDbEntity
  8
Warstwa_1
 62
7
100
AcDbSpline
 70
8
 71
3
 72
8
 73
4
 74
0
 40
0
 40
0
 40
0
 40
0
 40
1
 40
1
 40
1
 40
1
 10
63.862102
 20
264.383817
 30
0.0
 10
65.273062
 20
264.978465
 30
0.0
 10
66.834202
 20
265.189328
 30
0.0
 10
68.408842
 20
265.400707
 30
0.0
  0
LWPOLYLINE
  5
106
100
AcDbEntity
  8
Warstwa_1
 62
7
100
AcDbPolyline
 90
2
 70
0
 10
58.352502
 20
259.606490
 30
0.0
 10
58.584912
 20
259.486635
 30
0.0
  0
SPLINE
  5
107
100
AcDbEntity
  8
Warstwa_1
 62
7
100
AcDbSpline
 70
8
 71
3
 72
8
 73
4
 74
0
 40
0
 40
0
 40
0
 40
0
 40
1
 40
1
 40
1
 40
1
 10
62.159472
 20
267.589033
 30
0.0
 10
61.125942
 20
267.479780
 30
0.0
 10
60.053242
 20
267.363206
 30
0.0
 10
58.715462
 20
266.543825
 30
0.0
  0
SPLINE
  5
108
100
AcDbEntity
  8
Warstwa_1
 62
7
100
AcDbSpline
 70
8
 71
3
 72
8
 73
4
 74
0
 40
0
 40
0
 40
0
 40
0
 40
1
 40
1
 40
1
 40
1
 10
58.715462
 20
266.543825
 30
0.0
 10
57.377682
 20
265.724440
 30
0.0
 10
55.773672
 20
264.217551
 30
0.0
 10
54.945102
 20
262.730593
 30
0.0
  0
SPLINE
  5
109
100
AcDbEntity
  8
Warstwa_1
 62
7
100
AcDbSpline
 70
8
 71
3
 72
8
 73
4
 74
0
 40
0
 40
0
 40
0
 40
0
 40
1
 40
1
 40
1
 40
1
 10
54.945102
 20
262.730593
 30
0.0
 10
54.116542
 20
261.243638
 30
0.0
 10
54.086762
 20
259.800738
 30
0.0
 10
54.055452
 20
258.380356
 30
0.0
  0
LWPOLYLINE
  5
10a
100
AcDbEntity
  8
Warstwa_1
 62
7
100
AcDbPolyline
 90
2
 70
0
 10
68.408842
 20
265.400707
 30
0.0
 10
68.371732
 20
265.651653
 30
0.0
  0
SPLINE
  5
10b
100
AcDbEntity
  8
Warstwa_1
 62
7
100
AcDbSpline
 70
8
 71
3
 72
8
 73
4
 74
0
 40
0
 40
0
 40
0
 40
0
 40
1
 40
1
 40
1
 40
1
 10
54.317672
 20
258.375256
 30
0.0
 10
54.348972
 20
259.795637
 30
0.0
 10
54.381672
 20
261.194164
 30
0.0
 10
55.182092
 20
262.630627
 30
0.0
  0
SPLINE
  5
10c
100
AcDbEntity
  8
Warstwa_1
 62
7
100
AcDbSpline
 70
8
 71
3
 72
8
 73
4
 74
0
 40
0
 40
0
 40
0
 40
0
 40
1
 40
1
 40
1
 40
1
 10
55.182092
 20
262.630627
 30
0.0
 10
55.982522
 20
264.067086
 30
0.0
 10
57.573092
 20
265.564967
 30
0.0
 10
58.866972
 20
266.357464
 30
0.0
  0
SPLINE
  5
10d
100
AcDbEntity
  8
Warstwa_1
 62
7
100
AcDbSpline
 70
8
 71
3
 72
8
 73
4
 74
0
 40
0
 40
0
 40
0
 40
0
 40
1
 40
1
 40
1
 40
1
 10
58.866972
 20
266.357464
 30
0.0
 10
60.160862
 20
267.149962
 30
0.0
 10
61.157012
 20
267.251068
 30
0.0
 10
62.190552
 20
267.360321
 30
0.0
  0
LWPOLYLINE
  5
10e
100
AcDbEntity
  8
Warstwa_1
 62
7
100
AcDbPolyline
 90
2
 70
0
 10
54.055452
 20
258.380356
 30
0.0
 10
54.317672
 20
258.375256
 30
0.0
  0
LWPOLYLINE
  5
10f
100
AcDbEntity
  8
Warstwa_1
 62
7
100
AcDbPolyline
 90
2
 70
0
 10
62.190552
 20
267.360321
 30
0.0
 10
62.159472
 20
267.589033
 30
0.0
  0
ENDSEC
  0
SECTION
  2
OBJECTS
  0
DICTIONARY
  5
C
330
0
100
AcDbDictionary
  3
ACAD_GROUP
350
D
  3
ACAD_MLINESTYLE
350
17
  0
DICTIONARY
  5
D
330
C
100
AcDbDictionary
  0
DICTIONARY
  5
1A
330
C
100
AcDbDictionary
  0
DICTIONARY
  5
17
330
C
100
AcDbDictionary
  3
STANDARD
350
18
  0
DICTIONARY
  5
19
330
C
100
AcDbDictionary
  0
ENDSEC
  0
EOF
