M48
;Layer_Color=9474304
;FILE_FORMAT=2:4
INCH,TZ
;TYPE=PLATED
T1F00S00C0.0118
T2F00S00C0.0280
T3F00S00C0.0354
%
T01
X1025Y525
X4275Y2025
X4025Y2525
X4275Y3025
X4025Y3525
X4275Y4025
X4025Y4525
X4275Y5025
X3775
X3275
X2775
Y6025
X3275
X3775
X4275
Y8025
X4775
X5275
X5775
X6775Y9025
X7275
X7775
X8275
X8775
X9275
X9775
X10025Y7525
X9525
X9025
X9275Y7025
X8775
X9025Y6525
X8525
X9775Y6025
X10275
X10525Y6525
X10775Y7025
X11275
X11775
X12275
X12775
X13275
X13775Y8025
X14275
X14775
X15275
X15525Y8525
X15025
X14525
X14025
X13525
X13775Y9025
X14275
X14775
X14525Y9525
X14025
X13525
X13025
X12525
X12025
X12275Y10025
X12775
X13275
X13775
X14275
X14775
X14525Y10525
X14025
X13525
X13025
X13275Y11025
X13775
X14275
X14525Y11525
X14025
X13525
X12275Y11025
X11775
X11275
X10775
X10275
X9775
X9275
X8775
X8275
X7775
X7275
X6775
X6275Y12025
X4525Y11525
X4025
X3525
X3025
X2525
X2025
Y12525
X2525
X3025
X3525
X4025
X4275Y11025
X4025Y10525
X4275Y10025
X4025Y9525
X4275Y9025
X4025Y8525
X3775Y8025
X3275
X2775
X2025Y8525
X1525
X1025
X1275Y9025
X1775
X2275
X2025Y9525
X1525
X1025
X1275Y10025
X1775
X2275
X2025Y10525
X1025
Y11525
Y12525
X1525
X1775Y13025
X1275
X1025Y13525
X4275Y15025
X4025Y15525
X6525
X7025
X7525
X8025
X8525
X9025
X9525
X10025
X10275Y14025
X9775
X9275
X9525Y13525
X9025
X9275Y13025
X8775
X10275
X10775
X11025Y13525
X11525
X12025
X12525
X13025
X13525
Y15525
X14025
X14525
X14775Y15025
X15275
X15525Y14525
X15025
X14275Y15025
X13025Y15525
X12525
X12025
X10525Y12525
X10025
X11275Y10025
X11775
X12275Y9025
X12775
X13275
X15025Y7525
X14525Y5525
X14025
X13525
X13775Y5025
X14275
X14525Y4525
X14025
X13525
X13775Y4025
X14275
X14775
X14525Y3525
X14025
X13525
X13025
X12525
X12025
X11525
X11775Y4025
X12275
X12775
X13275
Y5025
X12275
X11775
X10775
X10275
X9775
X9275
X8775
X8275
X7775
X7275
X7525Y7525
Y2525
X8025
X8525
X9025
X9525
X10025
X12025
X12525
X13025
X13525
X14025
X14525
X14775Y3025
X14275
X13775
X13275
X12775
X12275
X11275Y4025
X11525Y525
X12025
X12525
X13025
X13525
X15025
X15525
Y1525
X15025
X15275Y2025
X14775
X14275
X13775
X10525Y525
X10025
X9525
X9025
X8525
X8025
X7025Y2525
X6525
X5775Y2025
X5275
X7275Y14025
X7775
X16025Y14525
X16525
X16275Y15025
X15775
X16025Y15525
X16525
X19525
X19275Y15025
X19525Y14525
X19275Y14025
X19525Y13525
X19025
X18525
X18775Y13025
X19275
X19525Y12525
Y11525
Y10525
X19025
X18525
X18775Y10025
X19275
X19525Y9525
X19025
X18525
X19525Y8525
X19275Y8025
X19525Y7525
X19275Y7025
X19525Y6525
X19275Y6025
X19525Y5525
X19275Y5025
X18775
X19025Y4525
X19525
Y3525
Y2525
Y1525
Y525
X18525
X18025
X17525
X17025
X16525
X16025
Y1525
X16525
X17025
X17525
X18025
X18525
X18275Y2025
X17775
X17275
X16775
X16275
X15775
X16025Y2525
X16525
X17025
X17525
X17275Y3025
X16775
X16275
X16525Y3525
X16025
X16275Y4025
X15775
X17275
X18275Y3025
X18025Y5525
X18275Y6025
X17775
X18025Y6525
X17525
X18275Y7025
X16025Y8525
Y9525
Y10525
X16275Y5025
X18525Y14525
X18775Y16025
X18525Y16525
X19525
Y17525
X19275Y18025
X19525Y18525
X19025
X18525
X18775Y19025
X19275
X19525Y19525
X19025
X18525
X18775Y20025
X19275
X19525Y20525
X19025
X18525
X19275Y21025
X19525Y21525
X19275Y22025
X19525Y22525
X19025
X18525
X18775Y23025
X19275
X19525Y23525
X19025
X19525Y24525
Y25525
Y26525
X19025
X18025Y24525
X17525
X17025Y23525
X16525
X16025
X16275Y24025
Y25025
X16525Y25525
X16025
X16275Y23025
X16775
X17025Y22525
X16525
X16025
X16275Y22025
X16775
X17025Y21525
X16525
X16025
X15775Y21025
Y23025
X16275Y18025
X16525Y17525
X16025
X16275Y17025
X15775
X16025Y16525
X16525
X16275Y16025
X14775
X14275
X13775
X13275
X12775
X12275
X11775
X12025Y16525
X12525
X13025
X13525
X14025
X14525
X14775Y17025
X14275
X13775
X13275
X12775
X13525Y17525
X14025
X14525
X14275Y18025
X13775
X14025Y18525
X14525
X13525
X12025Y17525
X11525
X11025
X10525
X10025
X9525
X9025
X8525
X8025
X7525
X7025
X4025
X4275Y18025
X3775
X3275
Y19025
X3775
X4275
Y21025
X4525Y21525
X5025
X5525
X7025
X7525
X8025
X8525
X9025
X9525
X10025
X9775Y20025
X9275
Y19025
X9775
X10275
X7775Y20025
Y25025
X8275
X8775
X9275
X9775
X10275
X10525Y25525
X11025
X10025
X9525
X9025
X8525
X8025
X7525
X7025
X6525
X6025
X5525
X5025
X4525
X4775Y25025
X5275
X5775
X6275
X6775
X7275
X4275
Y24025
X3775
X3275
X2775
X1775
X1275
X775
X1025Y23525
X525
X775Y23025
X1275Y22025
X1025Y21525
X1275Y21025
X1775
X2025Y20525
X1775Y20025
X1275
X3525Y21525
X4025
X4275Y22025
Y23025
X3025Y25525
X525
X775Y26025
X525Y26525
X775Y25025
X525Y24525
X4275Y17025
X4025Y16525
X4275Y16025
X11525Y16525
X12025Y21525
X12525
X13025
X13525
X14025
X14525
X14775Y22025
X14275
X13775
X13275
X12775
X12275
X11775
X12025Y22525
X12525
X13025
X13525
X14025
X14525
X14775Y23025
X14275
X13775
X13275
X13525Y23525
X14025
X14525
X14275Y24025
X13775
X14025Y24525
X14525
X14775Y21025
X15275
Y20025
X14775
X14275Y21025
X13775
X11525Y22525
T02
X591Y866
X10945
X13646Y14922
X16200Y13850
X18898Y15394
X15700Y7650
X16650Y21000
X16950Y25250
X4016Y25394
X3622Y24921
X1208Y20551
T03
X2700Y2386
Y3386
Y4386
X1243Y4900
Y5900
Y6900
Y7900
X2700Y8771
Y9771
Y10771
X1511Y10900
Y11900
X2700Y15307
X18850Y12000
Y11000
Y8650
Y7650
Y6650
Y5650
Y3950
Y2950
Y1950
Y950
X17771Y25150
Y26150
X2700Y23200
Y22200
Y21200
X1243Y19150
Y18150
Y17150
Y16150
X2700Y16307
Y17307
M30
