G04*
G04 #@! TF.GenerationSoftware,Altium Limited,Altium Designer,20.2.4 (192)*
G04*
G04 Layer_Color=8388736*
%FSLAX25Y25*%
%MOIN*%
G70*
G04*
G04 #@! TF.SameCoordinates,3D83C255-6E39-4F9F-9407-39FC17F4EAEB*
G04*
G04*
G04 #@! TF.FilePolarity,Negative*
G04*
G01*
G75*
%ADD13R,0.01968X0.04724*%
%ADD14R,0.11417X0.04724*%
%ADD18R,0.01772X0.01181*%
%ADD22R,0.03740X0.04134*%
%ADD23R,0.04134X0.03740*%
%ADD24R,0.02953X0.02559*%
%ADD25R,0.05315X0.05315*%
%ADD26R,0.05315X0.05315*%
%ADD27R,0.06890X0.13189*%
%ADD28C,0.06496*%
%ADD29R,0.06496X0.06496*%
%ADD30C,0.02953*%
%ADD31C,0.05591*%
D13*
X126272Y207693D02*
D03*
X123122Y244307D02*
D03*
X66429Y207693D02*
D03*
X69579D02*
D03*
X72728D02*
D03*
X75878D02*
D03*
X79028D02*
D03*
X82177D02*
D03*
X85327D02*
D03*
X88476D02*
D03*
X91626D02*
D03*
X107374D02*
D03*
X110524D02*
D03*
X113673D02*
D03*
X116823D02*
D03*
X119972D02*
D03*
X123122D02*
D03*
X129421D02*
D03*
X132571D02*
D03*
Y244307D02*
D03*
X129421D02*
D03*
X126272D02*
D03*
X119972D02*
D03*
X116823D02*
D03*
X113673D02*
D03*
X110524D02*
D03*
X107374D02*
D03*
X91626D02*
D03*
X88476D02*
D03*
X85327D02*
D03*
X82177D02*
D03*
X79028D02*
D03*
X75878D02*
D03*
X72728D02*
D03*
X69579D02*
D03*
X66429D02*
D03*
X65508Y184301D02*
D03*
X68657D02*
D03*
X71807D02*
D03*
X74957D02*
D03*
X78106D02*
D03*
X81256D02*
D03*
X84405D02*
D03*
X87555D02*
D03*
X90705D02*
D03*
X106453D02*
D03*
X109602D02*
D03*
X112752D02*
D03*
X115902D02*
D03*
X119051D02*
D03*
X122201D02*
D03*
X125350D02*
D03*
X128500D02*
D03*
X131650D02*
D03*
Y147687D02*
D03*
X128500D02*
D03*
X125350D02*
D03*
X122201D02*
D03*
X119051D02*
D03*
X115902D02*
D03*
X112752D02*
D03*
X109602D02*
D03*
X106453D02*
D03*
X90705D02*
D03*
X87555D02*
D03*
X84405D02*
D03*
X81256D02*
D03*
X78106D02*
D03*
X74957D02*
D03*
X71807D02*
D03*
X68657D02*
D03*
X65508D02*
D03*
X125350Y81469D02*
D03*
X122201Y118083D02*
D03*
X65508Y81469D02*
D03*
X68657D02*
D03*
X71807D02*
D03*
X74957D02*
D03*
X78106D02*
D03*
X81256D02*
D03*
X84405D02*
D03*
X87555D02*
D03*
X90705D02*
D03*
X106453D02*
D03*
X109602D02*
D03*
X112752D02*
D03*
X115902D02*
D03*
X119051D02*
D03*
X122201D02*
D03*
X128500D02*
D03*
X131650D02*
D03*
Y118083D02*
D03*
X128500D02*
D03*
X125350D02*
D03*
X119051D02*
D03*
X115902D02*
D03*
X112752D02*
D03*
X109602D02*
D03*
X106453D02*
D03*
X90705D02*
D03*
X87555D02*
D03*
X84405D02*
D03*
X81256D02*
D03*
X78106D02*
D03*
X74957D02*
D03*
X71807D02*
D03*
X68657D02*
D03*
X65508D02*
D03*
Y55152D02*
D03*
X68657D02*
D03*
X71807D02*
D03*
X74957D02*
D03*
X78106D02*
D03*
X81256D02*
D03*
X84405D02*
D03*
X87555D02*
D03*
X90705D02*
D03*
X106453D02*
D03*
X109602D02*
D03*
X112752D02*
D03*
X115902D02*
D03*
X119051D02*
D03*
X122201D02*
D03*
X125350D02*
D03*
X128500D02*
D03*
X131650D02*
D03*
Y18538D02*
D03*
X128500D02*
D03*
X125350D02*
D03*
X122201D02*
D03*
X119051D02*
D03*
X115902D02*
D03*
X112752D02*
D03*
X109602D02*
D03*
X106453D02*
D03*
X90705D02*
D03*
X87555D02*
D03*
X84405D02*
D03*
X81256D02*
D03*
X78106D02*
D03*
X74957D02*
D03*
X71807D02*
D03*
X68657D02*
D03*
X65508D02*
D03*
D14*
X99500Y207693D02*
D03*
Y244307D02*
D03*
X98579Y184301D02*
D03*
Y147687D02*
D03*
Y81469D02*
D03*
Y118083D02*
D03*
Y55152D02*
D03*
Y18538D02*
D03*
D18*
X25667Y255872D02*
D03*
Y257840D02*
D03*
Y259808D02*
D03*
X20352D02*
D03*
Y257840D02*
D03*
Y255872D02*
D03*
D22*
X134256Y12787D02*
D03*
X128744D02*
D03*
X134756Y75500D02*
D03*
X129244D02*
D03*
X143756Y12787D02*
D03*
X138244D02*
D03*
X144756Y75500D02*
D03*
X139244D02*
D03*
X138244Y8287D02*
D03*
X143756D02*
D03*
X139244Y70500D02*
D03*
X144756D02*
D03*
X144256Y137500D02*
D03*
X138744D02*
D03*
X144256Y142000D02*
D03*
X138744D02*
D03*
X134256D02*
D03*
X128744D02*
D03*
X101575Y195669D02*
D03*
X107087D02*
D03*
X154744Y63000D02*
D03*
X160256D02*
D03*
X154744Y126500D02*
D03*
X160256D02*
D03*
X154744Y194000D02*
D03*
X160256D02*
D03*
X45634Y262500D02*
D03*
X40122D02*
D03*
X186256Y179500D02*
D03*
X180744D02*
D03*
X53744Y42000D02*
D03*
X59256D02*
D03*
Y32787D02*
D03*
X53744D02*
D03*
X59256Y24012D02*
D03*
X53744D02*
D03*
Y106000D02*
D03*
X59256D02*
D03*
X53744Y97075D02*
D03*
X59256D02*
D03*
X53937Y87402D02*
D03*
X59449D02*
D03*
X53744Y172894D02*
D03*
X59256D02*
D03*
X53744Y162681D02*
D03*
X59256D02*
D03*
X53744Y153618D02*
D03*
X59256D02*
D03*
X54244Y232500D02*
D03*
X59756D02*
D03*
X54244Y222394D02*
D03*
X59756D02*
D03*
X97244Y195669D02*
D03*
X91732D02*
D03*
X119244Y142000D02*
D03*
X124756D02*
D03*
X119244Y75500D02*
D03*
X124756D02*
D03*
Y12787D02*
D03*
X119244D02*
D03*
X16667Y258000D02*
D03*
X11155D02*
D03*
X54244Y210968D02*
D03*
X59756D02*
D03*
X11155Y253500D02*
D03*
X16667D02*
D03*
X11155Y262894D02*
D03*
X16667D02*
D03*
X26256Y251000D02*
D03*
X20744D02*
D03*
D23*
X139500Y200532D02*
D03*
Y206043D02*
D03*
X144000Y200532D02*
D03*
Y206043D02*
D03*
X153000Y253744D02*
D03*
Y259256D02*
D03*
X51000Y245256D02*
D03*
Y239744D02*
D03*
X55500Y239744D02*
D03*
Y245256D02*
D03*
X186221Y169291D02*
D03*
Y174803D02*
D03*
X191000Y169244D02*
D03*
Y174756D02*
D03*
X50000Y185256D02*
D03*
Y179744D02*
D03*
Y119000D02*
D03*
Y113488D02*
D03*
X50000Y50532D02*
D03*
Y56043D02*
D03*
X54500Y179744D02*
D03*
Y185256D02*
D03*
Y113488D02*
D03*
Y119000D02*
D03*
X54500Y56043D02*
D03*
Y50532D02*
D03*
X60000Y239744D02*
D03*
Y245256D02*
D03*
X59000Y179744D02*
D03*
Y185256D02*
D03*
Y113488D02*
D03*
Y119000D02*
D03*
Y56043D02*
D03*
Y50532D02*
D03*
X186500Y217256D02*
D03*
Y211744D02*
D03*
X18500Y221756D02*
D03*
Y216244D02*
D03*
X11352Y243616D02*
D03*
Y249127D02*
D03*
X15852Y243616D02*
D03*
Y249127D02*
D03*
X169500Y239681D02*
D03*
Y245193D02*
D03*
Y180675D02*
D03*
Y186187D02*
D03*
Y113457D02*
D03*
Y118969D02*
D03*
Y49744D02*
D03*
Y55256D02*
D03*
D24*
X22031Y247000D02*
D03*
X25969D02*
D03*
D25*
X36106Y43787D02*
D03*
Y33543D02*
D03*
X35976Y22799D02*
D03*
X36106Y106500D02*
D03*
X35976Y97043D02*
D03*
X36102Y86614D02*
D03*
X35976Y172992D02*
D03*
Y162256D02*
D03*
X36220Y151969D02*
D03*
X36500Y233000D02*
D03*
X36370Y222756D02*
D03*
Y210937D02*
D03*
D26*
X47366Y43787D02*
D03*
Y33543D02*
D03*
X47236Y22799D02*
D03*
X47366Y106500D02*
D03*
X47236Y97043D02*
D03*
X47362Y86614D02*
D03*
X47236Y172992D02*
D03*
Y162256D02*
D03*
X47480Y151969D02*
D03*
X47760Y233000D02*
D03*
X47630Y222756D02*
D03*
Y210937D02*
D03*
D27*
X153000Y220783D02*
D03*
Y240469D02*
D03*
Y160778D02*
D03*
Y180463D02*
D03*
Y94559D02*
D03*
Y114244D02*
D03*
Y51319D02*
D03*
Y31634D02*
D03*
D28*
X188500Y110000D02*
D03*
X177713Y261500D02*
D03*
X188500Y56500D02*
D03*
Y66500D02*
D03*
Y76500D02*
D03*
X12425Y49000D02*
D03*
Y59000D02*
D03*
Y69000D02*
D03*
Y161500D02*
D03*
Y171500D02*
D03*
Y181500D02*
D03*
X27000Y23862D02*
D03*
Y33862D02*
D03*
Y97713D02*
D03*
Y87713D02*
D03*
Y163075D02*
D03*
Y153075D02*
D03*
Y222000D02*
D03*
Y212000D02*
D03*
X188500Y29500D02*
D03*
Y19500D02*
D03*
Y9500D02*
D03*
X15106Y109000D02*
D03*
D29*
X188500Y120000D02*
D03*
X177713Y251500D02*
D03*
X188500Y86500D02*
D03*
X12425Y79000D02*
D03*
Y191500D02*
D03*
X27000Y43862D02*
D03*
Y107713D02*
D03*
Y173075D02*
D03*
Y232000D02*
D03*
X188500Y39500D02*
D03*
X15106Y119000D02*
D03*
D30*
X195250Y265250D02*
D03*
Y255250D02*
D03*
Y245250D02*
D03*
Y235250D02*
D03*
Y225250D02*
D03*
Y215250D02*
D03*
Y205250D02*
D03*
Y195250D02*
D03*
Y185250D02*
D03*
Y175250D02*
D03*
Y165250D02*
D03*
Y155250D02*
D03*
Y145250D02*
D03*
Y135250D02*
D03*
Y125250D02*
D03*
Y115250D02*
D03*
Y105250D02*
D03*
Y95250D02*
D03*
Y85250D02*
D03*
Y75250D02*
D03*
Y65250D02*
D03*
Y55250D02*
D03*
Y45250D02*
D03*
Y35250D02*
D03*
Y25250D02*
D03*
Y15250D02*
D03*
Y5250D02*
D03*
X190250Y265250D02*
D03*
Y235250D02*
D03*
X192750Y230250D02*
D03*
X190250Y225250D02*
D03*
X192750Y220250D02*
D03*
Y210250D02*
D03*
X190250Y205250D02*
D03*
X192750Y200250D02*
D03*
X190250Y195250D02*
D03*
X192750Y190250D02*
D03*
X190250Y185250D02*
D03*
X192750Y180250D02*
D03*
Y150250D02*
D03*
Y140250D02*
D03*
X190250Y135250D02*
D03*
X192750Y130250D02*
D03*
X190250Y105250D02*
D03*
X192750Y100250D02*
D03*
X190250Y95250D02*
D03*
X192750Y80250D02*
D03*
Y70250D02*
D03*
Y60250D02*
D03*
Y50250D02*
D03*
X190250Y45250D02*
D03*
X187750Y230250D02*
D03*
X185250Y225250D02*
D03*
Y205250D02*
D03*
X187750Y200250D02*
D03*
X185250Y195250D02*
D03*
X187750Y190250D02*
D03*
X185250Y185250D02*
D03*
Y165250D02*
D03*
X187750Y160250D02*
D03*
X185250Y145250D02*
D03*
Y135250D02*
D03*
X187750Y130250D02*
D03*
X185250Y105250D02*
D03*
X187750Y100250D02*
D03*
X185250Y95250D02*
D03*
X187750Y50250D02*
D03*
X185250Y15250D02*
D03*
Y5250D02*
D03*
X180250Y245250D02*
D03*
X182750Y70250D02*
D03*
X180250Y65250D02*
D03*
X182750Y60250D02*
D03*
X180250Y55250D02*
D03*
X182750Y30250D02*
D03*
Y20250D02*
D03*
X180250Y15250D02*
D03*
Y5250D02*
D03*
X175250Y245250D02*
D03*
Y65250D02*
D03*
X177750Y60250D02*
D03*
X175250Y25250D02*
D03*
X177750Y20250D02*
D03*
X175250Y15250D02*
D03*
Y5250D02*
D03*
X170250Y235250D02*
D03*
Y225250D02*
D03*
Y215250D02*
D03*
X172750Y40250D02*
D03*
Y30250D02*
D03*
X170250Y25250D02*
D03*
X172750Y20250D02*
D03*
X170250Y15250D02*
D03*
Y5250D02*
D03*
X165250Y255250D02*
D03*
Y235250D02*
D03*
X167750Y230250D02*
D03*
X165250Y225250D02*
D03*
X167750Y220250D02*
D03*
X165250Y215250D02*
D03*
Y175250D02*
D03*
Y165250D02*
D03*
Y155250D02*
D03*
Y145250D02*
D03*
Y35250D02*
D03*
X167750Y30250D02*
D03*
X165250Y25250D02*
D03*
X167750Y20250D02*
D03*
X165250Y15250D02*
D03*
Y5250D02*
D03*
X160250Y255250D02*
D03*
X162750Y250250D02*
D03*
Y240250D02*
D03*
X160250Y235250D02*
D03*
X162750Y230250D02*
D03*
X160250Y225250D02*
D03*
X162750Y220250D02*
D03*
X160250Y215250D02*
D03*
X162750Y180250D02*
D03*
X160250Y175250D02*
D03*
X162750Y170250D02*
D03*
X160250Y165250D02*
D03*
X162750Y160250D02*
D03*
X160250Y155250D02*
D03*
X162750Y150250D02*
D03*
X160250Y145250D02*
D03*
Y105250D02*
D03*
Y95250D02*
D03*
Y85250D02*
D03*
X162750Y50250D02*
D03*
Y40250D02*
D03*
X160250Y35250D02*
D03*
X162750Y30250D02*
D03*
X160250Y25250D02*
D03*
X162750Y20250D02*
D03*
X160250Y15250D02*
D03*
Y5250D02*
D03*
X157750Y230250D02*
D03*
Y210250D02*
D03*
Y170250D02*
D03*
Y150250D02*
D03*
X155250Y145250D02*
D03*
Y85250D02*
D03*
X157750Y40250D02*
D03*
Y20250D02*
D03*
X155250Y15250D02*
D03*
Y5250D02*
D03*
X152750Y210250D02*
D03*
Y200250D02*
D03*
Y150250D02*
D03*
X150250Y145250D02*
D03*
Y85250D02*
D03*
X152750Y80250D02*
D03*
X150250Y75250D02*
D03*
X152750Y20250D02*
D03*
X150250Y15250D02*
D03*
Y5250D02*
D03*
X145250Y245250D02*
D03*
Y235250D02*
D03*
X147750Y230250D02*
D03*
X145250Y225250D02*
D03*
X147750Y220250D02*
D03*
X145250Y215250D02*
D03*
X147750Y210250D02*
D03*
Y200250D02*
D03*
X145250Y185250D02*
D03*
Y175250D02*
D03*
X147750Y170250D02*
D03*
X145250Y165250D02*
D03*
X147750Y160250D02*
D03*
X145250Y155250D02*
D03*
X147750Y150250D02*
D03*
X145250Y115250D02*
D03*
Y105250D02*
D03*
X147750Y100250D02*
D03*
X145250Y95250D02*
D03*
X147750Y90250D02*
D03*
X145250Y85250D02*
D03*
X147750Y80250D02*
D03*
X145250Y55250D02*
D03*
Y45250D02*
D03*
X147750Y40250D02*
D03*
X145250Y35250D02*
D03*
X147750Y30250D02*
D03*
X145250Y25250D02*
D03*
X147750Y20250D02*
D03*
X140250Y245250D02*
D03*
X142750Y240250D02*
D03*
X140250Y235250D02*
D03*
X142750Y230250D02*
D03*
X140250Y225250D02*
D03*
X142750Y220250D02*
D03*
X140250Y215250D02*
D03*
X142750Y210250D02*
D03*
X140250Y185250D02*
D03*
X142750Y180250D02*
D03*
X140250Y175250D02*
D03*
X142750Y170250D02*
D03*
X140250Y165250D02*
D03*
X142750Y160250D02*
D03*
X140250Y155250D02*
D03*
X142750Y150250D02*
D03*
X140250Y115250D02*
D03*
X142750Y110250D02*
D03*
X140250Y105250D02*
D03*
X142750Y100250D02*
D03*
X140250Y95250D02*
D03*
X142750Y90250D02*
D03*
X140250Y85250D02*
D03*
X142750Y80250D02*
D03*
X140250Y55250D02*
D03*
X142750Y50250D02*
D03*
X140250Y45250D02*
D03*
X142750Y40250D02*
D03*
X140250Y35250D02*
D03*
X142750Y30250D02*
D03*
X140250Y25250D02*
D03*
X142750Y20250D02*
D03*
X137750Y240250D02*
D03*
X135250Y235250D02*
D03*
X137750Y230250D02*
D03*
X135250Y225250D02*
D03*
X137750Y220250D02*
D03*
X135250Y215250D02*
D03*
X137750Y210250D02*
D03*
X135250Y185250D02*
D03*
X137750Y180250D02*
D03*
X135250Y175250D02*
D03*
X137750Y170250D02*
D03*
X135250Y165250D02*
D03*
X137750Y160250D02*
D03*
X135250Y155250D02*
D03*
Y135250D02*
D03*
Y115250D02*
D03*
X137750Y110250D02*
D03*
X135250Y105250D02*
D03*
X137750Y100250D02*
D03*
X135250Y95250D02*
D03*
X137750Y90250D02*
D03*
X135250Y85250D02*
D03*
X137750Y80250D02*
D03*
X135250Y55250D02*
D03*
X137750Y50250D02*
D03*
X135250Y45250D02*
D03*
X137750Y40250D02*
D03*
X135250Y35250D02*
D03*
X137750Y30250D02*
D03*
X135250Y25250D02*
D03*
X137750Y20250D02*
D03*
X135250Y5250D02*
D03*
X132750Y230250D02*
D03*
X130250Y225250D02*
D03*
X132750Y220250D02*
D03*
X130250Y215250D02*
D03*
X132750Y170250D02*
D03*
X130250Y165250D02*
D03*
X132750Y160250D02*
D03*
X130250Y155250D02*
D03*
Y135250D02*
D03*
X132750Y110250D02*
D03*
X130250Y105250D02*
D03*
X132750Y100250D02*
D03*
X130250Y95250D02*
D03*
X132750Y90250D02*
D03*
Y70250D02*
D03*
Y50250D02*
D03*
Y40250D02*
D03*
X130250Y35250D02*
D03*
X132750Y30250D02*
D03*
X130250Y25250D02*
D03*
Y5250D02*
D03*
X125250Y225250D02*
D03*
X127750Y220250D02*
D03*
X125250Y215250D02*
D03*
X127750Y170250D02*
D03*
X125250Y165250D02*
D03*
X127750Y160250D02*
D03*
X125250Y155250D02*
D03*
Y135250D02*
D03*
X127750Y100250D02*
D03*
X125250Y95250D02*
D03*
X127750Y90250D02*
D03*
Y70250D02*
D03*
Y40250D02*
D03*
X125250Y35250D02*
D03*
X127750Y30250D02*
D03*
X125250Y25250D02*
D03*
Y5250D02*
D03*
X120250Y225250D02*
D03*
X122750Y220250D02*
D03*
X120250Y215250D02*
D03*
Y175250D02*
D03*
Y165250D02*
D03*
X122750Y160250D02*
D03*
X120250Y155250D02*
D03*
Y135250D02*
D03*
X122750Y110250D02*
D03*
Y100250D02*
D03*
X120250Y95250D02*
D03*
X122750Y90250D02*
D03*
Y70250D02*
D03*
Y50250D02*
D03*
Y40250D02*
D03*
X120250Y35250D02*
D03*
X122750Y30250D02*
D03*
X120250Y25250D02*
D03*
Y5250D02*
D03*
X115250Y225250D02*
D03*
X117750Y220250D02*
D03*
X115250Y175250D02*
D03*
Y165250D02*
D03*
X117750Y160250D02*
D03*
X115250Y135250D02*
D03*
X117750Y110250D02*
D03*
Y100250D02*
D03*
Y70250D02*
D03*
Y50250D02*
D03*
Y40250D02*
D03*
X115250Y35250D02*
D03*
Y5250D02*
D03*
X110250Y255250D02*
D03*
Y175250D02*
D03*
Y135250D02*
D03*
X112750Y110250D02*
D03*
Y100250D02*
D03*
Y70250D02*
D03*
Y40250D02*
D03*
X105250Y255250D02*
D03*
Y175250D02*
D03*
X107750Y130250D02*
D03*
X105250Y125250D02*
D03*
X107750Y110250D02*
D03*
Y70250D02*
D03*
X105250Y65250D02*
D03*
X107750Y50250D02*
D03*
X105250Y5250D02*
D03*
X100250Y255250D02*
D03*
X102750Y250250D02*
D03*
X100250Y215250D02*
D03*
X102750Y190250D02*
D03*
X100250Y175250D02*
D03*
Y155250D02*
D03*
X102750Y140250D02*
D03*
Y130250D02*
D03*
X100250Y125250D02*
D03*
X102750Y110250D02*
D03*
X100250Y75250D02*
D03*
X102750Y60250D02*
D03*
Y50250D02*
D03*
X100250Y25250D02*
D03*
Y5250D02*
D03*
X95250Y255250D02*
D03*
X97750Y250250D02*
D03*
X95250Y215250D02*
D03*
X97750Y200250D02*
D03*
Y190250D02*
D03*
X95250Y175250D02*
D03*
Y155250D02*
D03*
X97750Y140250D02*
D03*
X95250Y135250D02*
D03*
X97750Y110250D02*
D03*
Y90250D02*
D03*
X95250Y75250D02*
D03*
X97750Y60250D02*
D03*
Y50250D02*
D03*
X95250Y25250D02*
D03*
Y5250D02*
D03*
X90250Y255250D02*
D03*
X92750Y250250D02*
D03*
X90250Y215250D02*
D03*
X92750Y200250D02*
D03*
Y190250D02*
D03*
X90250Y175250D02*
D03*
Y155250D02*
D03*
X92750Y140250D02*
D03*
X90250Y135250D02*
D03*
X92750Y130250D02*
D03*
Y110250D02*
D03*
Y90250D02*
D03*
X90250Y75250D02*
D03*
X92750Y70250D02*
D03*
X90250Y65250D02*
D03*
X92750Y50250D02*
D03*
X90250Y25250D02*
D03*
Y5250D02*
D03*
X85250Y255250D02*
D03*
X87750Y250250D02*
D03*
X85250Y215250D02*
D03*
Y175250D02*
D03*
Y155250D02*
D03*
X87750Y130250D02*
D03*
Y110250D02*
D03*
Y90250D02*
D03*
Y70250D02*
D03*
X85250Y65250D02*
D03*
X87750Y50250D02*
D03*
X85250Y25250D02*
D03*
Y5250D02*
D03*
X80250Y255250D02*
D03*
X82750Y250250D02*
D03*
X80250Y215250D02*
D03*
Y175250D02*
D03*
Y155250D02*
D03*
X82750Y110250D02*
D03*
Y90250D02*
D03*
Y50250D02*
D03*
X80250Y25250D02*
D03*
Y5250D02*
D03*
X75250Y255250D02*
D03*
X77750Y250250D02*
D03*
X75250Y215250D02*
D03*
X77750Y200250D02*
D03*
X75250Y175250D02*
D03*
Y155250D02*
D03*
X77750Y140250D02*
D03*
Y110250D02*
D03*
Y90250D02*
D03*
X75250Y75250D02*
D03*
X77750Y50250D02*
D03*
X75250Y25250D02*
D03*
X70250Y255250D02*
D03*
X72750Y250250D02*
D03*
X70250Y215250D02*
D03*
Y175250D02*
D03*
Y155250D02*
D03*
X72750Y140250D02*
D03*
Y110250D02*
D03*
Y90250D02*
D03*
Y50250D02*
D03*
X70250Y25250D02*
D03*
X65250Y255250D02*
D03*
X67750Y250250D02*
D03*
X65250Y155250D02*
D03*
X67750Y110250D02*
D03*
Y90250D02*
D03*
X65250Y25250D02*
D03*
X60250Y255250D02*
D03*
X62750Y250250D02*
D03*
Y120250D02*
D03*
X55250Y255250D02*
D03*
X57750Y250250D02*
D03*
X55250Y215250D02*
D03*
X57750Y80250D02*
D03*
Y20250D02*
D03*
X50250Y255250D02*
D03*
X52750Y250250D02*
D03*
X50250Y215250D02*
D03*
X52750Y80250D02*
D03*
Y20250D02*
D03*
X45250Y255250D02*
D03*
X47750Y250250D02*
D03*
X45250Y215250D02*
D03*
Y115250D02*
D03*
X47750Y80250D02*
D03*
X42750Y250250D02*
D03*
Y240250D02*
D03*
Y230250D02*
D03*
Y220250D02*
D03*
X40250Y215250D02*
D03*
X42750Y210250D02*
D03*
Y190250D02*
D03*
Y180250D02*
D03*
X40250Y175250D02*
D03*
X42750Y170250D02*
D03*
X40250Y165250D02*
D03*
X42750Y160250D02*
D03*
X40250Y155250D02*
D03*
X42750Y150250D02*
D03*
X40250Y125250D02*
D03*
Y115250D02*
D03*
X42750Y110250D02*
D03*
X40250Y105250D02*
D03*
X42750Y100250D02*
D03*
X40250Y95250D02*
D03*
X42750Y90250D02*
D03*
X40250Y85250D02*
D03*
X42750Y80250D02*
D03*
Y60250D02*
D03*
Y50250D02*
D03*
X40250Y45250D02*
D03*
X42750Y40250D02*
D03*
X40250Y35250D02*
D03*
X42750Y30250D02*
D03*
X40250Y25250D02*
D03*
X42750Y20250D02*
D03*
X37750Y240250D02*
D03*
X35250Y215250D02*
D03*
X37750Y190250D02*
D03*
Y180250D02*
D03*
X35250Y125250D02*
D03*
Y115250D02*
D03*
X37750Y80250D02*
D03*
Y60250D02*
D03*
Y50250D02*
D03*
X30250Y255250D02*
D03*
X32750Y240250D02*
D03*
Y190250D02*
D03*
Y180250D02*
D03*
X30250Y125250D02*
D03*
Y115250D02*
D03*
X32750Y80250D02*
D03*
Y60250D02*
D03*
Y50250D02*
D03*
X27750Y240250D02*
D03*
X25250Y125250D02*
D03*
Y115250D02*
D03*
X27750Y80250D02*
D03*
Y60250D02*
D03*
Y50250D02*
D03*
X20250Y205250D02*
D03*
Y125250D02*
D03*
Y115250D02*
D03*
Y105250D02*
D03*
X22750Y100250D02*
D03*
X20250Y95250D02*
D03*
X22750Y90250D02*
D03*
X20250Y85250D02*
D03*
X17750Y240250D02*
D03*
Y210250D02*
D03*
Y200250D02*
D03*
Y130250D02*
D03*
X15250Y125250D02*
D03*
X17750Y100250D02*
D03*
X15250Y95250D02*
D03*
X17750Y90250D02*
D03*
X15250Y85250D02*
D03*
X12750Y240250D02*
D03*
X10250Y235250D02*
D03*
X12750Y220250D02*
D03*
X10250Y215250D02*
D03*
X12750Y210250D02*
D03*
Y200250D02*
D03*
X10250Y135250D02*
D03*
X12750Y130250D02*
D03*
X10250Y125250D02*
D03*
Y115250D02*
D03*
Y105250D02*
D03*
X12750Y100250D02*
D03*
X10250Y95250D02*
D03*
X12750Y90250D02*
D03*
X10250Y85250D02*
D03*
Y5250D02*
D03*
X5250Y265250D02*
D03*
X7750Y260250D02*
D03*
X5250Y255250D02*
D03*
X7750Y250250D02*
D03*
X5250Y245250D02*
D03*
X7750Y240250D02*
D03*
X5250Y235250D02*
D03*
X7750Y230250D02*
D03*
D31*
X36220Y249213D02*
D03*
X40157Y253937D02*
D03*
X12082Y205512D02*
D03*
X136458Y149219D02*
D03*
X5906Y8661D02*
D03*
X109449D02*
D03*
X188976Y153937D02*
D03*
X162000Y138500D02*
D03*
X157000Y76500D02*
D03*
X166500Y210000D02*
D03*
X169500Y252500D02*
D03*
M02*
