G04*
G04 #@! TF.GenerationSoftware,Altium Limited,Altium Designer,20.2.4 (192)*
G04*
G04 Layer_Color=65535*
%FSLAX25Y25*%
%MOIN*%
G70*
G04*
G04 #@! TF.SameCoordinates,3D83C255-6E39-4F9F-9407-39FC17F4EAEB*
G04*
G04*
G04 #@! TF.FilePolarity,Positive*
G04*
G01*
G75*
%ADD10C,0.00984*%
%ADD11C,0.00787*%
%ADD12C,0.00591*%
D10*
X66921Y203067D02*
X66183Y203493D01*
Y202641D01*
X66921Y203067D01*
X29210Y255872D02*
X28472Y256298D01*
Y255445D01*
X29210Y255872D01*
X66000Y143061D02*
X65262Y143487D01*
Y142635D01*
X66000Y143061D01*
Y76843D02*
X65262Y77269D01*
Y76417D01*
X66000Y76843D01*
Y13912D02*
X65262Y14338D01*
Y13486D01*
X66000Y13912D01*
D11*
X62886Y211039D02*
Y240961D01*
X135031D02*
X136114D01*
X62886D02*
X63968D01*
X136114Y211039D02*
Y240961D01*
X135031Y211039D02*
X136114D01*
X62886D02*
X63968D01*
X28331Y246409D02*
Y247590D01*
X22714Y254493D02*
X23305D01*
X22714Y261186D02*
X23305D01*
X20451Y253903D02*
X25569D01*
X20451Y261777D02*
X25569D01*
X193500Y105000D02*
Y125000D01*
X183500D02*
X193500D01*
X183500Y105000D02*
Y125000D01*
Y105000D02*
X193500D01*
X172713Y266500D02*
X182713D01*
Y246500D02*
Y266500D01*
X172713Y246500D02*
X182713D01*
X172713D02*
Y266500D01*
X183500Y91500D02*
X193500D01*
Y51500D02*
Y91500D01*
X183500Y51500D02*
Y91500D01*
Y51500D02*
X193500D01*
X7425Y84000D02*
X17425D01*
Y44000D02*
Y84000D01*
X7425Y44000D02*
Y84000D01*
Y44000D02*
X17425D01*
X7425Y196500D02*
X17425D01*
Y156500D02*
Y196500D01*
X7425Y156500D02*
Y196500D01*
Y156500D02*
X17425D01*
X22000Y48862D02*
X32000D01*
Y18862D02*
Y48862D01*
X22000Y18862D02*
X32000D01*
X22000D02*
Y48862D01*
Y82713D02*
Y112713D01*
Y82713D02*
X32000D01*
Y112713D01*
X22000D02*
X32000D01*
X22000Y148075D02*
Y178075D01*
Y148075D02*
X32000D01*
Y178075D01*
X22000D02*
X32000D01*
X22000Y207000D02*
Y237000D01*
Y207000D02*
X32000D01*
Y237000D01*
X22000D02*
X32000D01*
X183500Y4500D02*
X193500D01*
X183500D02*
Y44500D01*
X193500Y4500D02*
Y44500D01*
X183500D02*
X193500D01*
X10106Y104000D02*
X20106D01*
X10106D02*
Y124000D01*
X20106D01*
Y104000D02*
Y124000D01*
X43311Y41819D02*
Y45756D01*
X40555Y45362D02*
X43311Y43787D01*
X40555Y41819D02*
X43311Y43787D01*
X40555Y41819D02*
Y45362D01*
X43311Y43787D02*
X44098D01*
X39374D02*
X40555D01*
X43311Y31575D02*
Y35512D01*
X40555Y35118D02*
X43311Y33543D01*
X40555Y31575D02*
X43311Y33543D01*
X40555Y31575D02*
Y35118D01*
X43311Y33543D02*
X44098D01*
X39374D02*
X40555D01*
X43181Y20831D02*
Y24768D01*
X40425Y24374D02*
X43181Y22799D01*
X40425Y20831D02*
X43181Y22799D01*
X40425Y20831D02*
Y24374D01*
X43181Y22799D02*
X43968D01*
X39244D02*
X40425D01*
X39374Y106500D02*
X40555D01*
X43311D02*
X44098D01*
X40555Y104532D02*
Y108075D01*
Y104532D02*
X43311Y106500D01*
X40555Y108075D02*
X43311Y106500D01*
Y104532D02*
Y108468D01*
X39244Y97043D02*
X40425D01*
X43181D02*
X43968D01*
X40425Y95075D02*
Y98618D01*
Y95075D02*
X43181Y97043D01*
X40425Y98618D02*
X43181Y97043D01*
Y95075D02*
Y99012D01*
X39370Y86614D02*
X40551D01*
X43307D02*
X44094D01*
X40551Y84646D02*
Y88189D01*
Y84646D02*
X43307Y86614D01*
X40551Y88189D02*
X43307Y86614D01*
Y84646D02*
Y88583D01*
X39244Y172992D02*
X40425D01*
X43181D02*
X43968D01*
X40425Y171024D02*
Y174567D01*
Y171024D02*
X43181Y172992D01*
X40425Y174567D02*
X43181Y172992D01*
Y171024D02*
Y174961D01*
X39244Y162256D02*
X40425D01*
X43181D02*
X43968D01*
X40425Y160287D02*
Y163831D01*
Y160287D02*
X43181Y162256D01*
X40425Y163831D02*
X43181Y162256D01*
Y160287D02*
Y164224D01*
X39488Y151969D02*
X40669D01*
X43425D02*
X44213D01*
X40669Y150000D02*
Y153543D01*
Y150000D02*
X43425Y151969D01*
X40669Y153543D02*
X43425Y151969D01*
Y150000D02*
Y153937D01*
X39768Y233000D02*
X40949D01*
X43705D02*
X44492D01*
X40949Y231031D02*
Y234575D01*
Y231031D02*
X43705Y233000D01*
X40949Y234575D02*
X43705Y233000D01*
Y231031D02*
Y234968D01*
X39638Y222756D02*
X40819D01*
X43575D02*
X44362D01*
X40819Y220787D02*
Y224331D01*
Y220787D02*
X43575Y222756D01*
X40819Y224331D02*
X43575Y222756D01*
Y220787D02*
Y224724D01*
X39638Y210937D02*
X40819D01*
X43575D02*
X44362D01*
X40819Y208968D02*
Y212512D01*
Y208968D02*
X43575Y210937D01*
X40819Y212512D02*
X43575Y210937D01*
Y208968D02*
Y212906D01*
X157331Y217634D02*
X165992D01*
Y239287D01*
X161661Y243618D02*
X165992Y239287D01*
X157331Y243618D02*
X161661D01*
X140008Y217634D02*
X148669D01*
X140008D02*
Y239287D01*
X144339Y243618D01*
X148669D01*
X157331Y157628D02*
X165992D01*
Y179282D01*
X161661Y183612D02*
X165992Y179282D01*
X157331Y183612D02*
X161661D01*
X140008Y157628D02*
X148669D01*
X140008D02*
Y179282D01*
X144339Y183612D01*
X148669D01*
X157331Y91410D02*
X165992D01*
Y113063D01*
X161661Y117394D02*
X165992Y113063D01*
X157331Y117394D02*
X161661D01*
X140008Y91410D02*
X148669D01*
X140008D02*
Y113063D01*
X144339Y117394D01*
X148669D01*
X144339Y54469D02*
X148669D01*
X140008Y50138D02*
X144339Y54469D01*
X140008Y28484D02*
Y50138D01*
Y28484D02*
X148669D01*
X157331Y54469D02*
X161661D01*
X165992Y50138D01*
Y28484D02*
Y50138D01*
X157331Y28484D02*
X165992D01*
X61965Y151034D02*
X63047D01*
X134110D02*
X135193D01*
Y180955D01*
X61965D02*
X63047D01*
X134110D02*
X135193D01*
X61965Y151034D02*
Y180955D01*
Y84815D02*
Y114736D01*
X134110D02*
X135193D01*
X61965D02*
X63047D01*
X135193Y84815D02*
Y114736D01*
X134110Y84815D02*
X135193D01*
X61965D02*
X63047D01*
X61965Y21884D02*
X63047D01*
X134110D02*
X135193D01*
Y51806D01*
X61965D02*
X63047D01*
X134110D02*
X135193D01*
X61965Y21884D02*
Y51806D01*
X137622Y213541D02*
Y211704D01*
X139000D01*
Y212622D01*
Y211704D01*
X140377D01*
Y214459D02*
X137622D01*
Y215837D01*
X138082Y216296D01*
X139000D01*
X139459Y215837D01*
Y214459D01*
Y215377D02*
X140377Y216296D01*
X127827Y6410D02*
Y9165D01*
X129204D01*
X129663Y8706D01*
Y7787D01*
X129204Y7328D01*
X127827D01*
X128745D02*
X129663Y6410D01*
X132418D02*
X130582D01*
X132418Y8247D01*
Y8706D01*
X131959Y9165D01*
X131041D01*
X130582Y8706D01*
X133337D02*
X133796Y9165D01*
X134714D01*
X135173Y8706D01*
Y8247D01*
X134714Y7787D01*
X135173Y7328D01*
Y6869D01*
X134714Y6410D01*
X133796D01*
X133337Y6869D01*
Y7328D01*
X133796Y7787D01*
X133337Y8247D01*
Y8706D01*
X133796Y7787D02*
X134714D01*
X128610Y69489D02*
Y72244D01*
X129988D01*
X130447Y71785D01*
Y70866D01*
X129988Y70407D01*
X128610D01*
X129528D02*
X130447Y69489D01*
X133202D02*
X131365D01*
X133202Y71325D01*
Y71785D01*
X132743Y72244D01*
X131824D01*
X131365Y71785D01*
X134120Y72244D02*
X135957D01*
Y71785D01*
X134120Y69948D01*
Y69489D01*
X140827Y15910D02*
Y18665D01*
X142204D01*
X142663Y18206D01*
Y17287D01*
X142204Y16828D01*
X140827D01*
X141745D02*
X142663Y15910D01*
X145418D02*
X143582D01*
X145418Y17747D01*
Y18206D01*
X144959Y18665D01*
X144041D01*
X143582Y18206D01*
X148173Y18665D02*
X147255Y18206D01*
X146337Y17287D01*
Y16369D01*
X146796Y15910D01*
X147714D01*
X148173Y16369D01*
Y16828D01*
X147714Y17287D01*
X146337D01*
X146259Y78610D02*
X143504D01*
Y79988D01*
X143964Y80447D01*
X144882D01*
X145341Y79988D01*
Y78610D01*
Y79528D02*
X146259Y80447D01*
Y83202D02*
Y81365D01*
X144423Y83202D01*
X143964D01*
X143504Y82743D01*
Y81824D01*
X143964Y81365D01*
X143504Y85957D02*
Y84120D01*
X144882D01*
X144423Y85039D01*
Y85498D01*
X144882Y85957D01*
X145800D01*
X146259Y85498D01*
Y84579D01*
X145800Y84120D01*
X146720Y9646D02*
Y12401D01*
X148098D01*
X148557Y11942D01*
Y11024D01*
X148098Y10565D01*
X146720D01*
X147639D02*
X148557Y9646D01*
X151312D02*
X149475D01*
X151312Y11483D01*
Y11942D01*
X150853Y12401D01*
X149934D01*
X149475Y11942D01*
X153608Y9646D02*
Y12401D01*
X152230Y11024D01*
X154067D01*
X150590Y73492D02*
X147835D01*
Y74870D01*
X148294Y75329D01*
X149213D01*
X149672Y74870D01*
Y73492D01*
Y74410D02*
X150590Y75329D01*
Y78084D02*
Y76247D01*
X148753Y78084D01*
X148294D01*
X147835Y77624D01*
Y76706D01*
X148294Y76247D01*
Y79002D02*
X147835Y79461D01*
Y80379D01*
X148294Y80839D01*
X148753D01*
X149213Y80379D01*
Y79920D01*
Y80379D01*
X149672Y80839D01*
X150131D01*
X150590Y80379D01*
Y79461D01*
X150131Y79002D01*
X137827Y131623D02*
Y134378D01*
X139204D01*
X139663Y133918D01*
Y133000D01*
X139204Y132541D01*
X137827D01*
X138745D02*
X139663Y131623D01*
X142418D02*
X140582D01*
X142418Y133459D01*
Y133918D01*
X141959Y134378D01*
X141041D01*
X140582Y133918D01*
X145173Y131623D02*
X143337D01*
X145173Y133459D01*
Y133918D01*
X144714Y134378D01*
X143796D01*
X143337Y133918D01*
X143286Y145623D02*
Y148378D01*
X144663D01*
X145123Y147918D01*
Y147000D01*
X144663Y146541D01*
X143286D01*
X144204D02*
X145123Y145623D01*
X147878D02*
X146041D01*
X147878Y147459D01*
Y147918D01*
X147418Y148378D01*
X146500D01*
X146041Y147918D01*
X148796Y145623D02*
X149714D01*
X149255D01*
Y148378D01*
X148796Y147918D01*
X141827Y209410D02*
Y212165D01*
X143204D01*
X143663Y211706D01*
Y210787D01*
X143204Y210328D01*
X141827D01*
X142745D02*
X143663Y209410D01*
X146418D02*
X144582D01*
X146418Y211247D01*
Y211706D01*
X145959Y212165D01*
X145041D01*
X144582Y211706D01*
X147337D02*
X147796Y212165D01*
X148714D01*
X149173Y211706D01*
Y209869D01*
X148714Y209410D01*
X147796D01*
X147337Y209869D01*
Y211706D01*
X137895Y194685D02*
Y197441D01*
X139272D01*
X139732Y196981D01*
Y196063D01*
X139272Y195604D01*
X137895D01*
X138813D02*
X139732Y194685D01*
X140650D02*
X141568D01*
X141109D01*
Y197441D01*
X140650Y196981D01*
X144782Y197441D02*
X142946D01*
Y196063D01*
X143864Y196522D01*
X144323D01*
X144782Y196063D01*
Y195145D01*
X144323Y194685D01*
X143405D01*
X142946Y195145D01*
X128556Y135623D02*
Y138377D01*
X129934D01*
X130393Y137918D01*
Y137000D01*
X129934Y136541D01*
X128556D01*
X129475D02*
X130393Y135623D01*
X131311D02*
X132230D01*
X131770D01*
Y138377D01*
X131311Y137918D01*
X134985Y135623D02*
Y138377D01*
X133607Y137000D01*
X135444D01*
X99887Y189792D02*
Y192547D01*
X101264D01*
X101724Y192088D01*
Y191169D01*
X101264Y190710D01*
X99887D01*
X100805D02*
X101724Y189792D01*
X102642D02*
X103560D01*
X103101D01*
Y192547D01*
X102642Y192088D01*
X104938D02*
X105397Y192547D01*
X106315D01*
X106774Y192088D01*
Y191629D01*
X106315Y191169D01*
X105856D01*
X106315D01*
X106774Y190710D01*
Y190251D01*
X106315Y189792D01*
X105397D01*
X104938Y190251D01*
X158123Y262041D02*
Y260204D01*
X159500D01*
Y261122D01*
Y260204D01*
X160878D01*
X158123Y264796D02*
Y262959D01*
X159500D01*
X159041Y263878D01*
Y264337D01*
X159500Y264796D01*
X160418D01*
X160878Y264337D01*
Y263418D01*
X160418Y262959D01*
X29163Y248878D02*
Y246123D01*
X31000D01*
X31918D02*
X32837D01*
X32377D01*
Y248878D01*
X31918Y248418D01*
X52165Y248492D02*
X49410D01*
Y249869D01*
X49869Y250328D01*
X50787D01*
X51247Y249869D01*
Y248492D01*
Y249410D02*
X52165Y250328D01*
Y252624D02*
X49410D01*
X50787Y251247D01*
Y253083D01*
X56877Y248204D02*
X54123D01*
Y249582D01*
X54582Y250041D01*
X55500D01*
X55959Y249582D01*
Y248204D01*
Y249123D02*
X56877Y250041D01*
X54582Y250959D02*
X54123Y251418D01*
Y252337D01*
X54582Y252796D01*
X55041D01*
X55500Y252337D01*
Y251877D01*
Y252337D01*
X55959Y252796D01*
X56418D01*
X56877Y252337D01*
Y251418D01*
X56418Y250959D01*
X28019Y260039D02*
Y257284D01*
X29397D01*
X29856Y257743D01*
Y259580D01*
X29397Y260039D01*
X28019D01*
X32611Y259580D02*
X32152Y260039D01*
X31233D01*
X30774Y259580D01*
Y257743D01*
X31233Y257284D01*
X32152D01*
X32611Y257743D01*
X155237Y70855D02*
X153400D01*
Y69477D01*
X154318D01*
X153400D01*
Y68100D01*
X157533D02*
Y70855D01*
X156155Y69477D01*
X157992D01*
X155237Y134355D02*
X153400D01*
Y132977D01*
X154318D01*
X153400D01*
Y131600D01*
X156155Y133896D02*
X156614Y134355D01*
X157533D01*
X157992Y133896D01*
Y133437D01*
X157533Y132977D01*
X157073D01*
X157533D01*
X157992Y132518D01*
Y132059D01*
X157533Y131600D01*
X156614D01*
X156155Y132059D01*
X157021Y200984D02*
X155184D01*
Y199606D01*
X156103D01*
X155184D01*
Y198229D01*
X159776D02*
X157940D01*
X159776Y200065D01*
Y200525D01*
X159317Y200984D01*
X158399D01*
X157940Y200525D01*
X44488Y258464D02*
X42652D01*
Y257087D01*
X43570D01*
X42652D01*
Y255709D01*
X45406D02*
X46325D01*
X45866D01*
Y258464D01*
X45406Y258005D01*
X183900Y128200D02*
Y130955D01*
X185277D01*
X185737Y130496D01*
Y129578D01*
X185277Y129118D01*
X183900D01*
X186655Y128200D02*
X187573D01*
X187114D01*
Y130955D01*
X186655Y130496D01*
X173688Y242717D02*
Y245472D01*
X175066D01*
X175525Y245013D01*
Y244094D01*
X175066Y243635D01*
X173688D01*
X176443Y245013D02*
X176903Y245472D01*
X177821D01*
X178280Y245013D01*
Y244554D01*
X177821Y244094D01*
X177362D01*
X177821D01*
X178280Y243635D01*
Y243176D01*
X177821Y242717D01*
X176903D01*
X176443Y243176D01*
X184343Y165991D02*
X187098D01*
Y164613D01*
X186639Y164154D01*
X185721D01*
X185261Y164613D01*
Y165991D01*
Y165073D02*
X184343Y164154D01*
Y163236D02*
Y162318D01*
Y162777D01*
X187098D01*
X186639Y163236D01*
X184802Y160940D02*
X184343Y160481D01*
Y159563D01*
X184802Y159104D01*
X186639D01*
X187098Y159563D01*
Y160481D01*
X186639Y160940D01*
X186180D01*
X185721Y160481D01*
Y159104D01*
X192377Y178056D02*
X189622D01*
Y179434D01*
X190082Y179893D01*
X191000D01*
X191459Y179434D01*
Y178056D01*
Y178975D02*
X192377Y179893D01*
Y180811D02*
Y181730D01*
Y181270D01*
X189622D01*
X190082Y180811D01*
Y183107D02*
X189622Y183566D01*
Y184485D01*
X190082Y184944D01*
X190541D01*
X191000Y184485D01*
X191459Y184944D01*
X191918D01*
X192377Y184485D01*
Y183566D01*
X191918Y183107D01*
X191459D01*
X191000Y183566D01*
X190541Y183107D01*
X190082D01*
X191000Y183566D02*
Y184485D01*
X187878Y182556D02*
X185123D01*
Y183934D01*
X185582Y184393D01*
X186500D01*
X186959Y183934D01*
Y182556D01*
Y183475D02*
X187878Y184393D01*
Y185311D02*
Y186230D01*
Y185770D01*
X185123D01*
X185582Y185311D01*
X185123Y187607D02*
Y189444D01*
X185582D01*
X187418Y187607D01*
X187878D01*
X53056Y36123D02*
Y38877D01*
X54434D01*
X54893Y38418D01*
Y37500D01*
X54434Y37041D01*
X53056D01*
X53975D02*
X54893Y36123D01*
X55811D02*
X56730D01*
X56270D01*
Y38877D01*
X55811Y38418D01*
X59944Y36123D02*
X58107D01*
X59944Y37959D01*
Y38418D01*
X59485Y38877D01*
X58566D01*
X58107Y38418D01*
X53015Y26910D02*
Y29665D01*
X54393D01*
X54852Y29206D01*
Y28287D01*
X54393Y27828D01*
X53015D01*
X53934D02*
X54852Y26910D01*
X55770D02*
X56689D01*
X56230D01*
Y29665D01*
X55770Y29206D01*
X58066Y26910D02*
X58985D01*
X58525D01*
Y29665D01*
X58066Y29206D01*
X53249Y18307D02*
Y21062D01*
X54627D01*
X55086Y20603D01*
Y19685D01*
X54627Y19226D01*
X53249D01*
X54167D02*
X55086Y18307D01*
X56004D02*
X56923D01*
X56463D01*
Y21062D01*
X56004Y20603D01*
X58300D02*
X58759Y21062D01*
X59677D01*
X60137Y20603D01*
Y18767D01*
X59677Y18307D01*
X58759D01*
X58300Y18767D01*
Y20603D01*
X55704Y100122D02*
Y102877D01*
X57082D01*
X57541Y102418D01*
Y101500D01*
X57082Y101041D01*
X55704D01*
X56622D02*
X57541Y100122D01*
X58459Y100582D02*
X58918Y100122D01*
X59837D01*
X60296Y100582D01*
Y102418D01*
X59837Y102877D01*
X58918D01*
X58459Y102418D01*
Y101959D01*
X58918Y101500D01*
X60296D01*
X52204Y91197D02*
Y93952D01*
X53582D01*
X54041Y93493D01*
Y92575D01*
X53582Y92116D01*
X52204D01*
X53123D02*
X54041Y91197D01*
X54959Y93493D02*
X55418Y93952D01*
X56337D01*
X56796Y93493D01*
Y93034D01*
X56337Y92575D01*
X56796Y92116D01*
Y91657D01*
X56337Y91197D01*
X55418D01*
X54959Y91657D01*
Y92116D01*
X55418Y92575D01*
X54959Y93034D01*
Y93493D01*
X55418Y92575D02*
X56337D01*
X54984Y81871D02*
Y84626D01*
X56361D01*
X56820Y84166D01*
Y83248D01*
X56361Y82789D01*
X54984D01*
X55902D02*
X56820Y81871D01*
X57739Y84626D02*
X59575D01*
Y84166D01*
X57739Y82330D01*
Y81871D01*
X55204Y167016D02*
Y169771D01*
X56582D01*
X57041Y169312D01*
Y168394D01*
X56582Y167935D01*
X55204D01*
X56122D02*
X57041Y167016D01*
X59796Y169771D02*
X58877Y169312D01*
X57959Y168394D01*
Y167475D01*
X58418Y167016D01*
X59337D01*
X59796Y167475D01*
Y167935D01*
X59337Y168394D01*
X57959D01*
X52460Y156804D02*
Y159559D01*
X53838D01*
X54297Y159099D01*
Y158181D01*
X53838Y157722D01*
X52460D01*
X53378D02*
X54297Y156804D01*
X57052Y159559D02*
X55215D01*
Y158181D01*
X56133Y158640D01*
X56593D01*
X57052Y158181D01*
Y157263D01*
X56593Y156804D01*
X55674D01*
X55215Y157263D01*
X55185Y147441D02*
Y150196D01*
X56562D01*
X57021Y149737D01*
Y148819D01*
X56562Y148360D01*
X55185D01*
X56103D02*
X57021Y147441D01*
X59317D02*
Y150196D01*
X57939Y148819D01*
X59776D01*
X51377Y188255D02*
X48623D01*
Y189633D01*
X49082Y190092D01*
X50000D01*
X50459Y189633D01*
Y188255D01*
Y189174D02*
X51377Y190092D01*
Y192388D02*
X48623D01*
X50000Y191010D01*
Y192847D01*
X46704Y122123D02*
Y124878D01*
X48082D01*
X48541Y124418D01*
Y123500D01*
X48082Y123041D01*
X46704D01*
X47622D02*
X48541Y122123D01*
X50837D02*
Y124878D01*
X49459Y123500D01*
X51296D01*
X51377Y58992D02*
X48623D01*
Y60369D01*
X49082Y60828D01*
X50000D01*
X50459Y60369D01*
Y58992D01*
Y59910D02*
X51377Y60828D01*
Y63124D02*
X48623D01*
X50000Y61747D01*
Y63583D01*
X56704Y226623D02*
Y229378D01*
X58082D01*
X58541Y228918D01*
Y228000D01*
X58082Y227541D01*
X56704D01*
X57622D02*
X58541Y226623D01*
X59459Y228918D02*
X59918Y229378D01*
X60837D01*
X61296Y228918D01*
Y228459D01*
X60837Y228000D01*
X60378D01*
X60837D01*
X61296Y227541D01*
Y227082D01*
X60837Y226623D01*
X59918D01*
X59459Y227082D01*
X56102Y188649D02*
X53347D01*
Y190026D01*
X53806Y190486D01*
X54724D01*
X55184Y190026D01*
Y188649D01*
Y189567D02*
X56102Y190486D01*
X53806Y191404D02*
X53347Y191863D01*
Y192781D01*
X53806Y193241D01*
X54265D01*
X54724Y192781D01*
Y192322D01*
Y192781D01*
X55184Y193241D01*
X55643D01*
X56102Y192781D01*
Y191863D01*
X55643Y191404D01*
X52704Y122123D02*
Y124878D01*
X54082D01*
X54541Y124418D01*
Y123500D01*
X54082Y123041D01*
X52704D01*
X53623D02*
X54541Y122123D01*
X55459Y124418D02*
X55918Y124878D01*
X56837D01*
X57296Y124418D01*
Y123959D01*
X56837Y123500D01*
X56378D01*
X56837D01*
X57296Y123041D01*
Y122582D01*
X56837Y122123D01*
X55918D01*
X55459Y122582D01*
X55878Y58992D02*
X53123D01*
Y60369D01*
X53582Y60828D01*
X54500D01*
X54959Y60369D01*
Y58992D01*
Y59910D02*
X55878Y60828D01*
X53582Y61747D02*
X53123Y62206D01*
Y63124D01*
X53582Y63583D01*
X54041D01*
X54500Y63124D01*
Y62665D01*
Y63124D01*
X54959Y63583D01*
X55418D01*
X55878Y63124D01*
Y62206D01*
X55418Y61747D01*
X52204Y216516D02*
Y219271D01*
X53582D01*
X54041Y218812D01*
Y217894D01*
X53582Y217435D01*
X52204D01*
X53123D02*
X54041Y216516D01*
X56796D02*
X54959D01*
X56796Y218353D01*
Y218812D01*
X56337Y219271D01*
X55418D01*
X54959Y218812D01*
X92574Y189556D02*
Y192311D01*
X93952D01*
X94411Y191851D01*
Y190933D01*
X93952Y190474D01*
X92574D01*
X93493D02*
X94411Y189556D01*
X97166D02*
X95329D01*
X97166Y191392D01*
Y191851D01*
X96707Y192311D01*
X95788D01*
X95329Y191851D01*
X119204Y135623D02*
Y138377D01*
X120582D01*
X121041Y137918D01*
Y137000D01*
X120582Y136541D01*
X119204D01*
X120123D02*
X121041Y135623D01*
X123796D02*
X121959D01*
X123796Y137459D01*
Y137918D01*
X123337Y138377D01*
X122418D01*
X121959Y137918D01*
X119751Y69489D02*
Y72244D01*
X121129D01*
X121588Y71785D01*
Y70866D01*
X121129Y70407D01*
X119751D01*
X120670D02*
X121588Y69489D01*
X124343D02*
X122506D01*
X124343Y71325D01*
Y71785D01*
X123884Y72244D01*
X122966D01*
X122506Y71785D01*
X119204Y6410D02*
Y9165D01*
X120582D01*
X121041Y8706D01*
Y7787D01*
X120582Y7328D01*
X119204D01*
X120123D02*
X121041Y6410D01*
X123796D02*
X121959D01*
X123796Y8247D01*
Y8706D01*
X123337Y9165D01*
X122418D01*
X121959Y8706D01*
X3871Y257122D02*
Y259877D01*
X5249D01*
X5708Y259418D01*
Y258500D01*
X5249Y258041D01*
X3871D01*
X4790D02*
X5708Y257122D01*
X8463D02*
X6626D01*
X8463Y258959D01*
Y259418D01*
X8004Y259877D01*
X7085D01*
X6626Y259418D01*
X54856Y204922D02*
Y207677D01*
X56234D01*
X56693Y207218D01*
Y206299D01*
X56234Y205840D01*
X54856D01*
X55775D02*
X56693Y204922D01*
X57611D02*
X58530D01*
X58070D01*
Y207677D01*
X57611Y207218D01*
X61378Y248663D02*
X58622D01*
Y250041D01*
X59082Y250500D01*
X60000D01*
X60459Y250041D01*
Y248663D01*
Y249582D02*
X61378Y250500D01*
Y251418D02*
Y252337D01*
Y251877D01*
X58622D01*
X59082Y251418D01*
X60826Y188715D02*
X58071D01*
Y190092D01*
X58530Y190551D01*
X59449D01*
X59908Y190092D01*
Y188715D01*
Y189633D02*
X60826Y190551D01*
Y191470D02*
Y192388D01*
Y191929D01*
X58071D01*
X58530Y191470D01*
X58663Y122123D02*
Y124878D01*
X60041D01*
X60500Y124418D01*
Y123500D01*
X60041Y123041D01*
X58663D01*
X59582D02*
X60500Y122123D01*
X61418D02*
X62337D01*
X61878D01*
Y124878D01*
X61418Y124418D01*
X60378Y59451D02*
X57622D01*
Y60828D01*
X58082Y61287D01*
X59000D01*
X59459Y60828D01*
Y59451D01*
Y60369D02*
X60378Y61287D01*
Y62206D02*
Y63124D01*
Y62665D01*
X57622D01*
X58082Y62206D01*
X4462Y252166D02*
Y254921D01*
X5840D01*
X6299Y254462D01*
Y253543D01*
X5840Y253084D01*
X4462D01*
X5381D02*
X6299Y252166D01*
X7218D02*
X8136D01*
X7677D01*
Y254921D01*
X7218Y254462D01*
X185515Y92623D02*
Y95377D01*
X186893D01*
X187352Y94918D01*
Y94000D01*
X186893Y93541D01*
X185515D01*
X188270Y92623D02*
X189189D01*
X188730D01*
Y95377D01*
X188270Y94918D01*
X190566Y92623D02*
X191485D01*
X191025D01*
Y95377D01*
X190566Y94918D01*
X7481Y85623D02*
Y88377D01*
X8859D01*
X9318Y87918D01*
Y87000D01*
X8859Y86541D01*
X7481D01*
X10237Y85623D02*
X11155D01*
X10696D01*
Y88377D01*
X10237Y87918D01*
X12532D02*
X12991Y88377D01*
X13910D01*
X14369Y87918D01*
Y86082D01*
X13910Y85623D01*
X12991D01*
X12532Y86082D01*
Y87918D01*
X13129Y199123D02*
Y201877D01*
X14507D01*
X14966Y201418D01*
Y200500D01*
X14507Y200041D01*
X13129D01*
X15884Y199582D02*
X16343Y199123D01*
X17262D01*
X17721Y199582D01*
Y201418D01*
X17262Y201877D01*
X16343D01*
X15884Y201418D01*
Y200959D01*
X16343Y200500D01*
X17721D01*
X20669Y34712D02*
X17914D01*
Y36090D01*
X18373Y36549D01*
X19291D01*
X19750Y36090D01*
Y34712D01*
X18373Y37467D02*
X17914Y37926D01*
Y38844D01*
X18373Y39304D01*
X18832D01*
X19291Y38844D01*
X19750Y39304D01*
X20210D01*
X20669Y38844D01*
Y37926D01*
X20210Y37467D01*
X19750D01*
X19291Y37926D01*
X18832Y37467D01*
X18373D01*
X19291Y37926D02*
Y38844D01*
X22204Y113835D02*
Y116590D01*
X23582D01*
X24041Y116131D01*
Y115213D01*
X23582Y114753D01*
X22204D01*
X24959Y116590D02*
X26796D01*
Y116131D01*
X24959Y114294D01*
Y113835D01*
X20877Y148779D02*
X18123D01*
Y150156D01*
X18582Y150616D01*
X19500D01*
X19959Y150156D01*
Y148779D01*
X18123Y153371D02*
X18582Y152452D01*
X19500Y151534D01*
X20418D01*
X20877Y151993D01*
Y152911D01*
X20418Y153371D01*
X19959D01*
X19500Y152911D01*
Y151534D01*
X22204Y238123D02*
Y240878D01*
X23582D01*
X24041Y240418D01*
Y239500D01*
X23582Y239041D01*
X22204D01*
X26796Y240878D02*
X24959D01*
Y239500D01*
X25877Y239959D01*
X26337D01*
X26796Y239500D01*
Y238582D01*
X26337Y238123D01*
X25418D01*
X24959Y238582D01*
X186704Y46123D02*
Y48878D01*
X188082D01*
X188541Y48418D01*
Y47500D01*
X188082Y47041D01*
X186704D01*
X190837Y46123D02*
Y48878D01*
X189459Y47500D01*
X191296D01*
X10506Y127200D02*
Y129955D01*
X11884D01*
X12343Y129496D01*
Y128577D01*
X11884Y128118D01*
X10506D01*
X15098Y127200D02*
X13261D01*
X15098Y129037D01*
Y129496D01*
X14639Y129955D01*
X13721D01*
X13261Y129496D01*
X185123Y195801D02*
X187878D01*
Y197638D01*
X185123Y200393D02*
Y198556D01*
X187878D01*
Y200393D01*
X186500Y198556D02*
Y199475D01*
X185123Y201311D02*
X187878D01*
Y202689D01*
X187418Y203148D01*
X185582D01*
X185123Y202689D01*
Y201311D01*
X187878Y204066D02*
Y204985D01*
Y204525D01*
X185123D01*
X185582Y204066D01*
X187878Y207740D02*
X185123D01*
X186500Y206362D01*
Y208199D01*
X12402Y212305D02*
X15157D01*
Y214142D01*
X12402Y216897D02*
Y215060D01*
X15157D01*
Y216897D01*
X13780Y215060D02*
Y215979D01*
X12402Y217815D02*
X15157D01*
Y219193D01*
X14698Y219652D01*
X12861D01*
X12402Y219193D01*
Y217815D01*
X15157Y220570D02*
Y221488D01*
Y221029D01*
X12402D01*
X12861Y220570D01*
Y222866D02*
X12402Y223325D01*
Y224244D01*
X12861Y224703D01*
X13320D01*
X13780Y224244D01*
Y223784D01*
Y224244D01*
X14239Y224703D01*
X14698D01*
X15157Y224244D01*
Y223325D01*
X14698Y222866D01*
X24115Y52559D02*
Y49804D01*
X25493D01*
X25952Y50263D01*
Y52099D01*
X25493Y52559D01*
X24115D01*
X26870Y49804D02*
X27789D01*
X27329D01*
Y52559D01*
X26870Y52099D01*
X31003Y49804D02*
X29166D01*
X31003Y51640D01*
Y52099D01*
X30544Y52559D01*
X29625D01*
X29166Y52099D01*
X32449Y52559D02*
Y49804D01*
X33826D01*
X34285Y50263D01*
Y52099D01*
X33826Y52559D01*
X32449D01*
X35203Y49804D02*
X36122D01*
X35663D01*
Y52559D01*
X35203Y52099D01*
X37499Y49804D02*
X38418D01*
X37958D01*
Y52559D01*
X37499Y52099D01*
X39470Y54133D02*
Y51378D01*
X40847D01*
X41306Y51838D01*
Y53674D01*
X40847Y54133D01*
X39470D01*
X42225Y51378D02*
X43143D01*
X42684D01*
Y54133D01*
X42225Y53674D01*
X44521D02*
X44980Y54133D01*
X45898D01*
X46357Y53674D01*
Y51838D01*
X45898Y51378D01*
X44980D01*
X44521Y51838D01*
Y53674D01*
X29594Y116338D02*
Y113583D01*
X30971D01*
X31431Y114042D01*
Y115879D01*
X30971Y116338D01*
X29594D01*
X32349Y114042D02*
X32808Y113583D01*
X33726D01*
X34186Y114042D01*
Y115879D01*
X33726Y116338D01*
X32808D01*
X32349Y115879D01*
Y115420D01*
X32808Y114961D01*
X34186D01*
X35893Y116338D02*
Y113583D01*
X37271D01*
X37730Y114042D01*
Y115879D01*
X37271Y116338D01*
X35893D01*
X38648Y115879D02*
X39107Y116338D01*
X40026D01*
X40485Y115879D01*
Y115420D01*
X40026Y114961D01*
X40485Y114502D01*
Y114042D01*
X40026Y113583D01*
X39107D01*
X38648Y114042D01*
Y114502D01*
X39107Y114961D01*
X38648Y115420D01*
Y115879D01*
X39107Y114961D02*
X40026D01*
X42192Y116732D02*
Y113977D01*
X43570D01*
X44029Y114436D01*
Y116273D01*
X43570Y116732D01*
X42192D01*
X44947D02*
X46784D01*
Y116273D01*
X44947Y114436D01*
Y113977D01*
X30381Y181299D02*
Y178544D01*
X31759D01*
X32218Y179003D01*
Y180840D01*
X31759Y181299D01*
X30381D01*
X34973D02*
X34055Y180840D01*
X33136Y179921D01*
Y179003D01*
X33595Y178544D01*
X34514D01*
X34973Y179003D01*
Y179462D01*
X34514Y179921D01*
X33136D01*
X35893Y181299D02*
Y178544D01*
X37271D01*
X37730Y179003D01*
Y180840D01*
X37271Y181299D01*
X35893D01*
X40485D02*
X38648D01*
Y179921D01*
X39566Y180380D01*
X40026D01*
X40485Y179921D01*
Y179003D01*
X40026Y178544D01*
X39107D01*
X38648Y179003D01*
X42192Y181693D02*
Y178937D01*
X43570D01*
X44029Y179397D01*
Y181233D01*
X43570Y181693D01*
X42192D01*
X46325Y178937D02*
Y181693D01*
X44947Y180315D01*
X46784D01*
X29594Y241141D02*
Y238386D01*
X30971D01*
X31431Y238845D01*
Y240682D01*
X30971Y241141D01*
X29594D01*
X32349Y240682D02*
X32808Y241141D01*
X33726D01*
X34186Y240682D01*
Y240223D01*
X33726Y239764D01*
X33267D01*
X33726D01*
X34186Y239305D01*
Y238845D01*
X33726Y238386D01*
X32808D01*
X32349Y238845D01*
X35499Y241141D02*
Y238386D01*
X36877D01*
X37336Y238845D01*
Y240682D01*
X36877Y241141D01*
X35499D01*
X40091Y238386D02*
X38254D01*
X40091Y240223D01*
Y240682D01*
X39632Y241141D01*
X38714D01*
X38254Y240682D01*
X41470Y241141D02*
Y238386D01*
X42848D01*
X43307Y238845D01*
Y240682D01*
X42848Y241141D01*
X41470D01*
X44225Y238386D02*
X45144D01*
X44685D01*
Y241141D01*
X44225Y240682D01*
X10582Y238041D02*
X10123Y237582D01*
Y236663D01*
X10582Y236204D01*
X12418D01*
X12878Y236663D01*
Y237582D01*
X12418Y238041D01*
X12878Y240337D02*
X10123D01*
X11500Y238959D01*
Y240796D01*
X15082Y238041D02*
X14623Y237582D01*
Y236663D01*
X15082Y236204D01*
X16918D01*
X17378Y236663D01*
Y237582D01*
X16918Y238041D01*
X15082Y238959D02*
X14623Y239418D01*
Y240337D01*
X15082Y240796D01*
X15541D01*
X16000Y240337D01*
Y239878D01*
Y240337D01*
X16459Y240796D01*
X16918D01*
X17378Y240337D01*
Y239418D01*
X16918Y238959D01*
X168582Y233978D02*
X168122Y233519D01*
Y232600D01*
X168582Y232141D01*
X170418D01*
X170878Y232600D01*
Y233519D01*
X170418Y233978D01*
X170878Y236733D02*
Y234896D01*
X169041Y236733D01*
X168582D01*
X168122Y236274D01*
Y235355D01*
X168582Y234896D01*
Y175041D02*
X168122Y174582D01*
Y173663D01*
X168582Y173204D01*
X170418D01*
X170878Y173663D01*
Y174582D01*
X170418Y175041D01*
X170878Y177796D02*
Y175959D01*
X169041Y177796D01*
X168582D01*
X168122Y177337D01*
Y176418D01*
X168582Y175959D01*
Y107541D02*
X168122Y107082D01*
Y106163D01*
X168582Y105704D01*
X170418D01*
X170878Y106163D01*
Y107082D01*
X170418Y107541D01*
X170878Y110296D02*
Y108459D01*
X169041Y110296D01*
X168582D01*
X168122Y109837D01*
Y108918D01*
X168582Y108459D01*
Y43541D02*
X168122Y43082D01*
Y42163D01*
X168582Y41704D01*
X170418D01*
X170878Y42163D01*
Y43082D01*
X170418Y43541D01*
X170878Y46296D02*
Y44459D01*
X169041Y46296D01*
X168582D01*
X168122Y45837D01*
Y44918D01*
X168582Y44459D01*
X5452Y263812D02*
X4993Y264271D01*
X4075D01*
X3615Y263812D01*
Y261975D01*
X4075Y261516D01*
X4993D01*
X5452Y261975D01*
X8207Y261516D02*
X6370D01*
X8207Y263353D01*
Y263812D01*
X7748Y264271D01*
X6830D01*
X6370Y263812D01*
X169500Y216918D02*
X169041Y217377D01*
X168122D01*
X167663Y216918D01*
Y215082D01*
X168122Y214622D01*
X169041D01*
X169500Y215082D01*
X170418Y214622D02*
X171337D01*
X170878D01*
Y217377D01*
X170418Y216918D01*
X170000Y156918D02*
X169541Y157378D01*
X168623D01*
X168163Y156918D01*
Y155082D01*
X168623Y154622D01*
X169541D01*
X170000Y155082D01*
X170918Y154622D02*
X171837D01*
X171378D01*
Y157378D01*
X170918Y156918D01*
X170500Y90418D02*
X170041Y90877D01*
X169123D01*
X168663Y90418D01*
Y88582D01*
X169123Y88122D01*
X170041D01*
X170500Y88582D01*
X171418Y88122D02*
X172337D01*
X171878D01*
Y90877D01*
X171418Y90418D01*
X170000Y27206D02*
X169541Y27665D01*
X168623D01*
X168163Y27206D01*
Y25369D01*
X168623Y24910D01*
X169541D01*
X170000Y25369D01*
X170918Y24910D02*
X171837D01*
X171378D01*
Y27665D01*
X170918Y27206D01*
X31000Y252918D02*
X30541Y253378D01*
X29623D01*
X29163Y252918D01*
Y251082D01*
X29623Y250623D01*
X30541D01*
X31000Y251082D01*
X31918Y250623D02*
X32837D01*
X32377D01*
Y253378D01*
X31918Y252918D01*
X136623Y153541D02*
Y151704D01*
X138000D01*
Y152622D01*
Y151704D01*
X139377D01*
X136623Y154459D02*
X139377D01*
Y156296D01*
X139877Y84704D02*
X137122D01*
Y86082D01*
X137582Y86541D01*
X138500D01*
X138959Y86082D01*
Y84704D01*
Y85623D02*
X139877Y86541D01*
Y87459D02*
X137122D01*
Y88837D01*
X137582Y89296D01*
X138500D01*
X138959Y88837D01*
Y87459D01*
Y88377D02*
X139877Y89296D01*
Y19492D02*
X137122D01*
Y20869D01*
X137582Y21328D01*
X138500D01*
X138959Y20869D01*
Y19492D01*
Y20410D02*
X139877Y21328D01*
X137122Y22247D02*
X139877D01*
Y24083D01*
D12*
X50736Y44787D02*
Y47787D01*
Y44787D02*
X51236D01*
Y47787D01*
X50736D02*
X51236D01*
X50736Y39787D02*
X51236D01*
Y42787D01*
X50736D02*
X51236D01*
X50736Y39787D02*
Y42787D01*
X32236Y47787D02*
X50736D01*
X32236Y39787D02*
X50736D01*
X32236Y46445D02*
Y47787D01*
Y39787D02*
Y41130D01*
X50736Y34543D02*
Y37543D01*
Y34543D02*
X51236D01*
Y37543D01*
X50736D02*
X51236D01*
X50736Y29543D02*
X51236D01*
Y32543D01*
X50736D02*
X51236D01*
X50736Y29543D02*
Y32543D01*
X32236Y37543D02*
X50736D01*
X32236Y29543D02*
X50736D01*
X32236Y36201D02*
Y37543D01*
Y29543D02*
Y30886D01*
X50606Y23799D02*
Y26799D01*
Y23799D02*
X51106D01*
Y26799D01*
X50606D02*
X51106D01*
X50606Y18799D02*
X51106D01*
Y21799D01*
X50606D02*
X51106D01*
X50606Y18799D02*
Y21799D01*
X32106Y26799D02*
X50606D01*
X32106Y18799D02*
X50606D01*
X32106Y25457D02*
Y26799D01*
Y18799D02*
Y20142D01*
X32236Y102500D02*
Y103842D01*
Y109158D02*
Y110500D01*
Y102500D02*
X50736D01*
X32236Y110500D02*
X50736D01*
Y102500D02*
Y105500D01*
X51236D01*
Y102500D02*
Y105500D01*
X50736Y102500D02*
X51236D01*
X50736Y110500D02*
X51236D01*
Y107500D02*
Y110500D01*
X50736Y107500D02*
X51236D01*
X50736D02*
Y110500D01*
X32106Y93043D02*
Y94386D01*
Y99701D02*
Y101043D01*
Y93043D02*
X50606D01*
X32106Y101043D02*
X50606D01*
Y93043D02*
Y96043D01*
X51106D01*
Y93043D02*
Y96043D01*
X50606Y93043D02*
X51106D01*
X50606Y101043D02*
X51106D01*
Y98043D02*
Y101043D01*
X50606Y98043D02*
X51106D01*
X50606D02*
Y101043D01*
X32232Y82614D02*
Y83957D01*
Y89272D02*
Y90614D01*
Y82614D02*
X50732D01*
X32232Y90614D02*
X50732D01*
Y82614D02*
Y85614D01*
X51232D01*
Y82614D02*
Y85614D01*
X50732Y82614D02*
X51232D01*
X50732Y90614D02*
X51232D01*
Y87614D02*
Y90614D01*
X50732Y87614D02*
X51232D01*
X50732D02*
Y90614D01*
X32106Y168992D02*
Y170335D01*
Y175650D02*
Y176992D01*
Y168992D02*
X50606D01*
X32106Y176992D02*
X50606D01*
Y168992D02*
Y171992D01*
X51106D01*
Y168992D02*
Y171992D01*
X50606Y168992D02*
X51106D01*
X50606Y176992D02*
X51106D01*
Y173992D02*
Y176992D01*
X50606Y173992D02*
X51106D01*
X50606D02*
Y176992D01*
X32106Y158256D02*
Y159598D01*
Y164913D02*
Y166256D01*
Y158256D02*
X50606D01*
X32106Y166256D02*
X50606D01*
Y158256D02*
Y161256D01*
X51106D01*
Y158256D02*
Y161256D01*
X50606Y158256D02*
X51106D01*
X50606Y166256D02*
X51106D01*
Y163256D02*
Y166256D01*
X50606Y163256D02*
X51106D01*
X50606D02*
Y166256D01*
X32350Y147968D02*
Y149311D01*
Y154626D02*
Y155968D01*
Y147968D02*
X50850D01*
X32350Y155968D02*
X50850D01*
Y147968D02*
Y150969D01*
X51350D01*
Y147968D02*
Y150969D01*
X50850Y147968D02*
X51350D01*
X50850Y155968D02*
X51350D01*
Y152969D02*
Y155968D01*
X50850Y152969D02*
X51350D01*
X50850D02*
Y155968D01*
X32630Y229000D02*
Y230343D01*
Y235658D02*
Y237000D01*
Y229000D02*
X51130D01*
X32630Y237000D02*
X51130D01*
Y229000D02*
Y232000D01*
X51630D01*
Y229000D02*
Y232000D01*
X51130Y229000D02*
X51630D01*
X51130Y237000D02*
X51630D01*
Y234000D02*
Y237000D01*
X51130Y234000D02*
X51630D01*
X51130D02*
Y237000D01*
X32500Y218756D02*
Y220098D01*
Y225413D02*
Y226756D01*
Y218756D02*
X51000D01*
X32500Y226756D02*
X51000D01*
Y218756D02*
Y221756D01*
X51500D01*
Y218756D02*
Y221756D01*
X51000Y218756D02*
X51500D01*
X51000Y226756D02*
X51500D01*
Y223756D02*
Y226756D01*
X51000Y223756D02*
X51500D01*
X51000D02*
Y226756D01*
X32500Y206937D02*
Y208279D01*
Y213595D02*
Y214937D01*
Y206937D02*
X51000D01*
X32500Y214937D02*
X51000D01*
Y206937D02*
Y209937D01*
X51500D01*
Y206937D02*
Y209937D01*
X51000Y206937D02*
X51500D01*
X51000Y214937D02*
X51500D01*
Y211937D02*
Y214937D01*
X51000Y211937D02*
X51500D01*
X51000D02*
Y214937D01*
M02*
