G04*
G04 #@! TF.GenerationSoftware,Altium Limited,Altium Designer,20.2.4 (192)*
G04*
G04 Layer_Color=255*
%FSLAX25Y25*%
%MOIN*%
G70*
G04*
G04 #@! TF.SameCoordinates,3D83C255-6E39-4F9F-9407-39FC17F4EAEB*
G04*
G04*
G04 #@! TF.FilePolarity,Positive*
G04*
G01*
G75*
%ADD13R,0.01968X0.04724*%
%ADD14R,0.11417X0.04724*%
%ADD15R,0.03150X0.03543*%
%ADD16R,0.03543X0.03150*%
%ADD17R,0.02362X0.01968*%
%ADD18R,0.01772X0.01181*%
%ADD19R,0.04724X0.04724*%
%ADD20R,0.04724X0.04724*%
%ADD21R,0.06299X0.12598*%
%ADD43C,0.05906*%
%ADD44R,0.05906X0.05906*%
D13*
X126272Y207693D02*
D03*
X123122Y244307D02*
D03*
X66429Y207693D02*
D03*
X69579D02*
D03*
X72728D02*
D03*
X75878D02*
D03*
X79028D02*
D03*
X82177D02*
D03*
X85327D02*
D03*
X88476D02*
D03*
X91626D02*
D03*
X107374D02*
D03*
X110524D02*
D03*
X113673D02*
D03*
X116823D02*
D03*
X119972D02*
D03*
X123122D02*
D03*
X129421D02*
D03*
X132571D02*
D03*
Y244307D02*
D03*
X129421D02*
D03*
X126272D02*
D03*
X119972D02*
D03*
X116823D02*
D03*
X113673D02*
D03*
X110524D02*
D03*
X107374D02*
D03*
X91626D02*
D03*
X88476D02*
D03*
X85327D02*
D03*
X82177D02*
D03*
X79028D02*
D03*
X75878D02*
D03*
X72728D02*
D03*
X69579D02*
D03*
X66429D02*
D03*
X65508Y184301D02*
D03*
X68657D02*
D03*
X71807D02*
D03*
X74957D02*
D03*
X78106D02*
D03*
X81256D02*
D03*
X84405D02*
D03*
X87555D02*
D03*
X90705D02*
D03*
X106453D02*
D03*
X109602D02*
D03*
X112752D02*
D03*
X115902D02*
D03*
X119051D02*
D03*
X122201D02*
D03*
X125350D02*
D03*
X128500D02*
D03*
X131650D02*
D03*
Y147687D02*
D03*
X128500D02*
D03*
X125350D02*
D03*
X122201D02*
D03*
X119051D02*
D03*
X115902D02*
D03*
X112752D02*
D03*
X109602D02*
D03*
X106453D02*
D03*
X90705D02*
D03*
X87555D02*
D03*
X84405D02*
D03*
X81256D02*
D03*
X78106D02*
D03*
X74957D02*
D03*
X71807D02*
D03*
X68657D02*
D03*
X65508D02*
D03*
X125350Y81469D02*
D03*
X122201Y118083D02*
D03*
X65508Y81469D02*
D03*
X68657D02*
D03*
X71807D02*
D03*
X74957D02*
D03*
X78106D02*
D03*
X81256D02*
D03*
X84405D02*
D03*
X87555D02*
D03*
X90705D02*
D03*
X106453D02*
D03*
X109602D02*
D03*
X112752D02*
D03*
X115902D02*
D03*
X119051D02*
D03*
X122201D02*
D03*
X128500D02*
D03*
X131650D02*
D03*
Y118083D02*
D03*
X128500D02*
D03*
X125350D02*
D03*
X119051D02*
D03*
X115902D02*
D03*
X112752D02*
D03*
X109602D02*
D03*
X106453D02*
D03*
X90705D02*
D03*
X87555D02*
D03*
X84405D02*
D03*
X81256D02*
D03*
X78106D02*
D03*
X74957D02*
D03*
X71807D02*
D03*
X68657D02*
D03*
X65508D02*
D03*
Y55152D02*
D03*
X68657D02*
D03*
X71807D02*
D03*
X74957D02*
D03*
X78106D02*
D03*
X81256D02*
D03*
X84405D02*
D03*
X87555D02*
D03*
X90705D02*
D03*
X106453D02*
D03*
X109602D02*
D03*
X112752D02*
D03*
X115902D02*
D03*
X119051D02*
D03*
X122201D02*
D03*
X125350D02*
D03*
X128500D02*
D03*
X131650D02*
D03*
Y18538D02*
D03*
X128500D02*
D03*
X125350D02*
D03*
X122201D02*
D03*
X119051D02*
D03*
X115902D02*
D03*
X112752D02*
D03*
X109602D02*
D03*
X106453D02*
D03*
X90705D02*
D03*
X87555D02*
D03*
X84405D02*
D03*
X81256D02*
D03*
X78106D02*
D03*
X74957D02*
D03*
X71807D02*
D03*
X68657D02*
D03*
X65508D02*
D03*
D14*
X99500Y207693D02*
D03*
Y244307D02*
D03*
X98579Y184301D02*
D03*
Y147687D02*
D03*
Y81469D02*
D03*
Y118083D02*
D03*
Y55152D02*
D03*
Y18538D02*
D03*
D15*
X134256Y12787D02*
D03*
X128744D02*
D03*
X134756Y75500D02*
D03*
X129244D02*
D03*
X143756Y12787D02*
D03*
X138244D02*
D03*
X144756Y75500D02*
D03*
X139244D02*
D03*
X138244Y8287D02*
D03*
X143756D02*
D03*
X139244Y70500D02*
D03*
X144756D02*
D03*
X144256Y137500D02*
D03*
X138744D02*
D03*
X144256Y142000D02*
D03*
X138744D02*
D03*
X134256D02*
D03*
X128744D02*
D03*
X101575Y195669D02*
D03*
X107087D02*
D03*
X154744Y63000D02*
D03*
X160256D02*
D03*
X154744Y126500D02*
D03*
X160256D02*
D03*
X154744Y194000D02*
D03*
X160256D02*
D03*
X45634Y262500D02*
D03*
X40122D02*
D03*
X186256Y179500D02*
D03*
X180744D02*
D03*
X53744Y42000D02*
D03*
X59256D02*
D03*
Y32787D02*
D03*
X53744D02*
D03*
X59256Y24012D02*
D03*
X53744D02*
D03*
Y106000D02*
D03*
X59256D02*
D03*
X53744Y97075D02*
D03*
X59256D02*
D03*
X53937Y87402D02*
D03*
X59449D02*
D03*
X53744Y172894D02*
D03*
X59256D02*
D03*
X53744Y162681D02*
D03*
X59256D02*
D03*
X53744Y153618D02*
D03*
X59256D02*
D03*
X54244Y232500D02*
D03*
X59756D02*
D03*
X54244Y222394D02*
D03*
X59756D02*
D03*
X97244Y195669D02*
D03*
X91732D02*
D03*
X119244Y142000D02*
D03*
X124756D02*
D03*
X119244Y75500D02*
D03*
X124756D02*
D03*
Y12787D02*
D03*
X119244D02*
D03*
X16667Y258000D02*
D03*
X11155D02*
D03*
X54244Y210968D02*
D03*
X59756D02*
D03*
X11155Y253500D02*
D03*
X16667D02*
D03*
X11155Y262894D02*
D03*
X16667D02*
D03*
X26256Y251000D02*
D03*
X20744D02*
D03*
D16*
X139500Y200532D02*
D03*
Y206043D02*
D03*
X144000Y200532D02*
D03*
Y206043D02*
D03*
X153000Y253744D02*
D03*
Y259256D02*
D03*
X51000Y245256D02*
D03*
Y239744D02*
D03*
X55500Y239744D02*
D03*
Y245256D02*
D03*
X186221Y169291D02*
D03*
Y174803D02*
D03*
X191000Y169244D02*
D03*
Y174756D02*
D03*
X50000Y185256D02*
D03*
Y179744D02*
D03*
Y119000D02*
D03*
Y113488D02*
D03*
X50000Y50532D02*
D03*
Y56043D02*
D03*
X54500Y179744D02*
D03*
Y185256D02*
D03*
Y113488D02*
D03*
Y119000D02*
D03*
X54500Y56043D02*
D03*
Y50532D02*
D03*
X60000Y239744D02*
D03*
Y245256D02*
D03*
X59000Y179744D02*
D03*
Y185256D02*
D03*
Y113488D02*
D03*
Y119000D02*
D03*
Y56043D02*
D03*
Y50532D02*
D03*
X186500Y217256D02*
D03*
Y211744D02*
D03*
X18500Y221756D02*
D03*
Y216244D02*
D03*
X11352Y243616D02*
D03*
Y249127D02*
D03*
X15852Y243616D02*
D03*
Y249127D02*
D03*
X169500Y239681D02*
D03*
Y245193D02*
D03*
Y180675D02*
D03*
Y186187D02*
D03*
Y113457D02*
D03*
Y118969D02*
D03*
Y49744D02*
D03*
Y55256D02*
D03*
D17*
X22031Y247000D02*
D03*
X25969D02*
D03*
D18*
X25667Y255872D02*
D03*
Y257840D02*
D03*
Y259808D02*
D03*
X20352D02*
D03*
Y257840D02*
D03*
Y255872D02*
D03*
D19*
X36106Y43787D02*
D03*
Y33543D02*
D03*
X35976Y22799D02*
D03*
X36106Y106500D02*
D03*
X35976Y97043D02*
D03*
X36102Y86614D02*
D03*
X35976Y172992D02*
D03*
Y162256D02*
D03*
X36220Y151969D02*
D03*
X36500Y233000D02*
D03*
X36370Y222756D02*
D03*
Y210937D02*
D03*
D20*
X47366Y43787D02*
D03*
Y33543D02*
D03*
X47236Y22799D02*
D03*
X47366Y106500D02*
D03*
X47236Y97043D02*
D03*
X47362Y86614D02*
D03*
X47236Y172992D02*
D03*
Y162256D02*
D03*
X47480Y151969D02*
D03*
X47760Y233000D02*
D03*
X47630Y222756D02*
D03*
Y210937D02*
D03*
D21*
X153000Y220783D02*
D03*
Y240469D02*
D03*
Y160778D02*
D03*
Y180463D02*
D03*
Y94559D02*
D03*
Y114244D02*
D03*
Y51319D02*
D03*
Y31634D02*
D03*
D43*
X188500Y110000D02*
D03*
X177713Y261500D02*
D03*
X188500Y56500D02*
D03*
Y66500D02*
D03*
Y76500D02*
D03*
X12425Y49000D02*
D03*
Y59000D02*
D03*
Y69000D02*
D03*
Y161500D02*
D03*
Y171500D02*
D03*
Y181500D02*
D03*
X27000Y23862D02*
D03*
Y33862D02*
D03*
Y97713D02*
D03*
Y87713D02*
D03*
Y163075D02*
D03*
Y153075D02*
D03*
Y222000D02*
D03*
Y212000D02*
D03*
X188500Y29500D02*
D03*
Y19500D02*
D03*
Y9500D02*
D03*
X15106Y109000D02*
D03*
D44*
X188500Y120000D02*
D03*
X177713Y251500D02*
D03*
X188500Y86500D02*
D03*
X12425Y79000D02*
D03*
Y191500D02*
D03*
X27000Y43862D02*
D03*
Y107713D02*
D03*
Y173075D02*
D03*
Y232000D02*
D03*
X188500Y39500D02*
D03*
X15106Y119000D02*
D03*
M02*
