G04*
G04 #@! TF.GenerationSoftware,Altium Limited,Altium Designer,20.2.4 (192)*
G04*
G04 Layer_Color=16711935*
%FSLAX25Y25*%
%MOIN*%
G70*
G04*
G04 #@! TF.SameCoordinates,3D83C255-6E39-4F9F-9407-39FC17F4EAEB*
G04*
G04*
G04 #@! TF.FilePolarity,Positive*
G04*
G01*
G75*
%ADD50C,0.00394*%
D50*
X128055Y10917D02*
X134945D01*
X128055Y14658D02*
X134945D01*
Y10917D02*
Y14658D01*
X128055Y10917D02*
Y14658D01*
X128555Y73630D02*
X135445D01*
X128555Y77370D02*
X135445D01*
Y73630D02*
Y77370D01*
X128555Y73630D02*
Y77370D01*
X137555Y10917D02*
X144445D01*
X137555Y14658D02*
X144445D01*
Y10917D02*
Y14658D01*
X137555Y10917D02*
Y14658D01*
X138555Y73630D02*
X145445D01*
X138555Y77370D02*
X145445D01*
Y73630D02*
Y77370D01*
X138555Y73630D02*
Y77370D01*
X137555Y10158D02*
X144445D01*
X137555Y6417D02*
X144445D01*
X137555D02*
Y10158D01*
X144445Y6417D02*
Y10158D01*
X138555Y72370D02*
X145445D01*
X138555Y68630D02*
X145445D01*
X138555D02*
Y72370D01*
X145445Y68630D02*
Y72370D01*
X144945Y135630D02*
Y139370D01*
X138055Y135630D02*
Y139370D01*
Y135630D02*
X144945D01*
X138055Y139370D02*
X144945D01*
Y140130D02*
Y143870D01*
X138055Y140130D02*
Y143870D01*
Y140130D02*
X144945D01*
X138055Y143870D02*
X144945D01*
X137630Y199843D02*
Y206732D01*
X141370Y199843D02*
Y206732D01*
X137630Y199843D02*
X141370D01*
X137630Y206732D02*
X141370D01*
X142130Y199843D02*
Y206732D01*
X145870Y199843D02*
Y206732D01*
X142130Y199843D02*
X145870D01*
X142130Y206732D02*
X145870D01*
X134945Y140130D02*
Y143870D01*
X128055Y140130D02*
Y143870D01*
Y140130D02*
X134945D01*
X128055Y143870D02*
X134945D01*
X100886Y197539D02*
X107776D01*
X100886Y193799D02*
X107776D01*
X100886D02*
Y197539D01*
X107776Y193799D02*
Y197539D01*
X151130Y253055D02*
X154870D01*
X151130Y259945D02*
X154870D01*
X151130Y253055D02*
Y259945D01*
X154870Y253055D02*
Y259945D01*
X21835Y248181D02*
X26165D01*
X21835Y245819D02*
X26165D01*
X21835D02*
Y248181D01*
X26165Y245819D02*
Y248181D01*
X49130Y245945D02*
X52870D01*
X49130Y239055D02*
X52870D01*
Y245945D01*
X49130Y239055D02*
Y245945D01*
X53630Y239055D02*
X57370D01*
X53630Y245945D02*
X57370D01*
X53630Y239055D02*
Y245945D01*
X57370Y239055D02*
Y245945D01*
X154055Y61130D02*
Y64870D01*
X160945Y61130D02*
Y64870D01*
X154055D02*
X160945D01*
X154055Y61130D02*
X160945D01*
X154055Y124630D02*
Y128370D01*
X160945Y124630D02*
Y128370D01*
X154055D02*
X160945D01*
X154055Y124630D02*
X160945D01*
X154055Y192130D02*
Y195870D01*
X160945Y192130D02*
Y195870D01*
X154055D02*
X160945D01*
X154055Y192130D02*
X160945D01*
X46323Y260630D02*
Y264370D01*
X39433Y260630D02*
Y264370D01*
Y260630D02*
X46323D01*
X39433Y264370D02*
X46323D01*
X184350Y168602D02*
X188091D01*
X184350Y175492D02*
X188091D01*
X184350Y168602D02*
Y175492D01*
X188091Y168602D02*
Y175492D01*
X189130Y168555D02*
X192870D01*
X189130Y175445D02*
X192870D01*
X189130Y168555D02*
Y175445D01*
X192870Y168555D02*
Y175445D01*
X186945Y177630D02*
Y181370D01*
X180055Y177630D02*
Y181370D01*
Y177630D02*
X186945D01*
X180055Y181370D02*
X186945D01*
X53055Y40130D02*
Y43870D01*
X59945Y40130D02*
Y43870D01*
X53055D02*
X59945D01*
X53055Y40130D02*
X59945D01*
X53055Y30917D02*
X59945D01*
X53055Y34657D02*
X59945D01*
Y30917D02*
Y34657D01*
X53055Y30917D02*
Y34657D01*
Y22142D02*
X59945D01*
X53055Y25882D02*
X59945D01*
Y22142D02*
Y25882D01*
X53055Y22142D02*
Y25882D01*
Y104130D02*
Y107870D01*
X59945Y104130D02*
Y107870D01*
X53055D02*
X59945D01*
X53055Y104130D02*
X59945D01*
X53055Y95205D02*
Y98945D01*
X59945Y95205D02*
Y98945D01*
X53055D02*
X59945D01*
X53055Y95205D02*
X59945D01*
X53248Y85532D02*
Y89272D01*
X60138Y85532D02*
Y89272D01*
X53248D02*
X60138D01*
X53248Y85532D02*
X60138D01*
X53055Y171024D02*
Y174764D01*
X59945Y171024D02*
Y174764D01*
X53055D02*
X59945D01*
X53055Y171024D02*
X59945D01*
X53055Y160811D02*
Y164551D01*
X59945Y160811D02*
Y164551D01*
X53055D02*
X59945D01*
X53055Y160811D02*
X59945D01*
X53055Y151748D02*
Y155488D01*
X59945Y151748D02*
Y155488D01*
X53055D02*
X59945D01*
X53055Y151748D02*
X59945D01*
X48130Y185945D02*
X51870D01*
X48130Y179055D02*
X51870D01*
Y185945D01*
X48130Y179055D02*
Y185945D01*
Y119689D02*
X51870D01*
X48130Y112799D02*
X51870D01*
Y119689D01*
X48130Y112799D02*
Y119689D01*
X48130Y49843D02*
Y56732D01*
X51870Y49843D02*
Y56732D01*
X48130Y49843D02*
X51870D01*
X48130Y56732D02*
X51870D01*
X53555Y230630D02*
Y234370D01*
X60445Y230630D02*
Y234370D01*
X53555D02*
X60445D01*
X53555Y230630D02*
X60445D01*
X52630Y179055D02*
X56370D01*
X52630Y185945D02*
X56370D01*
X52630Y179055D02*
Y185945D01*
X56370Y179055D02*
Y185945D01*
X52630Y112799D02*
X56370D01*
X52630Y119689D02*
X56370D01*
X52630Y112799D02*
Y119689D01*
X56370Y112799D02*
Y119689D01*
X56370Y49843D02*
Y56732D01*
X52630Y49843D02*
Y56732D01*
X56370D01*
X52630Y49843D02*
X56370D01*
X53555Y220524D02*
Y224264D01*
X60445Y220524D02*
Y224264D01*
X53555D02*
X60445D01*
X53555Y220524D02*
X60445D01*
X91043Y193799D02*
X97933D01*
X91043Y197539D02*
X97933D01*
Y193799D02*
Y197539D01*
X91043Y193799D02*
Y197539D01*
X118555Y140130D02*
Y143870D01*
X125445Y140130D02*
Y143870D01*
X118555D02*
X125445D01*
X118555Y140130D02*
X125445D01*
X118555Y73630D02*
X125445D01*
X118555Y77370D02*
X125445D01*
Y73630D02*
Y77370D01*
X118555Y73630D02*
Y77370D01*
Y10917D02*
X125445D01*
X118555Y14658D02*
X125445D01*
Y10917D02*
Y14658D01*
X118555Y10917D02*
Y14658D01*
X17356Y256130D02*
Y259870D01*
X10466Y256130D02*
Y259870D01*
Y256130D02*
X17356D01*
X10466Y259870D02*
X17356D01*
X53555Y209098D02*
Y212839D01*
X60445Y209098D02*
Y212839D01*
X53555D02*
X60445D01*
X53555Y209098D02*
X60445D01*
X58130Y239055D02*
X61870D01*
X58130Y245945D02*
X61870D01*
X58130Y239055D02*
Y245945D01*
X61870Y239055D02*
Y245945D01*
X57130Y179055D02*
X60870D01*
X57130Y185945D02*
X60870D01*
X57130Y179055D02*
Y185945D01*
X60870Y179055D02*
Y185945D01*
X57130Y112799D02*
X60870D01*
X57130Y119689D02*
X60870D01*
X57130Y112799D02*
Y119689D01*
X60870Y112799D02*
Y119689D01*
Y49843D02*
Y56732D01*
X57130Y49843D02*
Y56732D01*
X60870D01*
X57130Y49843D02*
X60870D01*
X10466Y251630D02*
Y255370D01*
X17356Y251630D02*
Y255370D01*
X10466D02*
X17356D01*
X10466Y251630D02*
X17356D01*
X184630Y217945D02*
X188370D01*
X184630Y211055D02*
X188370D01*
Y217945D01*
X184630Y211055D02*
Y217945D01*
X16630Y222445D02*
X20370D01*
X16630Y215555D02*
X20370D01*
Y222445D01*
X16630Y215555D02*
Y222445D01*
X36421Y40441D02*
Y47134D01*
X47051Y40441D02*
Y47134D01*
X36421D02*
X47051D01*
X36421Y40441D02*
X47051D01*
X36421Y30197D02*
Y36890D01*
X47051Y30197D02*
Y36890D01*
X36421D02*
X47051D01*
X36421Y30197D02*
X47051D01*
X36291Y19453D02*
Y26146D01*
X46921Y19453D02*
Y26146D01*
X36291D02*
X46921D01*
X36291Y19453D02*
X46921D01*
X36421Y103154D02*
X47051D01*
X36421Y109846D02*
X47051D01*
Y103154D02*
Y109846D01*
X36421Y103154D02*
Y109846D01*
X36291Y93697D02*
X46921D01*
X36291Y100390D02*
X46921D01*
Y93697D02*
Y100390D01*
X36291Y93697D02*
Y100390D01*
X36417Y83268D02*
X47047D01*
X36417Y89961D02*
X47047D01*
Y83268D02*
Y89961D01*
X36417Y83268D02*
Y89961D01*
X36291Y169646D02*
X46921D01*
X36291Y176339D02*
X46921D01*
Y169646D02*
Y176339D01*
X36291Y169646D02*
Y176339D01*
Y158909D02*
X46921D01*
X36291Y165602D02*
X46921D01*
Y158909D02*
Y165602D01*
X36291Y158909D02*
Y165602D01*
X36535Y148622D02*
X47165D01*
X36535Y155315D02*
X47165D01*
Y148622D02*
Y155315D01*
X36535Y148622D02*
Y155315D01*
X36815Y229654D02*
X47445D01*
X36815Y236347D02*
X47445D01*
Y229654D02*
Y236347D01*
X36815Y229654D02*
Y236347D01*
X36685Y219409D02*
X47315D01*
X36685Y226102D02*
X47315D01*
Y219409D02*
Y226102D01*
X36685Y219409D02*
Y226102D01*
Y207591D02*
X47315D01*
X36685Y214283D02*
X47315D01*
Y207591D02*
Y214283D01*
X36685Y207591D02*
Y214283D01*
X9482Y242927D02*
X13222D01*
X9482Y249816D02*
X13222D01*
X9482Y242927D02*
Y249816D01*
X13222Y242927D02*
Y249816D01*
X13982Y242927D02*
X17722D01*
X13982Y249816D02*
X17722D01*
X13982Y242927D02*
Y249816D01*
X17722Y242927D02*
Y249816D01*
X167630Y238992D02*
X171370D01*
X167630Y245882D02*
X171370D01*
X167630Y238992D02*
Y245882D01*
X171370Y238992D02*
Y245882D01*
X167630Y179986D02*
X171370D01*
X167630Y186876D02*
X171370D01*
X167630Y179986D02*
Y186876D01*
X171370Y179986D02*
Y186876D01*
X167630Y112768D02*
X171370D01*
X167630Y119658D02*
X171370D01*
X167630Y112768D02*
Y119658D01*
X171370Y112768D02*
Y119658D01*
X167630Y49055D02*
X171370D01*
X167630Y55945D02*
X171370D01*
X167630Y49055D02*
Y55945D01*
X171370Y49055D02*
Y55945D01*
X10466Y261024D02*
Y264764D01*
X17356Y261024D02*
Y264764D01*
X10466D02*
X17356D01*
X10466Y261024D02*
X17356D01*
X144339Y243618D02*
X161661D01*
X140008Y239287D02*
X144339Y243618D01*
X140008Y217634D02*
Y239287D01*
Y217634D02*
X165992D01*
Y239287D01*
X161661Y243618D02*
X165992Y239287D01*
X144339Y183612D02*
X161661D01*
X140008Y179282D02*
X144339Y183612D01*
X140008Y157628D02*
Y179282D01*
Y157628D02*
X165992D01*
Y179282D01*
X161661Y183612D02*
X165992Y179282D01*
X144339Y117394D02*
X161661D01*
X140008Y113063D02*
X144339Y117394D01*
X140008Y91410D02*
Y113063D01*
Y91410D02*
X165992D01*
Y113063D01*
X161661Y117394D02*
X165992Y113063D01*
X161661Y54469D02*
X165992Y50138D01*
Y28484D02*
Y50138D01*
X140008Y28484D02*
X165992D01*
X140008D02*
Y50138D01*
X144339Y54469D01*
X161661D01*
X26945Y249130D02*
Y252870D01*
X20055Y249130D02*
Y252870D01*
Y249130D02*
X26945D01*
X20055Y252870D02*
X26945D01*
M02*
