G04*
G04 #@! TF.GenerationSoftware,Altium Limited,Altium Designer,20.2.4 (192)*
G04*
G04 Layer_Color=32768*
%FSLAX25Y25*%
%MOIN*%
G70*
G04*
G04 #@! TF.SameCoordinates,3D83C255-6E39-4F9F-9407-39FC17F4EAEB*
G04*
G04*
G04 #@! TF.FilePolarity,Positive*
G04*
G01*
G75*
%ADD11C,0.00787*%
%ADD50C,0.00394*%
%ADD51C,0.00197*%
D11*
X62492Y204937D02*
Y247063D01*
X136508D01*
Y204937D02*
Y247063D01*
X62492Y204937D02*
X136508D01*
X19073Y254100D02*
X26947D01*
X19073D02*
Y261580D01*
X26947D01*
Y254100D02*
Y261580D01*
X61571Y144931D02*
X135587D01*
Y187057D01*
X61571D02*
X135587D01*
X61571Y144931D02*
Y187057D01*
Y78713D02*
Y120839D01*
X135587D01*
Y78713D02*
Y120839D01*
X61571Y78713D02*
X135587D01*
X61571Y15782D02*
X135587D01*
Y57908D01*
X61571D02*
X135587D01*
X61571Y15782D02*
Y57908D01*
D50*
X99500Y224031D02*
Y227969D01*
X97531Y226000D02*
X101469D01*
X131500Y10917D02*
Y14658D01*
X129630Y12787D02*
X133370D01*
X126776Y10622D02*
X136224D01*
X126776Y14953D02*
X136224D01*
Y10622D02*
Y14953D01*
X126776Y10622D02*
Y14953D01*
X132000Y73630D02*
Y77370D01*
X130130Y75500D02*
X133870D01*
X127276Y73335D02*
X136724D01*
X127276Y77665D02*
X136724D01*
Y73335D02*
Y77665D01*
X127276Y73335D02*
Y77665D01*
X141000Y10917D02*
Y14658D01*
X139130Y12787D02*
X142870D01*
X136276Y10622D02*
X145724D01*
X136276Y14953D02*
X145724D01*
Y10622D02*
Y14953D01*
X136276Y10622D02*
Y14953D01*
X142000Y73630D02*
Y77370D01*
X140130Y75500D02*
X143870D01*
X137276Y73335D02*
X146724D01*
X137276Y77665D02*
X146724D01*
Y73335D02*
Y77665D01*
X137276Y73335D02*
Y77665D01*
X141000Y6417D02*
Y10158D01*
X139130Y8287D02*
X142870D01*
X136276Y10453D02*
X145724D01*
X136276Y6122D02*
X145724D01*
X136276D02*
Y10453D01*
X145724Y6122D02*
Y10453D01*
X142000Y68630D02*
Y72370D01*
X140130Y70500D02*
X143870D01*
X137276Y72665D02*
X146724D01*
X137276Y68335D02*
X146724D01*
X137276D02*
Y72665D01*
X146724Y68335D02*
Y72665D01*
X146224Y135335D02*
Y139665D01*
X136776Y135335D02*
Y139665D01*
Y135335D02*
X146224D01*
X136776Y139665D02*
X146224D01*
X139630Y137500D02*
X143370D01*
X141500Y135630D02*
Y139370D01*
X146224Y139835D02*
Y144165D01*
X136776Y139835D02*
Y144165D01*
Y139835D02*
X146224D01*
X136776Y144165D02*
X146224D01*
X139630Y142000D02*
X143370D01*
X141500Y140130D02*
Y143870D01*
X137630Y203287D02*
X141370D01*
X139500Y201417D02*
Y205157D01*
X137335Y198563D02*
Y208012D01*
X141665Y198563D02*
Y208012D01*
X137335Y198563D02*
X141665D01*
X137335Y208012D02*
X141665D01*
X142130Y203287D02*
X145870D01*
X144000Y201417D02*
Y205157D01*
X141835Y198563D02*
Y208012D01*
X146165Y198563D02*
Y208012D01*
X141835Y198563D02*
X146165D01*
X141835Y208012D02*
X146165D01*
X136224Y139835D02*
Y144165D01*
X126776Y139835D02*
Y144165D01*
Y139835D02*
X136224D01*
X126776Y144165D02*
X136224D01*
X129630Y142000D02*
X133370D01*
X131500Y140130D02*
Y143870D01*
X104331Y193799D02*
Y197539D01*
X102461Y195669D02*
X106201D01*
X99606Y197835D02*
X109055D01*
X99606Y193504D02*
X109055D01*
X99606D02*
Y197835D01*
X109055Y193504D02*
Y197835D01*
X150835Y251776D02*
X155165D01*
X150835Y261224D02*
X155165D01*
X150835Y251776D02*
Y261224D01*
X155165Y251776D02*
Y261224D01*
X153000Y254630D02*
Y258370D01*
X151130Y256500D02*
X154870D01*
X24000Y245819D02*
Y248181D01*
X22819Y247000D02*
X25181D01*
X20457Y248378D02*
X27543D01*
X20457Y245622D02*
X27543D01*
X20457D02*
Y248378D01*
X27543Y245622D02*
Y248378D01*
X48835Y247224D02*
X53165D01*
X48835Y237776D02*
X53165D01*
Y247224D01*
X48835Y237776D02*
Y247224D01*
X51000Y240630D02*
Y244370D01*
X49130Y242500D02*
X52870D01*
X53335Y237776D02*
X57665D01*
X53335Y247224D02*
X57665D01*
X53335Y237776D02*
Y247224D01*
X57665Y237776D02*
Y247224D01*
X55500Y240630D02*
Y244370D01*
X53630Y242500D02*
X57370D01*
X21041Y257840D02*
X24978D01*
X23010Y255872D02*
Y259808D01*
X152776Y60835D02*
Y65165D01*
X162224Y60835D02*
Y65165D01*
X152776D02*
X162224D01*
X152776Y60835D02*
X162224D01*
X155630Y63000D02*
X159370D01*
X157500Y61130D02*
Y64870D01*
X152776Y124335D02*
Y128665D01*
X162224Y124335D02*
Y128665D01*
X152776D02*
X162224D01*
X152776Y124335D02*
X162224D01*
X155630Y126500D02*
X159370D01*
X157500Y124630D02*
Y128370D01*
X152776Y191835D02*
Y196165D01*
X162224Y191835D02*
Y196165D01*
X152776D02*
X162224D01*
X152776Y191835D02*
X162224D01*
X155630Y194000D02*
X159370D01*
X157500Y192130D02*
Y195870D01*
X47602Y260335D02*
Y264665D01*
X38153Y260335D02*
Y264665D01*
Y260335D02*
X47602D01*
X38153Y264665D02*
X47602D01*
X41008Y262500D02*
X44748D01*
X42878Y260630D02*
Y264370D01*
X184055Y167323D02*
X188386D01*
X184055Y176772D02*
X188386D01*
X184055Y167323D02*
Y176772D01*
X188386Y167323D02*
Y176772D01*
X186221Y170177D02*
Y173917D01*
X184350Y172047D02*
X188091D01*
X188835Y167276D02*
X193165D01*
X188835Y176724D02*
X193165D01*
X188835Y167276D02*
Y176724D01*
X193165Y167276D02*
Y176724D01*
X191000Y170130D02*
Y173870D01*
X189130Y172000D02*
X192870D01*
X188224Y177335D02*
Y181665D01*
X178776Y177335D02*
Y181665D01*
Y177335D02*
X188224D01*
X178776Y181665D02*
X188224D01*
X181630Y179500D02*
X185370D01*
X183500Y177630D02*
Y181370D01*
X51776Y39835D02*
Y44165D01*
X61224Y39835D02*
Y44165D01*
X51776D02*
X61224D01*
X51776Y39835D02*
X61224D01*
X54630Y42000D02*
X58370D01*
X56500Y40130D02*
Y43870D01*
Y30917D02*
Y34657D01*
X54630Y32787D02*
X58370D01*
X51776Y30622D02*
X61224D01*
X51776Y34953D02*
X61224D01*
Y30622D02*
Y34953D01*
X51776Y30622D02*
Y34953D01*
X56500Y22142D02*
Y25882D01*
X54630Y24012D02*
X58370D01*
X51776Y21846D02*
X61224D01*
X51776Y26177D02*
X61224D01*
Y21846D02*
Y26177D01*
X51776Y21846D02*
Y26177D01*
Y103835D02*
Y108165D01*
X61224Y103835D02*
Y108165D01*
X51776D02*
X61224D01*
X51776Y103835D02*
X61224D01*
X54630Y106000D02*
X58370D01*
X56500Y104130D02*
Y107870D01*
X51776Y94910D02*
Y99240D01*
X61224Y94910D02*
Y99240D01*
X51776D02*
X61224D01*
X51776Y94910D02*
X61224D01*
X54630Y97075D02*
X58370D01*
X56500Y95205D02*
Y98945D01*
X51968Y85236D02*
Y89567D01*
X61417Y85236D02*
Y89567D01*
X51968D02*
X61417D01*
X51968Y85236D02*
X61417D01*
X54823Y87402D02*
X58563D01*
X56693Y85532D02*
Y89272D01*
X51776Y170728D02*
Y175059D01*
X61224Y170728D02*
Y175059D01*
X51776D02*
X61224D01*
X51776Y170728D02*
X61224D01*
X54630Y172894D02*
X58370D01*
X56500Y171024D02*
Y174764D01*
X51776Y160516D02*
Y164847D01*
X61224Y160516D02*
Y164847D01*
X51776D02*
X61224D01*
X51776Y160516D02*
X61224D01*
X54630Y162681D02*
X58370D01*
X56500Y160811D02*
Y164551D01*
X51776Y151453D02*
Y155783D01*
X61224Y151453D02*
Y155783D01*
X51776D02*
X61224D01*
X51776Y151453D02*
X61224D01*
X54630Y153618D02*
X58370D01*
X56500Y151748D02*
Y155488D01*
X47835Y187224D02*
X52165D01*
X47835Y177776D02*
X52165D01*
Y187224D01*
X47835Y177776D02*
Y187224D01*
X50000Y180630D02*
Y184370D01*
X48130Y182500D02*
X51870D01*
X47835Y120968D02*
X52165D01*
X47835Y111520D02*
X52165D01*
Y120968D01*
X47835Y111520D02*
Y120968D01*
X50000Y114374D02*
Y118114D01*
X48130Y116244D02*
X51870D01*
X48130Y53287D02*
X51870D01*
X50000Y51417D02*
Y55158D01*
X47835Y48563D02*
Y58012D01*
X52165Y48563D02*
Y58012D01*
X47835Y48563D02*
X52165D01*
X47835Y58012D02*
X52165D01*
X52276Y230335D02*
Y234665D01*
X61724Y230335D02*
Y234665D01*
X52276D02*
X61724D01*
X52276Y230335D02*
X61724D01*
X55130Y232500D02*
X58870D01*
X57000Y230630D02*
Y234370D01*
X52335Y177776D02*
X56665D01*
X52335Y187224D02*
X56665D01*
X52335Y177776D02*
Y187224D01*
X56665Y177776D02*
Y187224D01*
X54500Y180630D02*
Y184370D01*
X52630Y182500D02*
X56370D01*
X52335Y111520D02*
X56665D01*
X52335Y120968D02*
X56665D01*
X52335Y111520D02*
Y120968D01*
X56665Y111520D02*
Y120968D01*
X54500Y114374D02*
Y118114D01*
X52630Y116244D02*
X56370D01*
X52630Y53287D02*
X56370D01*
X54500Y51417D02*
Y55158D01*
X56665Y48563D02*
Y58012D01*
X52335Y48563D02*
Y58012D01*
X56665D01*
X52335Y48563D02*
X56665D01*
X52276Y220228D02*
Y224559D01*
X61724Y220228D02*
Y224559D01*
X52276D02*
X61724D01*
X52276Y220228D02*
X61724D01*
X55130Y222394D02*
X58870D01*
X57000Y220524D02*
Y224264D01*
X94488Y193799D02*
Y197539D01*
X92618Y195669D02*
X96358D01*
X89764Y193504D02*
X99213D01*
X89764Y197835D02*
X99213D01*
Y193504D02*
Y197835D01*
X89764Y193504D02*
Y197835D01*
X117276Y139835D02*
Y144165D01*
X126724Y139835D02*
Y144165D01*
X117276D02*
X126724D01*
X117276Y139835D02*
X126724D01*
X120130Y142000D02*
X123870D01*
X122000Y140130D02*
Y143870D01*
Y73630D02*
Y77370D01*
X120130Y75500D02*
X123870D01*
X117276Y73335D02*
X126724D01*
X117276Y77665D02*
X126724D01*
Y73335D02*
Y77665D01*
X117276Y73335D02*
Y77665D01*
X122000Y10917D02*
Y14658D01*
X120130Y12787D02*
X123870D01*
X117276Y10622D02*
X126724D01*
X117276Y14953D02*
X126724D01*
Y10622D02*
Y14953D01*
X117276Y10622D02*
Y14953D01*
X18636Y255835D02*
Y260165D01*
X9187Y255835D02*
Y260165D01*
Y255835D02*
X18636D01*
X9187Y260165D02*
X18636D01*
X12041Y258000D02*
X15781D01*
X13911Y256130D02*
Y259870D01*
X52276Y208803D02*
Y213134D01*
X61724Y208803D02*
Y213134D01*
X52276D02*
X61724D01*
X52276Y208803D02*
X61724D01*
X55130Y210968D02*
X58870D01*
X57000Y209098D02*
Y212839D01*
X57835Y237776D02*
X62165D01*
X57835Y247224D02*
X62165D01*
X57835Y237776D02*
Y247224D01*
X62165Y237776D02*
Y247224D01*
X60000Y240630D02*
Y244370D01*
X58130Y242500D02*
X61870D01*
X56835Y177776D02*
X61165D01*
X56835Y187224D02*
X61165D01*
X56835Y177776D02*
Y187224D01*
X61165Y177776D02*
Y187224D01*
X59000Y180630D02*
Y184370D01*
X57130Y182500D02*
X60870D01*
X56835Y111520D02*
X61165D01*
X56835Y120968D02*
X61165D01*
X56835Y111520D02*
Y120968D01*
X61165Y111520D02*
Y120968D01*
X59000Y114374D02*
Y118114D01*
X57130Y116244D02*
X60870D01*
X57130Y53287D02*
X60870D01*
X59000Y51417D02*
Y55158D01*
X61165Y48563D02*
Y58012D01*
X56835Y48563D02*
Y58012D01*
X61165D01*
X56835Y48563D02*
X61165D01*
X9187Y251335D02*
Y255665D01*
X18636Y251335D02*
Y255665D01*
X9187D02*
X18636D01*
X9187Y251335D02*
X18636D01*
X12041Y253500D02*
X15781D01*
X13911Y251630D02*
Y255370D01*
X184335Y219224D02*
X188665D01*
X184335Y209776D02*
X188665D01*
Y219224D01*
X184335Y209776D02*
Y219224D01*
X186500Y212630D02*
Y216370D01*
X184630Y214500D02*
X188370D01*
X16335Y223724D02*
X20665D01*
X16335Y214276D02*
X20665D01*
Y223724D01*
X16335Y214276D02*
Y223724D01*
X18500Y217130D02*
Y220870D01*
X16630Y219000D02*
X20370D01*
X39768Y43787D02*
X43705D01*
X41736Y41819D02*
Y45756D01*
X39768Y33543D02*
X43705D01*
X41736Y31575D02*
Y35512D01*
X39638Y22799D02*
X43575D01*
X41606Y20831D02*
Y24768D01*
X41736Y104532D02*
Y108468D01*
X39768Y106500D02*
X43705D01*
X41606Y95075D02*
Y99012D01*
X39638Y97043D02*
X43575D01*
X41732Y84646D02*
Y88583D01*
X39764Y86614D02*
X43701D01*
X41606Y171024D02*
Y174961D01*
X39638Y172992D02*
X43575D01*
X41606Y160287D02*
Y164224D01*
X39638Y162256D02*
X43575D01*
X41850Y150000D02*
Y153937D01*
X39882Y151969D02*
X43819D01*
X42130Y231031D02*
Y234968D01*
X40161Y233000D02*
X44098D01*
X42000Y220787D02*
Y224724D01*
X40031Y222756D02*
X43968D01*
X42000Y208968D02*
Y212906D01*
X40031Y210937D02*
X43968D01*
X9187Y241647D02*
X13518D01*
X9187Y251096D02*
X13518D01*
X9187Y241647D02*
Y251096D01*
X13518Y241647D02*
Y251096D01*
X11352Y244501D02*
Y248241D01*
X9482Y246372D02*
X13222D01*
X13687Y241647D02*
X18018D01*
X13687Y251096D02*
X18018D01*
X13687Y241647D02*
Y251096D01*
X18018Y241647D02*
Y251096D01*
X15852Y244501D02*
Y248241D01*
X13982Y246372D02*
X17722D01*
X167335Y237713D02*
X171665D01*
X167335Y247161D02*
X171665D01*
X167335Y237713D02*
Y247161D01*
X171665Y237713D02*
Y247161D01*
X169500Y240567D02*
Y244307D01*
X167630Y242437D02*
X171370D01*
X167335Y178707D02*
X171665D01*
X167335Y188156D02*
X171665D01*
X167335Y178707D02*
Y188156D01*
X171665Y178707D02*
Y188156D01*
X169500Y181561D02*
Y185301D01*
X167630Y183431D02*
X171370D01*
X167335Y111488D02*
X171665D01*
X167335Y120937D02*
X171665D01*
X167335Y111488D02*
Y120937D01*
X171665Y111488D02*
Y120937D01*
X169500Y114343D02*
Y118083D01*
X167630Y116213D02*
X171370D01*
X167335Y47776D02*
X171665D01*
X167335Y57224D02*
X171665D01*
X167335Y47776D02*
Y57224D01*
X171665Y47776D02*
Y57224D01*
X169500Y50630D02*
Y54370D01*
X167630Y52500D02*
X171370D01*
X9187Y260728D02*
Y265059D01*
X18636Y260728D02*
Y265059D01*
X9187D02*
X18636D01*
X9187Y260728D02*
X18636D01*
X12041Y262894D02*
X15781D01*
X13911Y261024D02*
Y264764D01*
X151031Y230626D02*
X154969D01*
X153000Y228658D02*
Y232594D01*
X151031Y170620D02*
X154969D01*
X153000Y168652D02*
Y172589D01*
X151031Y104402D02*
X154969D01*
X153000Y102433D02*
Y106370D01*
Y39508D02*
Y43445D01*
X151031Y41476D02*
X154969D01*
X28224Y248835D02*
Y253165D01*
X18776Y248835D02*
Y253165D01*
Y248835D02*
X28224D01*
X18776Y253165D02*
X28224D01*
X21630Y251000D02*
X25370D01*
X23500Y249130D02*
Y252870D01*
X96610Y165994D02*
X100547D01*
X98579Y164026D02*
Y167963D01*
Y97807D02*
Y101744D01*
X96610Y99776D02*
X100547D01*
X96610Y36845D02*
X100547D01*
X98579Y34876D02*
Y38813D01*
D51*
X33075Y39850D02*
Y47724D01*
X50398Y39850D02*
Y47724D01*
X33075D02*
X50398D01*
X33075Y39850D02*
X50398D01*
X33075Y29606D02*
Y37480D01*
X50398Y29606D02*
Y37480D01*
X33075D02*
X50398D01*
X33075Y29606D02*
X50398D01*
X32945Y18862D02*
Y26736D01*
X50268Y18862D02*
Y26736D01*
X32945D02*
X50268D01*
X32945Y18862D02*
X50268D01*
X33075Y102563D02*
X50398D01*
X33075Y110437D02*
X50398D01*
Y102563D02*
Y110437D01*
X33075Y102563D02*
Y110437D01*
X32945Y93106D02*
X50268D01*
X32945Y100980D02*
X50268D01*
Y93106D02*
Y100980D01*
X32945Y93106D02*
Y100980D01*
X33071Y82677D02*
X50394D01*
X33071Y90551D02*
X50394D01*
Y82677D02*
Y90551D01*
X33071Y82677D02*
Y90551D01*
X32945Y169055D02*
X50268D01*
X32945Y176929D02*
X50268D01*
Y169055D02*
Y176929D01*
X32945Y169055D02*
Y176929D01*
Y158319D02*
X50268D01*
X32945Y166193D02*
X50268D01*
Y158319D02*
Y166193D01*
X32945Y158319D02*
Y166193D01*
X33189Y148031D02*
X50512D01*
X33189Y155905D02*
X50512D01*
Y148031D02*
Y155905D01*
X33189Y148031D02*
Y155905D01*
X33468Y229063D02*
X50791D01*
X33468Y236937D02*
X50791D01*
Y229063D02*
Y236937D01*
X33468Y229063D02*
Y236937D01*
X33339Y218819D02*
X50661D01*
X33339Y226693D02*
X50661D01*
Y218819D02*
Y226693D01*
X33339Y218819D02*
Y226693D01*
Y207000D02*
X50661D01*
X33339Y214874D02*
X50661D01*
Y207000D02*
Y214874D01*
X33339Y207000D02*
Y214874D01*
X138827Y213697D02*
Y247555D01*
X167173Y213697D02*
Y247555D01*
X138827Y213697D02*
X167173D01*
X138827Y247555D02*
X167173D01*
X138827Y153691D02*
Y187549D01*
X167173Y153691D02*
Y187549D01*
X138827Y153691D02*
X167173D01*
X138827Y187549D02*
X167173D01*
X138827Y87473D02*
Y121331D01*
X167173Y87473D02*
Y121331D01*
X138827Y87473D02*
X167173D01*
X138827Y121331D02*
X167173D01*
X138827Y58406D02*
X167173D01*
X138827Y24547D02*
X167173D01*
Y58406D01*
X138827Y24547D02*
Y58406D01*
M02*
