G04*
G04 #@! TF.GenerationSoftware,Altium Limited,Altium Designer,20.2.4 (192)*
G04*
G04 Layer_Color=8388736*
%FSLAX25Y25*%
%MOIN*%
G70*
G04*
G04 #@! TF.SameCoordinates,3D83C255-6E39-4F9F-9407-39FC17F4EAEB*
G04*
G04*
G04 #@! TF.FilePolarity,Positive*
G04*
G01*
G75*
%ADD11C,0.00787*%
G36*
X99500Y228759D02*
X99133Y228527D01*
X99130D01*
X99125Y228522D01*
X99117Y228517D01*
X99107Y228509D01*
X99079Y228491D01*
X99044Y228468D01*
X99005Y228440D01*
X98965Y228412D01*
X98926Y228384D01*
X98891Y228359D01*
X98888Y228356D01*
X98878Y228348D01*
X98862Y228336D01*
X98845Y228318D01*
X98806Y228280D01*
X98789Y228259D01*
X98773Y228239D01*
X98771Y228236D01*
X98768Y228231D01*
X98763Y228221D01*
X98755Y228206D01*
X98748Y228190D01*
X98740Y228173D01*
X98727Y228132D01*
Y228129D01*
X98725Y228124D01*
Y228114D01*
X98722Y228101D01*
X98720Y228083D01*
Y228063D01*
X98717Y228035D01*
Y227734D01*
X99500D01*
Y227499D01*
X97735D01*
Y228318D01*
X97738Y228338D01*
Y228361D01*
X97741Y228415D01*
X97748Y228471D01*
X97756Y228532D01*
X97769Y228588D01*
X97776Y228616D01*
X97784Y228639D01*
Y228642D01*
X97786Y228644D01*
X97794Y228660D01*
X97804Y228682D01*
X97822Y228711D01*
X97845Y228741D01*
X97876Y228774D01*
X97911Y228805D01*
X97952Y228836D01*
X97955D01*
X97957Y228838D01*
X97973Y228848D01*
X97998Y228858D01*
X98031Y228874D01*
X98070Y228887D01*
X98115Y228899D01*
X98164Y228907D01*
X98217Y228909D01*
X98220D01*
X98225D01*
X98235D01*
X98248Y228907D01*
X98266D01*
X98284Y228904D01*
X98327Y228894D01*
X98378Y228879D01*
X98432Y228858D01*
X98485Y228828D01*
X98511Y228807D01*
X98536Y228787D01*
X98539Y228784D01*
X98541Y228782D01*
X98549Y228774D01*
X98557Y228764D01*
X98567Y228751D01*
X98577Y228736D01*
X98590Y228716D01*
X98605Y228695D01*
X98618Y228670D01*
X98630Y228642D01*
X98646Y228611D01*
X98659Y228578D01*
X98669Y228540D01*
X98681Y228502D01*
X98689Y228458D01*
X98697Y228412D01*
X98699Y228417D01*
X98704Y228428D01*
X98715Y228443D01*
X98725Y228463D01*
X98753Y228509D01*
X98771Y228532D01*
X98786Y228553D01*
X98791Y228558D01*
X98804Y228570D01*
X98824Y228591D01*
X98850Y228616D01*
X98886Y228644D01*
X98924Y228677D01*
X98970Y228711D01*
X99021Y228746D01*
X99500Y229050D01*
Y228759D01*
D02*
G37*
G36*
X97944Y226235D02*
X98490D01*
Y227063D01*
X98699D01*
Y226235D01*
X99500D01*
Y226000D01*
X97735D01*
Y227193D01*
X97944D01*
Y226235D01*
D02*
G37*
G36*
X98579Y167481D02*
X96814D01*
Y167715D01*
X98370D01*
Y168585D01*
X98579D01*
Y167481D01*
D02*
G37*
G36*
X97023Y166229D02*
X97569D01*
Y167058D01*
X97778D01*
Y166229D01*
X98579D01*
Y165994D01*
X96814D01*
Y167188D01*
X97023D01*
Y166229D01*
D02*
G37*
G36*
X98579Y102815D02*
X98212Y102583D01*
X98209D01*
X98204Y102578D01*
X98196Y102573D01*
X98186Y102566D01*
X98158Y102548D01*
X98122Y102525D01*
X98084Y102497D01*
X98043Y102469D01*
X98005Y102441D01*
X97969Y102415D01*
X97967Y102412D01*
X97957Y102405D01*
X97941Y102392D01*
X97923Y102374D01*
X97885Y102336D01*
X97867Y102316D01*
X97852Y102295D01*
X97850Y102293D01*
X97847Y102288D01*
X97842Y102277D01*
X97834Y102262D01*
X97826Y102247D01*
X97819Y102229D01*
X97806Y102188D01*
Y102186D01*
X97804Y102181D01*
Y102170D01*
X97801Y102157D01*
X97799Y102140D01*
Y102119D01*
X97796Y102091D01*
Y101790D01*
X98579D01*
Y101556D01*
X96814D01*
Y102374D01*
X96817Y102395D01*
Y102418D01*
X96819Y102471D01*
X96827Y102527D01*
X96835Y102588D01*
X96847Y102645D01*
X96855Y102673D01*
X96863Y102696D01*
Y102698D01*
X96865Y102701D01*
X96873Y102716D01*
X96883Y102739D01*
X96901Y102767D01*
X96924Y102798D01*
X96954Y102831D01*
X96990Y102861D01*
X97031Y102892D01*
X97034D01*
X97036Y102894D01*
X97051Y102905D01*
X97077Y102915D01*
X97110Y102930D01*
X97148Y102943D01*
X97194Y102956D01*
X97243Y102963D01*
X97296Y102966D01*
X97299D01*
X97304D01*
X97314D01*
X97327Y102963D01*
X97345D01*
X97362Y102961D01*
X97406Y102951D01*
X97457Y102935D01*
X97510Y102915D01*
X97564Y102884D01*
X97589Y102864D01*
X97615Y102843D01*
X97617Y102841D01*
X97620Y102838D01*
X97628Y102831D01*
X97635Y102821D01*
X97645Y102808D01*
X97656Y102793D01*
X97668Y102772D01*
X97684Y102752D01*
X97697Y102726D01*
X97709Y102698D01*
X97724Y102667D01*
X97737Y102634D01*
X97747Y102596D01*
X97760Y102558D01*
X97768Y102515D01*
X97776Y102469D01*
X97778Y102474D01*
X97783Y102484D01*
X97793Y102499D01*
X97804Y102520D01*
X97832Y102566D01*
X97850Y102588D01*
X97865Y102609D01*
X97870Y102614D01*
X97883Y102627D01*
X97903Y102647D01*
X97929Y102673D01*
X97964Y102701D01*
X98002Y102734D01*
X98048Y102767D01*
X98099Y102803D01*
X98579Y103106D01*
Y102815D01*
D02*
G37*
G36*
Y101035D02*
X98212Y100803D01*
X98209D01*
X98204Y100798D01*
X98196Y100793D01*
X98186Y100786D01*
X98158Y100768D01*
X98122Y100745D01*
X98084Y100717D01*
X98043Y100689D01*
X98005Y100661D01*
X97969Y100635D01*
X97967Y100633D01*
X97957Y100625D01*
X97941Y100612D01*
X97923Y100594D01*
X97885Y100556D01*
X97867Y100536D01*
X97852Y100515D01*
X97850Y100513D01*
X97847Y100508D01*
X97842Y100497D01*
X97834Y100482D01*
X97826Y100467D01*
X97819Y100449D01*
X97806Y100408D01*
Y100406D01*
X97804Y100401D01*
Y100390D01*
X97801Y100378D01*
X97799Y100360D01*
Y100339D01*
X97796Y100311D01*
Y100010D01*
X98579D01*
Y99776D01*
X96814D01*
Y100594D01*
X96817Y100615D01*
Y100638D01*
X96819Y100691D01*
X96827Y100747D01*
X96835Y100809D01*
X96847Y100865D01*
X96855Y100893D01*
X96863Y100916D01*
Y100918D01*
X96865Y100921D01*
X96873Y100936D01*
X96883Y100959D01*
X96901Y100987D01*
X96924Y101018D01*
X96954Y101051D01*
X96990Y101081D01*
X97031Y101112D01*
X97034D01*
X97036Y101115D01*
X97051Y101125D01*
X97077Y101135D01*
X97110Y101150D01*
X97148Y101163D01*
X97194Y101176D01*
X97243Y101183D01*
X97296Y101186D01*
X97299D01*
X97304D01*
X97314D01*
X97327Y101183D01*
X97345D01*
X97362Y101181D01*
X97406Y101171D01*
X97457Y101155D01*
X97510Y101135D01*
X97564Y101104D01*
X97589Y101084D01*
X97615Y101064D01*
X97617Y101061D01*
X97620Y101058D01*
X97628Y101051D01*
X97635Y101041D01*
X97645Y101028D01*
X97656Y101013D01*
X97668Y100992D01*
X97684Y100972D01*
X97697Y100946D01*
X97709Y100918D01*
X97724Y100888D01*
X97737Y100855D01*
X97747Y100816D01*
X97760Y100778D01*
X97768Y100735D01*
X97776Y100689D01*
X97778Y100694D01*
X97783Y100704D01*
X97793Y100719D01*
X97804Y100740D01*
X97832Y100786D01*
X97850Y100809D01*
X97865Y100829D01*
X97870Y100834D01*
X97883Y100847D01*
X97903Y100867D01*
X97929Y100893D01*
X97964Y100921D01*
X98002Y100954D01*
X98048Y100987D01*
X98099Y101023D01*
X98579Y101326D01*
Y101035D01*
D02*
G37*
G36*
X98579Y38612D02*
X96814D01*
Y38847D01*
X98370D01*
Y39716D01*
X98579D01*
Y38612D01*
D02*
G37*
G36*
Y38105D02*
X98212Y37872D01*
X98209D01*
X98204Y37867D01*
X98196Y37862D01*
X98186Y37855D01*
X98158Y37837D01*
X98122Y37814D01*
X98084Y37786D01*
X98043Y37758D01*
X98005Y37730D01*
X97969Y37704D01*
X97967Y37702D01*
X97957Y37694D01*
X97941Y37681D01*
X97923Y37663D01*
X97885Y37625D01*
X97867Y37605D01*
X97852Y37584D01*
X97850Y37582D01*
X97847Y37577D01*
X97842Y37567D01*
X97834Y37551D01*
X97826Y37536D01*
X97819Y37518D01*
X97806Y37477D01*
Y37475D01*
X97804Y37470D01*
Y37459D01*
X97801Y37447D01*
X97799Y37429D01*
Y37408D01*
X97796Y37380D01*
Y37079D01*
X98579D01*
Y36845D01*
X96814D01*
Y37663D01*
X96817Y37684D01*
Y37707D01*
X96819Y37760D01*
X96827Y37816D01*
X96835Y37878D01*
X96847Y37934D01*
X96855Y37962D01*
X96863Y37985D01*
Y37987D01*
X96865Y37990D01*
X96873Y38005D01*
X96883Y38028D01*
X96901Y38056D01*
X96924Y38087D01*
X96954Y38120D01*
X96990Y38150D01*
X97031Y38181D01*
X97034D01*
X97036Y38184D01*
X97051Y38194D01*
X97077Y38204D01*
X97110Y38219D01*
X97148Y38232D01*
X97194Y38245D01*
X97243Y38252D01*
X97296Y38255D01*
X97299D01*
X97304D01*
X97314D01*
X97327Y38252D01*
X97345D01*
X97362Y38250D01*
X97406Y38240D01*
X97457Y38224D01*
X97510Y38204D01*
X97564Y38173D01*
X97589Y38153D01*
X97615Y38133D01*
X97617Y38130D01*
X97620Y38127D01*
X97628Y38120D01*
X97635Y38110D01*
X97645Y38097D01*
X97656Y38082D01*
X97668Y38061D01*
X97684Y38041D01*
X97697Y38015D01*
X97709Y37987D01*
X97724Y37957D01*
X97737Y37923D01*
X97747Y37885D01*
X97760Y37847D01*
X97768Y37804D01*
X97776Y37758D01*
X97778Y37763D01*
X97783Y37773D01*
X97793Y37788D01*
X97804Y37809D01*
X97832Y37855D01*
X97850Y37878D01*
X97865Y37898D01*
X97870Y37903D01*
X97883Y37916D01*
X97903Y37936D01*
X97929Y37962D01*
X97964Y37990D01*
X98002Y38023D01*
X98048Y38056D01*
X98099Y38092D01*
X98579Y38395D01*
Y38105D01*
D02*
G37*
%LPC*%
G36*
X98220Y228670D02*
X98217D01*
X98215D01*
X98199Y228667D01*
X98177Y228665D01*
X98146Y228660D01*
X98115Y228647D01*
X98080Y228632D01*
X98046Y228609D01*
X98013Y228578D01*
X98011Y228573D01*
X98001Y228560D01*
X97988Y228540D01*
X97973Y228507D01*
X97957Y228468D01*
X97944Y228417D01*
X97934Y228359D01*
X97932Y228290D01*
Y227734D01*
X98516D01*
Y228259D01*
X98513Y228290D01*
X98511Y228326D01*
X98508Y228366D01*
X98503Y228407D01*
X98495Y228448D01*
X98485Y228484D01*
X98483Y228489D01*
X98478Y228499D01*
X98470Y228514D01*
X98460Y228535D01*
X98444Y228558D01*
X98427Y228580D01*
X98404Y228604D01*
X98378Y228621D01*
X98375Y228624D01*
X98365Y228629D01*
X98350Y228637D01*
X98330Y228647D01*
X98307Y228655D01*
X98281Y228662D01*
X98251Y228667D01*
X98220Y228670D01*
D02*
G37*
G36*
X97299Y102726D02*
X97296D01*
X97294D01*
X97278Y102724D01*
X97255Y102721D01*
X97225Y102716D01*
X97194Y102703D01*
X97158Y102688D01*
X97125Y102665D01*
X97092Y102634D01*
X97090Y102629D01*
X97079Y102617D01*
X97067Y102596D01*
X97051Y102563D01*
X97036Y102525D01*
X97023Y102474D01*
X97013Y102415D01*
X97010Y102346D01*
Y101790D01*
X97594D01*
Y102316D01*
X97592Y102346D01*
X97589Y102382D01*
X97587Y102423D01*
X97582Y102463D01*
X97574Y102504D01*
X97564Y102540D01*
X97561Y102545D01*
X97556Y102555D01*
X97549Y102571D01*
X97538Y102591D01*
X97523Y102614D01*
X97505Y102637D01*
X97482Y102660D01*
X97457Y102678D01*
X97454Y102680D01*
X97444Y102685D01*
X97429Y102693D01*
X97408Y102703D01*
X97385Y102711D01*
X97360Y102718D01*
X97329Y102724D01*
X97299Y102726D01*
D02*
G37*
G36*
Y100946D02*
X97296D01*
X97294D01*
X97278Y100944D01*
X97255Y100941D01*
X97225Y100936D01*
X97194Y100923D01*
X97158Y100908D01*
X97125Y100885D01*
X97092Y100855D01*
X97090Y100849D01*
X97079Y100837D01*
X97067Y100816D01*
X97051Y100783D01*
X97036Y100745D01*
X97023Y100694D01*
X97013Y100635D01*
X97010Y100566D01*
Y100010D01*
X97594D01*
Y100536D01*
X97592Y100566D01*
X97589Y100602D01*
X97587Y100643D01*
X97582Y100684D01*
X97574Y100724D01*
X97564Y100760D01*
X97561Y100765D01*
X97556Y100775D01*
X97549Y100791D01*
X97538Y100811D01*
X97523Y100834D01*
X97505Y100857D01*
X97482Y100880D01*
X97457Y100898D01*
X97454Y100900D01*
X97444Y100906D01*
X97429Y100913D01*
X97408Y100923D01*
X97385Y100931D01*
X97360Y100939D01*
X97329Y100944D01*
X97299Y100946D01*
D02*
G37*
G36*
X97299Y38015D02*
X97296D01*
X97294D01*
X97278Y38013D01*
X97255Y38010D01*
X97225Y38005D01*
X97194Y37992D01*
X97158Y37977D01*
X97125Y37954D01*
X97092Y37923D01*
X97090Y37918D01*
X97079Y37906D01*
X97067Y37885D01*
X97051Y37852D01*
X97036Y37814D01*
X97023Y37763D01*
X97013Y37704D01*
X97010Y37635D01*
Y37079D01*
X97594D01*
Y37605D01*
X97592Y37635D01*
X97589Y37671D01*
X97587Y37712D01*
X97582Y37753D01*
X97574Y37793D01*
X97564Y37829D01*
X97561Y37834D01*
X97556Y37844D01*
X97549Y37860D01*
X97538Y37880D01*
X97523Y37903D01*
X97505Y37926D01*
X97482Y37949D01*
X97457Y37967D01*
X97454Y37969D01*
X97444Y37975D01*
X97429Y37982D01*
X97408Y37992D01*
X97385Y38000D01*
X97360Y38008D01*
X97329Y38013D01*
X97299Y38015D01*
D02*
G37*
%LPD*%
D11*
X62492Y204937D02*
Y247063D01*
X136508D01*
Y204937D02*
Y247063D01*
X62492Y204937D02*
X136508D01*
X19073Y254100D02*
X26947D01*
X19073D02*
Y261580D01*
X26947D01*
Y254100D02*
Y261580D01*
X61571Y144931D02*
X135587D01*
Y187057D01*
X61571D02*
X135587D01*
X61571Y144931D02*
Y187057D01*
Y78713D02*
Y120839D01*
X135587D01*
Y78713D02*
Y120839D01*
X61571Y78713D02*
X135587D01*
X61571Y15782D02*
X135587D01*
Y57908D01*
X61571D02*
X135587D01*
X61571Y15782D02*
Y57908D01*
M02*
